<?xml version="1.0" encoding="utf-8"?>
<!-- Generator: Adobe Illustrator 25.2.1, SVG Export Plug-In . SVG Version: 6.00 Build 0)  -->
<svg version="1.1" id="Layer_1" xmlns="http://www.w3.org/2000/svg" xmlns:xlink="http://www.w3.org/1999/xlink" x="0px" y="0px"
	 viewBox="0 0 60 60" style="enable-background:new 0 0 60 60;" xml:space="preserve">
<style type="text/css">
	.st0{fill:#FFFFFF;stroke:#808080;stroke-miterlimit:10;}
	.st1{fill:none;stroke:#6ACE9C;stroke-miterlimit:10;}
</style>
<g>
	<path class="st0" d="M42.46,58.23H25.88c-0.45,0-0.81-0.36-0.81-0.81V50.6c0-0.45,0.36-0.81,0.81-0.81h16.58
		c0.45,0,0.81,0.36,0.81,0.81v6.83C43.27,57.87,42.91,58.23,42.46,58.23z"/>
	<circle class="st0" cx="40.44" cy="53.75" r="1"/>
	<path class="st0" d="M22.02,29.24V9.68c0-1.91,1.37-3.47,3.07-3.47h0c1.7,0,3.07,1.55,3.07,3.47v13.12"/>
	<path class="st0" d="M26.98,49.79c0,0,1.19-1.63-3.77-6.83c-0.95-1-3.77-4.25-4.76-5.72c-0.68-1.01-1.16-2.13-1.45-3.31l-1.83-7.63
		c0,0-0.12-4.61,4.37-2.83"/>
	<path class="st0" d="M29.81,18.85h0.75c1.61,0,2.91,1.3,2.91,2.91v1.29"/>
	<path class="st0" d="M35.78,20.35h0.75c1.61,0,2.91,1.3,2.91,2.91v1.29"/>
	<path class="st0" d="M40.44,22.45h0.75c1.61,0,2.91,1.3,2.91,2.91v1.29v12.93c0,1.59-0.37,3.16-1.08,4.58l-2.58,5.16"/>
	<path class="st1" d="M19.63,11.93c-0.71-1.05-1.13-2.32-1.13-3.68c0-3.63,2.94-6.57,6.57-6.57s6.57,2.94,6.57,6.57
		c0,1.31-0.38,2.53-1.05,3.56"/>
</g>
</svg>
