<?xml version="1.0" encoding="utf-8"?>
<!-- Generator: Adobe Illustrator 25.2.1, SVG Export Plug-In . SVG Version: 6.00 Build 0)  -->
<svg version="1.1" id="Layer_1" xmlns="http://www.w3.org/2000/svg" xmlns:xlink="http://www.w3.org/1999/xlink" x="0px" y="0px"
	 viewBox="0 0 60 60" style="enable-background:new 0 0 60 60;" xml:space="preserve">
<style type="text/css">
	.st0{fill:none;stroke:#808080;stroke-miterlimit:10;}
	.st1{fill:#FFFFFF;stroke:#808080;stroke-miterlimit:10;}
	.st2{fill:none;stroke:#808080;stroke-linecap:round;stroke-linejoin:round;stroke-miterlimit:10;}
	.st3{fill:none;stroke:#6ACF9D;stroke-linecap:round;stroke-linejoin:round;stroke-miterlimit:10;}
	.st4{fill:#808080;}
	.st5{fill:#FFFFFF;}
</style>
<path class="st0" d="M46.61,55.22H11.69c-0.88,0-1.6-0.71-1.6-1.6V6.19c0-0.88,0.71-1.6,1.6-1.6H46.6c0.88,0,1.6,0.71,1.6,1.6v47.43
	C48.21,54.51,47.5,55.22,46.61,55.22z"/>
<path class="st1" d="M43.61,52.22H8.69c-0.88,0-1.6-0.71-1.6-1.6V3.19c0-0.88,0.71-1.6,1.6-1.6H43.6c0.88,0,1.6,0.71,1.6,1.6v47.43
	C45.21,51.51,44.5,52.22,43.61,52.22z"/>
<circle class="st0" cx="34.98" cy="8.92" r="5.45"/>
<path class="st2" d="M30.86,12.49c0.46-1.43,2.79-2.46,2.79-2.46c-0.48-0.39-0.77-0.97-0.77-1.64c0-1.17,0.95-2.11,2.11-2.11
	s2.11,0.95,2.11,2.11c0,0.63-0.28,1.21-0.71,1.59c0,0,0.84,0.37,1.39,0.81"/>
<line class="st2" x1="10.81" y1="6.72" x2="24.52" y2="6.72"/>
<line class="st2" x1="10.81" y1="11.76" x2="24.52" y2="11.76"/>
<line class="st2" x1="10.81" y1="16.8" x2="42.33" y2="16.8"/>
<line class="st2" x1="10.81" y1="21.84" x2="42.33" y2="21.84"/>
<line class="st2" x1="10.81" y1="27.57" x2="42.33" y2="27.57"/>
<line class="st2" x1="10.81" y1="33.3" x2="42.33" y2="33.3"/>
<path class="st3" d="M10.27,43.91c0,0,4.63,0.7,5.16-1.16S13.6,40,12.26,41.59c-1.35,1.59-0.43,3.37,0.41,4.3
	c0.88,0.97,3.22,1.3,5.01-1.19c0.77-1.08,1.5,1.92,5.27,0.26"/>
<circle class="st4" cx="45.1" cy="50.12" r="9.47"/>
<g>
	<path class="st5" d="M41.64,53.74l2.81-3.97l-2.83-4.03h1.19L45.12,49l2.11-3.25h1.21l-2.77,4l2.88,3.98h-1.22L45,50.53l-2.17,3.2
		h-1.19C41.64,53.73,41.64,53.74,41.64,53.74z"/>
</g>
</svg>
