<?xml version="1.0" encoding="utf-8"?>
<!-- Generator: Adobe Illustrator 25.2.1, SVG Export Plug-In . SVG Version: 6.00 Build 0)  -->
<svg version="1.1" id="Layer_1" xmlns="http://www.w3.org/2000/svg" xmlns:xlink="http://www.w3.org/1999/xlink" x="0px" y="0px"
	 viewBox="0 0 75.7 75.7" style="enable-background:new 0 0 75.7 75.7;" xml:space="preserve">
<style type="text/css">
	.st0{fill:#FFFFFF;stroke:#808080;stroke-miterlimit:10;}
	.st1{fill:none;stroke:#808080;stroke-miterlimit:10;}
	.st2{fill:#6ACC9A;}
	.st3{fill:none;stroke:#808080;stroke-linecap:round;stroke-linejoin:round;stroke-miterlimit:10;}
</style>
<path class="st0" d="M60.91,71.6H10.79c-1.07,0-1.94-0.87-1.94-1.94V2.54c0-1.07,0.87-1.94,1.94-1.94h50.13
	c1.07,0,1.94,0.87,1.94,1.94v67.13C62.85,70.73,61.98,71.6,60.91,71.6z"/>
<line class="st1" x1="15.94" y1="29.23" x2="55.35" y2="29.23"/>
<line class="st1" x1="15.94" y1="23.23" x2="55.35" y2="23.23"/>
<line class="st1" x1="15.94" y1="35.23" x2="55.35" y2="35.23"/>
<line class="st1" x1="15.94" y1="47.23" x2="55.35" y2="47.23"/>
<line class="st1" x1="15.94" y1="41.23" x2="55.35" y2="41.23"/>
<path class="st0" d="M41.15,74.5h29.7c1.46,0,2.65-1.19,2.65-2.65V57.31c0-1.46-1.19-2.65-2.65-2.65h-29.7
	c-1.46,0-2.65,1.19-2.65,2.65v14.54C38.5,73.31,39.69,74.5,41.15,74.5z"/>
<rect x="39" y="58.5" class="st2" width="34" height="5"/>
<circle class="st1" cx="48.16" cy="10.89" r="6.96"/>
<path class="st3" d="M42.9,15.45c0.59-1.83,3.56-3.14,3.56-3.14c-0.61-0.5-0.98-1.24-0.98-2.09c0-1.49,1.21-2.69,2.69-2.69
	c1.48,0,2.69,1.21,2.69,2.69c0,0.8-0.36,1.54-0.91,2.03c0,0,1.07,0.47,1.77,1.03"/>
<line class="st3" x1="17.31" y1="8.09" x2="34.81" y2="8.09"/>
<line class="st3" x1="17.31" y1="14.52" x2="34.81" y2="14.52"/>
<path class="st1" d="M64.3,69.61c0,0,2.38,0.36,2.65-0.6s-0.94-1.41-1.63-0.6c-0.69,0.82-0.22,1.73,0.21,2.21
	c0.45,0.5,1.65,0.67,2.57-0.61c0.4-0.55,0.77,0.99,2.7,0.13"/>
<g>
</g>
<g>
</g>
<g>
</g>
<g>
</g>
<g>
</g>
<g>
</g>
<g>
</g>
<g>
</g>
<g>
</g>
<g>
</g>
<g>
</g>
<g>
</g>
<g>
</g>
<g>
</g>
<g>
</g>
</svg>
