<?xml version="1.0" encoding="utf-8"?>
<!-- Generator: Adobe Illustrator 25.2.1, SVG Export Plug-In . SVG Version: 6.00 Build 0)  -->
<svg version="1.1" id="Layer_1" xmlns="http://www.w3.org/2000/svg" xmlns:xlink="http://www.w3.org/1999/xlink" x="0px" y="0px"
	 viewBox="0 0 60 60" style="enable-background:new 0 0 60 60;" xml:space="preserve">
<style type="text/css">
	.st0{fill:none;stroke:#808080;stroke-miterlimit:10;}
	.st1{fill:none;stroke:#808080;stroke-linecap:round;stroke-miterlimit:10;}
</style>
<path class="st0" d="M44.11,43.67v14.37c0,0.53-0.43,0.96-0.96,0.96L41,58.04L38.21,59l-3.17-1.6L31.95,59l-3.25-1.6L25.45,59
	l-2.78-1.6l-3.4,1.6l-3-1.6L13.71,59c-0.53,0-0.96-0.43-0.96-0.96V3.16c0-1.33,1.08-2.41,2.41-2.41h26.55
	c1.33,0,2.41,1.08,2.41,2.41V39"/>
<line class="st1" x1="17.52" y1="13.34" x2="37" y2="13.34"/>
<line class="st1" x1="17.52" y1="9" x2="24.87" y2="9"/>
<line class="st1" x1="17.52" y1="19.85" x2="24.87" y2="19.85"/>
<line class="st1" x1="17.52" y1="29.62" x2="24.87" y2="29.62"/>
<line class="st1" x1="17.52" y1="40.48" x2="24.87" y2="40.48"/>
<line class="st1" x1="17.52" y1="24.2" x2="37" y2="24.2"/>
<line class="st1" x1="17.52" y1="33.97" x2="37" y2="33.97"/>
<line class="st1" x1="17.52" y1="44.82" x2="37" y2="44.82"/>
<g>
</g>
<g>
</g>
<g>
</g>
<g>
</g>
<g>
</g>
<g>
</g>
<g>
</g>
<g>
</g>
<g>
</g>
<g>
</g>
<g>
</g>
<g>
</g>
<g>
</g>
<g>
</g>
<g>
</g>
</svg>
