<?xml version="1.0" encoding="utf-8"?>
<!-- Generator: Adobe Illustrator 25.2.1, SVG Export Plug-In . SVG Version: 6.00 Build 0)  -->
<svg version="1.1" id="Layer_1" xmlns="http://www.w3.org/2000/svg" xmlns:xlink="http://www.w3.org/1999/xlink" x="0px" y="0px"
	 viewBox="0 0 512 512" style="enable-background:new 0 0 512 512;" xml:space="preserve">
<style type="text/css">
	.st0{fill:#FFFFFF;}
	.st1{fill:#CCCCCC;}
</style>
<g>
	<g>
		<path class="st0" d="M73.75,512c-15.4,0-27.92-12.53-27.92-27.92V73.92C45.83,58.53,58.35,46,73.75,46h408.32
			C497.47,46,510,58.53,510,73.92v410.15c0,15.4-12.53,27.92-27.92,27.92L73.75,512L73.75,512z"/>
		<path class="st1" d="M482.08,47C496.92,47,509,59.08,509,73.92v410.15c0,14.85-12.08,26.92-26.92,26.92H73.75
			c-14.85,0-26.92-12.08-26.92-26.92V73.92C46.83,59.08,58.91,47,73.75,47H482.08 M482.08,45H73.75
			c-15.97,0-28.92,12.95-28.92,28.92v410.15c0,15.97,12.95,28.92,28.92,28.92h408.32c15.97,0,28.92-12.95,28.92-28.92V73.92
			C511,57.95,498.05,45,482.08,45L482.08,45z"/>
	</g>
	<g>
		<path class="st0" d="M51.78,490c-15.37,0-27.87-12.5-27.87-27.87V51.87C23.91,36.5,36.42,24,51.78,24h408.43
			c15.37,0,27.87,12.5,27.87,27.87v410.26c0,15.37-12.5,27.87-27.87,27.87H51.78z"/>
		<path class="st1" d="M460.22,25c14.82,0,26.87,12.05,26.87,26.87v410.26c0,14.82-12.05,26.87-26.87,26.87H51.78
			c-14.82,0-26.87-12.05-26.87-26.87V51.87C24.91,37.05,36.97,25,51.78,25H460.22 M460.22,23H51.78
			c-15.94,0-28.87,12.93-28.87,28.87v410.26c0,15.94,12.93,28.87,28.87,28.87h408.43c15.94,0,28.87-12.93,28.87-28.87V51.87
			C489.09,35.93,476.16,23,460.22,23L460.22,23z"/>
	</g>
	<g>
		<path class="st0" d="M29.82,468C14.48,468,2,455.52,2,440.18V29.82C2,14.48,14.48,2,29.82,2h408.54
			c15.34,0,27.82,12.48,27.82,27.82v410.37c0,15.34-12.48,27.82-27.82,27.82H29.82V468z"/>
		<path class="st1" d="M438.36,3c14.79,0,26.82,12.03,26.82,26.82v410.37c0,14.79-12.03,26.82-26.82,26.82H29.82
			C15.03,467,3,454.97,3,440.18V29.82C3,15.03,15.03,3,29.82,3H438.36 M438.36,1H29.82C13.9,1,1,13.9,1,29.82v410.37
			C1,456.1,13.9,469,29.82,469h408.54c15.91,0,28.82-12.9,28.82-28.82V29.82C467.17,13.9,454.27,1,438.36,1L438.36,1z"/>
	</g>
</g>
<g>
	<path class="st1" d="M467.17,115H1V30.43C1,14.17,14.17,1,30.43,1h407.32c16.25,0,29.43,13.17,29.43,29.43L467.17,115L467.17,115z"
		/>
</g>
<g>
	<g>
		<path class="st1" d="M435.42,3c16.41,0,29.76,13.35,29.76,29.76v407.43c0,14.79-12.03,26.82-26.82,26.82H29.82
			C15.03,467,3,454.97,3,440.18V34.09C3,16.95,16.95,3,34.09,3H435.42 M435.42,1H34.09C15.82,1,1,15.82,1,34.09v406.09
			C1,456.1,13.9,469,29.82,469h408.54c15.91,0,28.82-12.9,28.82-28.82V32.76C467.17,15.22,452.95,1,435.42,1L435.42,1z"/>
	</g>
</g>
<g>
	<ellipse class="st1" cx="224.07" cy="288.12" rx="126.93" ry="127.43"/>
	<path class="st1" d="M224.07,161.69c33.64,0,65.26,13.15,89.04,37.03C336.9,222.6,350,254.35,350,288.12s-13.1,65.52-36.89,89.4
		c-23.78,23.88-55.41,37.03-89.04,37.03s-65.26-13.15-89.04-37.03c-23.79-23.88-36.89-55.63-36.89-89.4s13.1-65.52,36.89-89.4
		C158.81,174.84,190.44,161.69,224.07,161.69 M224.07,159.69c-70.65,0-127.93,57.5-127.93,128.43s57.28,128.43,127.93,128.43
		S352,359.05,352,288.12S294.72,159.69,224.07,159.69L224.07,159.69z"/>
</g>
<g>
	<path class="st0" d="M224.82,369.15c-8.19,0-15.96-1.04-23.29-3.11c-7.34-2.08-13.83-5.15-19.46-9.22
		c-5.64-4.07-10.06-9.16-13.26-15.26c-3.2-6.11-4.81-13.19-4.81-21.25h18.49c0,7.25,1.82,13.17,5.47,17.77
		c3.65,4.6,8.72,8,15.21,10.2c6.49,2.2,13.95,3.3,22.38,3.3c8.19,0,15.02-1.22,20.5-3.66c5.48-2.44,9.59-5.66,12.35-9.65
		c2.76-3.99,4.13-8.26,4.13-12.82c0-6.11-1.93-11.25-5.78-15.45c-3.85-4.19-9.39-7.43-16.6-9.71l-15.57-5.38v-17.1l23.84,7.82
		c11.11,3.66,19.81,8.67,26.09,15.02c6.28,6.35,9.43,14.78,9.43,25.28c0,7.17-2.15,14.04-6.45,20.64
		c-4.3,6.59-10.83,12.01-19.58,16.24C249.15,367.04,238.12,369.15,224.82,369.15z M221.17,294.91l-12.41-4.15
		c-13.38-4.4-23.54-9.57-30.47-15.51s-10.4-14.21-10.4-24.79c0-11.89,4.76-21.57,14.29-29.06c9.53-7.49,23.33-11.23,41.42-11.23
		c16.46,0,29.17,3.64,38.14,10.93c8.96,7.29,14.41,16.91,16.36,28.88h-18.97c-1.22-7.08-4.87-12.72-10.95-16.91
		c-6.08-4.19-14.35-6.29-24.82-6.29c-11.43,0-20.13,2.3-26.09,6.9c-5.96,4.6-8.94,10.44-8.94,17.52c0,5.62,1.66,10.1,4.99,13.43
		c3.32,3.34,8.64,6.19,15.94,8.55l11.92,4.4L221.17,294.91L221.17,294.91z M216.55,388.45V192.32h14.84v196.12h-14.84V388.45z"/>
</g>
</svg>
