<?xml version="1.0" encoding="utf-8"?>
<!-- Generator: Adobe Illustrator 25.2.1, SVG Export Plug-In . SVG Version: 6.00 Build 0)  -->
<svg version="1.1" id="Layer_1" xmlns="http://www.w3.org/2000/svg" xmlns:xlink="http://www.w3.org/1999/xlink" x="0px" y="0px"
	 viewBox="0 0 60 60" style="enable-background:new 0 0 60 60;" xml:space="preserve">
<style type="text/css">
	.st0{fill:none;stroke:#808080;stroke-miterlimit:10;}
	.st1{fill:#808080;}
	.st2{enable-background:new    ;}
	.st3{fill:#FFFFFF;}
</style>
<polyline class="st0" points="45.1,15.3 38.8,15.3 38.8,9.2 "/>
<path class="st0" d="M47.5,24.4v-9.3l-8.7-8.7H13.7c-1,0-1.9,0.8-1.9,1.9V15v33.8v2.6c0,1,0.8,1.9,1.9,1.9h31.9c1,0,1.9-0.8,1.9-1.9
	V41.1V24.4z"/>
<line class="st0" x1="16.1" y1="42.8" x2="28" y2="42.8"/>
<line class="st0" x1="16.1" y1="36.4" x2="42.9" y2="36.4"/>
<line class="st0" x1="16.1" y1="31.6" x2="42.9" y2="31.6"/>
<line class="st0" x1="16.1" y1="26.5" x2="42.9" y2="26.5"/>
<line class="st0" x1="16.1" y1="20.9" x2="42.9" y2="20.9"/>
<circle class="st1" cx="44.7" cy="48.8" r="7.3"/>
<g class="st2">
	<path class="st3" d="M41.8,51.9l2.3-3.2l-2.1-3h1.3l1,1.5c0.2,0.3,0.3,0.5,0.4,0.7c0.2-0.3,0.3-0.5,0.5-0.7l1-1.5h1.3l-2.2,2.9
		l2.3,3.3h-1.3L45,50l-0.3-0.5l-1.6,2.5H41.8z"/>
</g>
</svg>
