<?xml version="1.0" encoding="utf-8"?>
<!-- Generator: Adobe Illustrator 25.2.1, SVG Export Plug-In . SVG Version: 6.00 Build 0)  -->
<svg version="1.1" id="Layer_1" xmlns="http://www.w3.org/2000/svg" xmlns:xlink="http://www.w3.org/1999/xlink" x="0px" y="0px"
	 viewBox="0 0 60 60" style="enable-background:new 0 0 60 60;" xml:space="preserve">
<style type="text/css">
	.st0{fill:none;stroke:#006EFF;stroke-miterlimit:10;}
	.st1{fill:#006EFF;}
	.st2{fill:none;stroke:url(#SVGID_1_);stroke-miterlimit:10;}
</style>
<g>
	<g>
		<ellipse class="st0" cx="35.7" cy="20.8" rx="2.7" ry="2.7"/>
		<ellipse class="st0" cx="27" cy="14.9" rx="2.7" ry="2.7"/>
		<line class="st0" x1="34.8" y1="12" x2="27.9" y2="24.8"/>
	</g>
	<rect x="26" y="34.3" class="st1" width="27" height="4"/>
	<linearGradient id="SVGID_1_" gradientUnits="userSpaceOnUse" x1="6.1" y1="30" x2="53.9" y2="30">
		<stop  offset="0" style="stop-color:#006EFF"/>
		<stop  offset="1" style="stop-color:#00F0AB"/>
	</linearGradient>
	<path class="st2" d="M9.6,16.1h6.3V10 M42.2,27.2V15.1V8.4c0-1-0.8-1.9-1.9-1.9h-25l-8.7,8.7v9.3v16.7v10.4c0,1,0.8,1.9,1.9,1.9
		h31.9c1,0,1.9-0.8,1.9-1.9V49 M27.7,47h23.6c1.2,0,2.1-0.9,2.1-2.1V33.4c0-1.2-0.9-2.1-2.1-2.1H27.7c-1.2,0-2.1,0.9-2.1,2.1V45
		C25.6,46.1,26.6,47,27.7,47z M44,42.7c0,0,2.7,0.4,3-0.7c0.3-1.1-1.1-1.6-1.8-0.7c-0.8,0.9-0.2,1.9,0.2,2.5
		c0.5,0.6,1.9,0.8,2.9-0.7c0.4-0.6,0.9,1.1,3,0.1"/>
</g>
</svg>
