<?xml version="1.0" encoding="utf-8"?>
<!-- Generator: Adobe Illustrator 25.2.1, SVG Export Plug-In . SVG Version: 6.00 Build 0)  -->
<svg version="1.1" id="Layer_1" xmlns="http://www.w3.org/2000/svg" xmlns:xlink="http://www.w3.org/1999/xlink" x="0px" y="0px"
	 viewBox="0 0 60 60" style="enable-background:new 0 0 60 60;" xml:space="preserve">
<style type="text/css">
	.st0{display:none;opacity:0.14;}
	.st1{fill:none;stroke:#808080;stroke-miterlimit:10;}
	.st2{fill:none;stroke:#6ACE9C;stroke-width:1;stroke-miterlimit:9.9999;}
	.st3{fill:none;stroke:#6ACE9C;stroke-miterlimit:10;}
	.st4{fill:#FFFFFF;stroke:#808080;stroke-miterlimit:10;}
	.st5{fill:#6ACC9A;}
</style>
<g id="cmBL7A_1_" class="st0">
	
		<image style="display:inline;overflow:visible;" width="1500" height="1342" id="cmBL7A_2_" xlink:href="8FAD8A1DBFA485B0.jpg"  transform="matrix(0.319 0 0 0.319 -370.9212 -292.5174)">
	</image>
</g>
<polyline class="st1" points="13.7,16.1 20,16.1 20,10 "/>
<g>
	<ellipse transform="matrix(0.9869 -0.1613 0.1613 0.9869 -2.8304 6.6901)" class="st2" cx="39.8" cy="20.8" rx="2.7" ry="2.7"/>
	<ellipse transform="matrix(0.9869 -0.1613 0.1613 0.9869 -1.9991 5.2043)" class="st2" cx="31.1" cy="14.9" rx="2.7" ry="2.7"/>
	<line class="st3" x1="38.9" y1="12" x2="32" y2="24.8"/>
</g>
<path class="st1" d="M46.3,27.2V15.1V8.4c0-1-0.8-1.9-1.9-1.9h-25l-8.7,8.7v9.3v16.7v10.4c0,1,0.8,1.9,1.9,1.9h31.9
	c1,0,1.9-0.8,1.9-1.9v-2.6"/>
<path class="st4" d="M31.8,47h23.6c1.2,0,2.1-0.9,2.1-2.1V33.4c0-1.2-0.9-2.1-2.1-2.1H31.8c-1.2,0-2.1,0.9-2.1,2.1v11.6
	C29.7,46.1,30.7,47,31.8,47z"/>
<rect x="30.1" y="34.3" class="st5" width="27" height="4"/>
<path class="st1" d="M48.1,42.7c0,0,2.7,0.4,3-0.7c0.3-1.1-1.1-1.6-1.8-0.7c-0.8,0.9-0.2,1.9,0.2,2.5c0.5,0.6,1.9,0.8,2.9-0.7
	c0.4-0.6,0.9,1.1,3,0.1"/>
</svg>
