<?xml version="1.0" encoding="utf-8"?>
<!-- Generator: Adobe Illustrator 25.2.1, SVG Export Plug-In . SVG Version: 6.00 Build 0)  -->
<svg version="1.1" id="Layer_1" xmlns="http://www.w3.org/2000/svg" xmlns:xlink="http://www.w3.org/1999/xlink" x="0px" y="0px"
	 viewBox="0 0 75.7 75.7" style="enable-background:new 0 0 75.7 75.7;" xml:space="preserve">
<style type="text/css">
	.st0{fill:none;stroke:url(#SVGID_1_);stroke-miterlimit:10;}
	.st1{fill:none;stroke:url(#SVGID_2_);stroke-miterlimit:10;}
	.st2{fill:#006EFF;}
</style>
<linearGradient id="SVGID_1_" gradientUnits="userSpaceOnUse" x1="8.4" y1="37.8" x2="67.4" y2="37.8">
	<stop  offset="0" style="stop-color:#006EFF"/>
	<stop  offset="1" style="stop-color:#00F0AB"/>
</linearGradient>
<path class="st0" d="M62.5,4.1h2.4c1.1,0,2,0.9,2,1.9v67.1c0,1.1-0.9,1.9-1.9,1.9H14.8c-1.1,0-1.9-0.9-1.9-1.9v-1.9 M60.9,71.6H10.8
	c-1.1,0-1.9-0.9-1.9-1.9V2.5c0-1.1,0.9-1.9,1.9-1.9h50.1c1.1,0,1.9,0.9,1.9,1.9v67.1C62.8,70.7,62,71.6,60.9,71.6z M15.9,54.2h39.4
	 M15.9,49.2h39.4 M15.9,59.2h39.4"/>
<linearGradient id="SVGID_2_" gradientUnits="userSpaceOnUse" x1="19.9" y1="23" x2="51.7" y2="23">
	<stop  offset="0" style="stop-color:#006EFF"/>
	<stop  offset="1" style="stop-color:#00F0AB"/>
</linearGradient>
<circle class="st1" cx="35.8" cy="23" r="15.4"/>
<g>
	<path class="st2" d="M29.1,17.3L29.1,17.3l-2.5,1.3l-0.4-1.5l3.1-1.7h1.6v14.2H29L29.1,17.3L29.1,17.3z"/>
	<path class="st2" d="M36.1,29.7v-1.2l1.5-1.5c3.6-3.5,5.3-5.3,5.3-7.4c0-1.4-0.7-2.8-2.8-2.8c-1.3,0-2.4,0.7-3,1.2l-0.6-1.4
		c1-0.8,2.4-1.4,4-1.4c3.1,0,4.3,2.1,4.3,4.1c0,2.6-1.9,4.7-4.9,7.6l-1.1,1l0,0h6.4v1.6h-9.1V29.7z"/>
</g>
</svg>
