<?xml version="1.0" encoding="utf-8"?>
<!-- Generator: Adobe Illustrator 25.2.1, SVG Export Plug-In . SVG Version: 6.00 Build 0)  -->
<svg version="1.1" id="Layer_1" xmlns="http://www.w3.org/2000/svg" xmlns:xlink="http://www.w3.org/1999/xlink" x="0px" y="0px"
	 viewBox="0 0 75.7 75.7" style="enable-background:new 0 0 75.7 75.7;" xml:space="preserve">
<style type="text/css">
	.st0{fill:none;stroke:#808080;stroke-miterlimit:10;}
	.st1{fill:#FFFFFF;stroke:#808080;stroke-miterlimit:10;}
	.st2{fill:none;stroke:#6ACC9A;stroke-miterlimit:10;}
	.st3{fill:#808080;}
</style>
<g>
	<path class="st0" d="M62.5,4.1h2.4C66,4.1,66.9,5,66.9,6v67.1c0,1.1-0.9,1.9-1.9,1.9H14.8c-1.1,0-1.9-0.9-1.9-1.9v-1.9"/>
	<path class="st1" d="M60.9,71.6H10.8c-1.1,0-1.9-0.9-1.9-1.9V2.5c0-1.1,0.9-1.9,1.9-1.9h50.1c1.1,0,1.9,0.9,1.9,1.9v67.1
		C62.8,70.7,62,71.6,60.9,71.6z"/>
	<line class="st0" x1="15.9" y1="54.2" x2="55.3" y2="54.2"/>
	<line class="st0" x1="15.9" y1="49.2" x2="55.3" y2="49.2"/>
	<line class="st0" x1="15.9" y1="59.2" x2="55.3" y2="59.2"/>
	<circle class="st2" cx="35.8" cy="23" r="15.4"/>
</g>
<g>
	<path class="st3" d="M29.1,17.3L29.1,17.3l-2.5,1.3l-0.4-1.5l3.1-1.7h1.6v14.2h-1.9V17.3z"/>
	<path class="st3" d="M36.1,29.7v-1.2l1.5-1.5c3.6-3.5,5.3-5.3,5.3-7.4c0-1.4-0.7-2.8-2.8-2.8c-1.3,0-2.4,0.7-3,1.2l-0.6-1.4
		c1-0.8,2.4-1.4,4-1.4c3.1,0,4.3,2.1,4.3,4.1c0,2.6-1.9,4.7-4.9,7.6l-1.1,1v0h6.4v1.6H36.1z"/>
</g>
</svg>
