<?xml version="1.0" encoding="utf-8"?>
<!-- Generator: Adobe Illustrator 25.2.1, SVG Export Plug-In . SVG Version: 6.00 Build 0)  -->
<svg version="1.1" id="Layer_1" xmlns="http://www.w3.org/2000/svg" xmlns:xlink="http://www.w3.org/1999/xlink" x="0px" y="0px"
	 viewBox="0 0 128 80" style="enable-background:new 0 0 128 80;" xml:space="preserve">
<style type="text/css">
	.st0{fill:#808080;}
	.st1{fill:#6ACC9A;}
</style>
<g>
	<path class="st0" d="M1.02,65.41c0,0.25-0.02,0.5-0.02,0.75h0.05C1.05,65.91,1.03,65.66,1.02,65.41z"/>
	<path class="st0" d="M10.3,35.22C4.56,43.9,1.17,54.26,1.02,65.41c0-0.25-0.02-0.5-0.02-0.75c0-10.98,2.82-21.3,7.79-30.27
		L10.3,35.22z"/>
</g>
<g>
	<path class="st0" d="M31.64,10.79c-8.98,5.35-16.51,12.88-21.86,21.86l1.44,1.22c5.75-8.17,13.63-14.73,22.83-18.89L31.64,10.79z"
		/>
</g>
<g>
	<path class="st0" d="M63.45,10.37c-0.19-0.02-0.38-0.04-0.57-0.06c-1.89-0.19-3.8-0.29-5.74-0.29c-7.34,0-14.35,1.41-20.77,3.97
		l-2.58-4.43C42.67,4.74,52.85,2,63.66,2L63.45,10.37"/>
</g>
<g>
	<path class="st0" d="M65.41,10.62c8.47,1.25,16.33,4.39,23.12,8.98l5.97-9.51c-8.5-4.82-18.25-7.7-28.63-8.06L65.41,10.62z"/>
</g>
<g>
	<path class="st1" d="M97.2,11.72c8.45,5.36,15.53,12.7,20.59,21.35l-11.29,6.31c-3.84-7.07-9.16-13.22-15.55-18.05L97.2,11.72z"/>
</g>
<g>
	<path class="st1" d="M107.79,41.92c3.52,7.34,5.49,15.56,5.49,24.24h12.99c0.01-0.5,0.04-1,0.04-1.5c0-10.63-2.66-20.64-7.33-29.41
		L107.79,41.92z"/>
</g>
<path class="st0" d="M96.24,31.07L69.21,75.4c-1.67,2.74-5.33,3.44-7.89,1.52l0,0c-2.59-1.94-2.92-5.71-0.69-8.07L96.24,31.07z"/>
<g>
</g>
<g>
</g>
<g>
</g>
<g>
</g>
<g>
</g>
<g>
</g>
<g>
</g>
<g>
</g>
<g>
</g>
<g>
</g>
<g>
</g>
<g>
</g>
<g>
</g>
<g>
</g>
<g>
</g>
</svg>
