<?xml version="1.0" encoding="utf-8"?>
<!-- Generator: Adobe Illustrator 25.2.1, SVG Export Plug-In . SVG Version: 6.00 Build 0)  -->
<svg version="1.1" id="Layer_1" xmlns="http://www.w3.org/2000/svg" xmlns:xlink="http://www.w3.org/1999/xlink" x="0px" y="0px"
	 viewBox="0 0 60 60" style="enable-background:new 0 0 60 60;" xml:space="preserve">
<style type="text/css">
	.st0{fill:url(#SVGID_1_);}
</style>
<linearGradient id="SVGID_1_" gradientUnits="userSpaceOnUse" x1="6.7671" y1="31.1051" x2="52" y2="31.1051">
	<stop  offset="0" style="stop-color:#006EFF"/>
	<stop  offset="1" style="stop-color:#00F0AB"/>
</linearGradient>
<path class="st0" d="M30,33.5c-0.1,0-0.2,0-0.3,0c-1-0.1-1.7-0.9-1.7-1.9c0-0.5-0.4-0.8-0.8-0.8c-0.5,0-0.8,0.4-0.8,0.8
	c0,1.6,1.1,3,2.6,3.5v0.8c0,0.5,0.4,0.8,0.8,0.8s0.8-0.4,0.8-0.8v-0.8c1.8-0.4,3-2.1,2.8-3.9c-0.2-1.8-1.7-3.2-3.6-3.2
	c-1.1,0-1.9-0.9-1.9-1.9c0-1.1,0.9-1.9,1.9-1.9s1.9,0.9,1.9,1.9c0,0.5,0.4,0.8,0.8,0.8c0.5,0,0.8-0.4,0.8-0.8c0-1.7-1.2-3.2-2.9-3.5
	v-0.8c0-0.5-0.4-0.8-0.8-0.8S29,21.3,29,21.8v0.8c-1.7,0.5-2.9,2.2-2.6,3.9s1.8,3.1,3.6,3.1c1,0,1.9,0.8,1.9,1.9
	C31.8,32.6,31,33.4,30,33.5z M17.7,28.9c0,6.7,5.5,12.2,12.2,12.2s12.2-5.5,12.2-12.2s-5.5-12.2-12.2-12.2
	C23.2,16.7,17.7,22.1,17.7,28.9z M29.9,18.3c5.8,0,10.5,4.7,10.5,10.5s-4.7,10.5-10.5,10.5s-10.5-4.7-10.5-10.5
	C19.4,23,24.1,18.3,29.9,18.3z M46.3,43.1l-6.6,3.1c-0.9-1.7-2.7-2.8-4.6-2.8L29,43.3c-1,0-1.9-0.3-2.8-0.7l-0.6-0.3
	c-3.2-1.7-7-1.6-10.1,0l0-1.4c0-0.5-0.4-0.9-0.8-0.9L8,39.8c-0.5,0-0.9,0.4-0.9,0.8L6.8,55.3c0,0.5,0.4,0.9,0.8,0.9l6.7,0.2h0
	c0.5,0,0.8-0.4,0.8-0.8l0-0.7l1.7-0.9c0.7-0.4,1.5-0.5,2.2-0.2l10.4,2.9c0,0,0,0,0.1,0c0.7,0.2,1.5,0.2,2.3,0.2c1.6,0,3.2-0.3,4.7-1
	c0,0,0.1,0,0.1-0.1l15-9.7c0.4-0.2,0.5-0.7,0.3-1.1C50.8,42.9,48.3,42.1,46.3,43.1z M8.5,54.5l0.4-13l5,0.1l-0.4,13L8.5,54.5z
	 M35.7,54.2c-1.8,0.8-3.9,1.1-5.8,0.7L19.6,52c-1.2-0.3-2.4-0.2-3.5,0.4l-0.9,0.5l0.2-8.6c2.8-1.9,6.4-2.1,9.4-0.5l0.6,0.3
	c1.1,0.6,2.3,0.9,3.5,0.9l6.1,0.2c1.7,0,3.2,1.3,3.5,2.9l-9.1-0.3c-0.5,0-0.9,0.4-0.9,0.8c0,0.5,0.4,0.9,0.8,0.9l10,0.3h0
	c0.5,0,0.8-0.4,0.8-0.8c0-0.4,0-0.7-0.1-1.1l6.8-3.2c0,0,0,0,0,0c1-0.5,2.1-0.3,2.9,0.4L35.7,54.2z M30.8,14.3v-8
	c0-0.5-0.4-0.8-0.8-0.8c-0.5,0-0.8,0.4-0.8,0.8v8c0,0.5,0.4,0.8,0.8,0.8C30.4,15.1,30.8,14.7,30.8,14.3z M37.1,14.3v-3.8
	c0-0.5-0.4-0.8-0.8-0.8s-0.8,0.4-0.8,0.8v3.8c0,0.5,0.4,0.8,0.8,0.8S37.1,14.7,37.1,14.3z M24.4,14.3v-3.8c0-0.5-0.4-0.8-0.8-0.8
	s-0.8,0.4-0.8,0.8v3.8c0,0.5,0.4,0.8,0.8,0.8S24.4,14.7,24.4,14.3z"/>
</svg>
