<?xml version="1.0" encoding="utf-8"?>
<!-- Generator: Adobe Illustrator 25.2.1, SVG Export Plug-In . SVG Version: 6.00 Build 0)  -->
<svg version="1.1" id="Layer_1" xmlns="http://www.w3.org/2000/svg" xmlns:xlink="http://www.w3.org/1999/xlink" x="0px" y="0px"
	 viewBox="0 0 60 60" style="enable-background:new 0 0 60 60;" xml:space="preserve">
<style type="text/css">
	.st0{fill:#808080;}
	.st1{fill:none;stroke:#808080;stroke-miterlimit:10;}
	.st2{fill:#6ACF9D;}
	.st3{fill:#FFFFFF;}
</style>
<g>
	<path class="st0" d="M35.2,31.5c-0.6-0.6-1.5-1.2-2.7-1.5l-1.7-0.6V24c0.7,0.1,1.3,0.3,1.7,0.6c0.6,0.4,1,1,1.1,1.7h1.9
		c-0.2-1.2-0.7-2.2-1.7-2.9c-0.7-0.6-1.8-1-3.1-1.1v-1.9h-1.5v1.9c-1.5,0.1-2.7,0.5-3.5,1.1c-1,0.7-1.5,1.7-1.5,2.9
		c0,1.1,0.4,1.9,1.1,2.5c0.7,0.6,1.7,1.1,3.1,1.6l0.8,0.3v5.9c-0.5,0-1-0.1-1.4-0.3c-0.7-0.2-1.2-0.6-1.6-1
		c-0.4-0.5-0.6-1.1-0.6-1.8h-1.9c0,0.8,0.2,1.5,0.5,2.2c0.3,0.6,0.8,1.1,1.4,1.6c0.6,0.4,1.2,0.7,2,0.9c0.5,0.1,1,0.2,1.5,0.3v2h1.5
		v-2c1.1-0.1,2-0.3,2.7-0.6c0.9-0.4,1.6-1,2-1.7c0.4-0.7,0.7-1.4,0.7-2.1C36.1,32.9,35.8,32.1,35.2,31.5z M28.5,28.6
		c-0.7-0.2-1.3-0.5-1.6-0.9c-0.3-0.3-0.5-0.8-0.5-1.4c0-0.7,0.3-1.3,0.9-1.8c0.5-0.4,1.1-0.6,2-0.7v4.9L28.5,28.6z M33.5,35.3
		c-0.3,0.4-0.7,0.7-1.2,1c-0.4,0.2-0.9,0.3-1.5,0.3v-5.5l0.9,0.3c0.7,0.2,1.3,0.6,1.7,1c0.4,0.4,0.6,0.9,0.6,1.6
		C33.9,34.4,33.8,34.9,33.5,35.3z"/>
	<path class="st1" d="M50.3,17.9c2.2,3.6,3.5,7.9,3.5,12.5c0,13.1-10.7,23.8-23.8,23.8S6.2,43.5,6.2,30.4S16.9,6.6,30,6.6
		c2.4,0,4.8,0.4,7,1.1"/>
	<circle class="st2" cx="43.8" cy="12.5" r="6.7"/>
	<g>
		<path class="st3" d="M44.2,9.1v3H47v0.8h-2.9v3h-0.8v-3h-2.9v-0.8h2.9v-3H44.2z"/>
	</g>
</g>
</svg>
