<?xml version="1.0" encoding="utf-8"?>
<!-- Generator: Adobe Illustrator 25.2.1, SVG Export Plug-In . SVG Version: 6.00 Build 0)  -->
<svg version="1.1" id="Layer_1" xmlns="http://www.w3.org/2000/svg" xmlns:xlink="http://www.w3.org/1999/xlink" x="0px" y="0px"
	 viewBox="0 0 60 60" style="enable-background:new 0 0 60 60;" xml:space="preserve">
<style type="text/css">
	.st0{fill:none;stroke:#808080;stroke-miterlimit:10;}
	.st1{fill:#FFFFFF;stroke:#808080;stroke-miterlimit:10;}
	.st2{fill:none;stroke:#6ACF9D;stroke-miterlimit:10;}
</style>
<g>
	<path class="st0" d="M49.4,52.1H18.3c-1.7,0-3.2-1.4-3.2-3.2V17.7c0-1.7,1.4-3.2,3.2-3.2h31.2c1.7,0,3.2,1.4,3.2,3.2v31.2
		C52.6,50.6,51.2,52.1,49.4,52.1z"/>
	<path class="st1" d="M27.7,31.4H10.6c-1.7,0-3.2-1.4-3.2-3.2V11.1c0-1.7,1.4-3.2,3.2-3.2h17.1c1.7,0,3.2,1.4,3.2,3.2v17.1
		C30.8,30,29.4,31.4,27.7,31.4z"/>
	<polyline class="st2" points="12.1,21.2 15.7,24.9 26.1,14.5 	"/>
</g>
</svg>
