<?xml version="1.0" encoding="utf-8"?>
<!-- Generator: Adobe Illustrator 25.2.1, SVG Export Plug-In . SVG Version: 6.00 Build 0)  -->
<svg version="1.1" id="Layer_1" xmlns="http://www.w3.org/2000/svg" xmlns:xlink="http://www.w3.org/1999/xlink" x="0px" y="0px"
	 viewBox="0 0 60 60" style="enable-background:new 0 0 60 60;" xml:space="preserve">
<style type="text/css">
	.st0{fill:#808080;}
	.st1{fill:none;stroke:#808080;stroke-miterlimit:10;}
	.st2{fill:#FFFFFF;stroke:#808080;stroke-miterlimit:10;}
	.st3{fill:none;stroke:#6ACE9C;stroke-linecap:round;stroke-miterlimit:10;}
</style>
<g>
	<path class="st0" d="M33.84,17.07c-0.28-0.29-0.68-0.51-1.18-0.68l-0.77-0.25v-2.36c0.3,0.04,0.56,0.11,0.76,0.24
		c0.27,0.19,0.44,0.44,0.5,0.76H34c-0.09-0.54-0.33-0.97-0.74-1.3c-0.34-0.27-0.8-0.43-1.37-0.47v-0.82h-0.67v0.82
		c-0.66,0.04-1.18,0.2-1.55,0.49c-0.43,0.34-0.65,0.77-0.65,1.31c0,0.48,0.16,0.85,0.47,1.12c0.31,0.27,0.77,0.5,1.38,0.7l0.35,0.12
		v2.59c-0.22-0.02-0.42-0.06-0.6-0.12c-0.29-0.1-0.52-0.25-0.69-0.46c-0.17-0.21-0.25-0.47-0.25-0.8h-0.84
		c0,0.36,0.07,0.68,0.22,0.96c0.14,0.28,0.34,0.5,0.6,0.69c0.25,0.18,0.55,0.32,0.88,0.42c0.22,0.06,0.45,0.09,0.68,0.12v0.89h0.67
		v-0.9c0.46-0.03,0.87-0.1,1.2-0.26c0.4-0.19,0.69-0.43,0.89-0.73c0.19-0.3,0.29-0.61,0.29-0.93
		C34.26,17.73,34.12,17.35,33.84,17.07z M30.89,15.83c-0.33-0.11-0.57-0.23-0.72-0.38c-0.15-0.15-0.23-0.35-0.23-0.6
		c0-0.32,0.13-0.58,0.4-0.79c0.21-0.16,0.51-0.24,0.87-0.28v2.18L30.89,15.83z M33.11,18.76c-0.13,0.18-0.31,0.33-0.56,0.43
		c-0.18,0.08-0.41,0.12-0.66,0.14v-2.42l0.4,0.14c0.33,0.1,0.58,0.25,0.75,0.44c0.17,0.19,0.26,0.42,0.26,0.7
		C33.3,18.39,33.23,18.58,33.11,18.76z"/>
	<path class="st1" d="M34.49,57.58l9.29-9.02c0.32-0.31,0.33-0.82,0.02-1.15l-3.58-3.69c-0.31-0.32-0.82-0.33-1.15-0.02l-9.29,9.02
		c-0.32,0.31-0.33,0.82-0.02,1.15l3.58,3.69C33.66,57.89,34.17,57.89,34.49,57.58z"/>
	<circle class="st1" cx="39.89" cy="48.29" r="0.8"/>
	<path class="st2" d="M25.03,34.57"/>
	<path class="st1" d="M29.96,29.64L19.05,18.4c-1.07-1.1-2.72-1.23-3.7-0.28l0,0c-0.97,0.95-0.9,2.6,0.17,3.7l4.18,4.3"/>
	<path class="st1" d="M38.92,44.02l0.09-0.09c1.24-1.24,1.67-3.07,1.12-4.73c0,0-1.76-2.33-0.89-6.46c0.35-1.67,2.99-4.69,2.99-4.69
		c1.08-1.08,1.18-2.74,0.22-3.7l0,0c-0.96-0.96-2.62-0.86-3.7,0.22L31.32,32l-3.55,3.55c-2.44,2.44-2.44,6.39,0,8.82l0.49,0.49"/>
	<path class="st1" d="M14.46,36.99"/>
	<path class="st1" d="M30.57,51.45l-4.36-1.53c-1.2-0.42-2.29-1.12-3.18-2.03l-2.45-2.52l-2.77-2.86"/>
	<line class="st3" x1="25.7" y1="2.41" x2="29.33" y2="10.78"/>
	<line class="st3" x1="15.84" y1="10.13" x2="23.82" y2="14.32"/>
	<line class="st3" x1="38.18" y1="3.12" x2="34.56" y2="11.5"/>
	<line class="st3" x1="45.92" y1="12.87" x2="37.26" y2="15.77"/>
	<path class="st1" d="M24.25,33.67L24.25,33.67c-0.84,0.84-2.19,0.84-3.03,0l-2.92-2.92c-0.84-0.84-0.84-2.19,0-3.03l0,0
		c0.84-0.84,2.19-0.84,3.03,0l2.92,2.92C25.08,31.48,25.08,32.83,24.25,33.67z"/>
	<path class="st1" d="M21.42,37.75L21.42,37.75c-0.73,0.73-1.92,0.73-2.65,0l-2.62-2.62c-0.73-0.73-0.73-1.92,0-2.65l0,0
		c0.73-0.73,1.92-0.73,2.65,0l2.62,2.62C22.15,35.83,22.15,37.02,21.42,37.75z"/>
	<path class="st1" d="M18.65,39.01c0.58,0.58,0.99,1.45,0,2.09 M18.65,41.1c-0.58,0.58-1.51,0.58-2.09,0l-2.04-2.04
		c-0.58-0.58-0.58-1.51,0-2.09h0c0.58-0.58,1.51-0.58,2.09,0l2.04,2.04"/>
</g>
</svg>
