<?xml version="1.0" encoding="utf-8"?>
<!-- Generator: Adobe Illustrator 25.2.1, SVG Export Plug-In . SVG Version: 6.00 Build 0)  -->
<svg version="1.1" id="Layer_1" xmlns="http://www.w3.org/2000/svg" xmlns:xlink="http://www.w3.org/1999/xlink" x="0px" y="0px"
	 viewBox="0 0 60 60" style="enable-background:new 0 0 60 60;" xml:space="preserve">
<style type="text/css">
	.st0{fill:none;stroke:url(#SVGID_1_);stroke-miterlimit:10;}
	.st1{fill:none;stroke:#00F0AB;stroke-miterlimit:10;}
</style>
<linearGradient id="SVGID_1_" gradientUnits="userSpaceOnUse" x1="6.9" y1="30" x2="53.2" y2="30">
	<stop  offset="0" style="stop-color:#006EFF"/>
	<stop  offset="1" style="stop-color:#00F0AB"/>
</linearGradient>
<path class="st0" d="M31,14.5h18.5c1.7,0,3.2,1.4,3.2,3.2v31.2c-0.1,1.7-1.5,3.2-3.3,3.2H18.3c-1.7,0-3.2-1.4-3.2-3.2V31.7
	 M27.7,31.4H10.6c-1.7,0-3.2-1.4-3.2-3.2V11.1c0-1.7,1.4-3.2,3.2-3.2h17.1c1.7,0,3.2,1.4,3.2,3.2v17.1C30.8,30,29.4,31.4,27.7,31.4z
	"/>
<polyline class="st1" points="12.1,21.2 15.7,24.9 26.1,14.5 "/>
</svg>
