<?xml version="1.0" encoding="utf-8"?>
<!-- Generator: Adobe Illustrator 25.2.1, SVG Export Plug-In . SVG Version: 6.00 Build 0)  -->
<svg version="1.1" id="Layer_1" xmlns="http://www.w3.org/2000/svg" xmlns:xlink="http://www.w3.org/1999/xlink" x="0px" y="0px"
	 viewBox="0 0 60 60" style="enable-background:new 0 0 60 60;" xml:space="preserve">
<style type="text/css">
	.st0{fill:none;stroke:#808080;stroke-miterlimit:10;}
	.st1{fill:url(#SVGID_1_);}
	.st2{fill:url(#SVGID_2_);}
	.st3{fill:#00F0AB;}
</style>
<path class="st0" d="M4.2,38.8"/>
<g>
	<g>
		
			<linearGradient id="SVGID_1_" gradientUnits="userSpaceOnUse" x1="8.1296" y1="10.1289" x2="51.6299" y2="53.6292" gradientTransform="matrix(1 0 0 -1 0 62)">
			<stop  offset="0" style="stop-color:#006EFF"/>
			<stop  offset="1" style="stop-color:#00F0AB"/>
		</linearGradient>
		<path class="st1" d="M56.3,13.5H3.7c-1,0-1.9,0.8-1.9,2v21v2.1v1.6v2.4v2.1c0,1,0.8,2,1.9,2H56c1.2,0,2.2-1,2.2-2.4v-2.1v-2.4
			v-0.6V37V15.4C58.2,14.4,57.4,13.5,56.3,13.5z M2.7,16c0-0.9,0.7-1.6,1.6-1.6h1.4c-0.2,1.5-1.4,2.7-2.9,3V16H2.7z M2.7,38.5v-0.4
			c1.5,0.2,2.8,1.4,3,3H4.3c-0.9,0-1.6-0.7-1.6-1.6C2.7,39.5,2.7,38.5,2.7,38.5z M55.7,45.6H4.3c-0.8,0-1.5-0.6-1.6-1.4
			c0.3,0.2,0.6,0.3,0.9,0.3H56c0.5,0,0.9-0.2,1.3-0.4C57.2,44.9,56.6,45.6,55.7,45.6z M57.3,41.9c0,0.9-0.7,1.6-1.6,1.6H4.3
			c-0.9,0-1.6-0.7-1.6-1.6v-0.1c0.3,0.2,0.6,0.3,1,0.3H56c0.5,0,0.9-0.2,1.3-0.4V41.9z M57.3,39.1v0.4c0,0.9-0.7,1.6-1.6,1.6h-1
			c0.2-1.4,1.2-2.5,2.6-2.9V39.1z M57.3,37v0.4c-1.8,0.4-3.2,1.9-3.4,3.8H6.6c-0.3-2-1.8-3.6-3.8-3.8v-0.9V18.2
			c2-0.3,3.5-1.8,3.8-3.8h47.3c0.3,1.8,1.6,3.2,3.4,3.6V37z M57.3,17.2c-1.3-0.4-2.3-1.4-2.6-2.8h1c0.9,0,1.6,0.7,1.6,1.6V17.2z"/>
		
			<linearGradient id="SVGID_2_" gradientUnits="userSpaceOnUse" x1="22.006" y1="26.406" x2="37.631" y2="42.031" gradientTransform="matrix(1 0 0 -1 0 62)">
			<stop  offset="0" style="stop-color:#006EFF"/>
			<stop  offset="1" style="stop-color:#00F0AB"/>
		</linearGradient>
		<path class="st2" d="M38.6,22.5c1,1.6,1.5,3.4,1.5,5.3c0,5.6-4.6,10.2-10.2,10.2s-10.2-4.6-10.2-10.2s4.6-10.2,10.2-10.2
			c1,0,2,0.1,2.9,0.4l0.3-1c-1-0.3-2.1-0.5-3.2-0.5c-6.2,0-11.2,5-11.2,11.2s5,11.2,11.2,11.2s11.2-5,11.2-11.2
			c0-2.2-0.6-4.2-1.7-5.9L38.6,22.5z"/>
	</g>
	<g>
		<path class="st3" d="M29.5,34.6V33c-0.9,0-1.9-0.3-2.4-0.7l0.4-1.1c0.6,0.4,1.4,0.7,2.3,0.7c1.1,0,1.9-0.7,1.9-1.6
			s-0.6-1.4-1.8-1.9c-1.6-0.6-2.6-1.4-2.6-2.8c0-1.3,0.9-2.3,2.4-2.6v-1.6h1V23c1,0,1.6,0.3,2.1,0.6l-0.4,1.1c-0.3-0.2-1-0.5-2-0.5
			c-1.2,0-1.7,0.7-1.7,1.4c0,0.8,0.6,1.2,2,1.8c1.6,0.7,2.5,1.5,2.5,2.9c0,1.3-0.9,2.4-2.5,2.7v1.7h-1.2V34.6z"/>
	</g>
</g>
</svg>
