<?xml version="1.0" encoding="utf-8"?>
<!-- Generator: Adobe Illustrator 25.2.1, SVG Export Plug-In . SVG Version: 6.00 Build 0)  -->
<svg version="1.1" id="Layer_1" xmlns="http://www.w3.org/2000/svg" xmlns:xlink="http://www.w3.org/1999/xlink" x="0px" y="0px"
	 viewBox="0 0 60 60" style="enable-background:new 0 0 60 60;" xml:space="preserve">
<style type="text/css">
	.st0{fill:none;stroke:#808080;stroke-miterlimit:10;}
	.st1{fill:#FFFFFF;stroke:#808080;stroke-miterlimit:10;}
	.st2{fill:#808080;}
	.st3{fill:none;stroke:#6ACF9D;stroke-miterlimit:10;}
</style>
<path class="st0" d="M56.1,38.2"/>
<path class="st0" d="M11,38.8"/>
<path class="st1" d="M55.6,38.8H4.2c-1.1,0-1.9-0.9-1.9-1.9V13c0-1.1,0.9-1.9,1.9-1.9h51.7c1.1,0,1.9,0.9,1.9,1.9v23.5
	C57.8,37.8,56.8,38.8,55.6,38.8z"/>
<path class="st0" d="M57.8,33.5v5.4c0,1.2-1,2.2-2.2,2.2H4.2c-1.1,0-1.9-0.9-1.9-1.9v-5.7"/>
<path class="st0" d="M57.8,39.1v2c0,1.2-1,2.2-2.2,2.2H4.2c-1.1,0-1.9-0.9-1.9-1.9v-2.3"/>
<path class="st2" d="M33.7,25.8c-0.5-0.5-1.1-0.9-1.9-1.1l-1.3-0.4v-3.9c0.5,0.1,0.9,0.2,1.3,0.4c0.5,0.3,0.7,0.7,0.8,1.3H34
	c-0.2-0.9-0.5-1.6-1.2-2.1c-0.5-0.5-1.3-0.7-2.3-0.8v-1.4h-1.1v1.4c-1.1,0.1-1.9,0.3-2.6,0.8c-0.7,0.5-1.1,1.3-1.1,2.2
	c0,0.8,0.3,1.4,0.8,1.9c0.5,0.4,1.3,0.8,2.3,1.2l0.6,0.2v4.3c-0.4,0-0.7-0.1-1-0.2c-0.5-0.2-0.9-0.4-1.1-0.8
	c-0.3-0.3-0.4-0.8-0.4-1.3h-1.4c0,0.6,0.1,1.1,0.4,1.6s0.6,0.8,1,1.1c0.4,0.3,0.9,0.5,1.5,0.7c0.4,0.1,0.7,0.2,1.1,0.2v1.5h1.1v-1.5
	c0.8,0,1.4-0.2,2-0.4c0.7-0.3,1.2-0.7,1.5-1.2c0.3-0.5,0.5-1,0.5-1.5C34.4,26.9,34.2,26.3,33.7,25.8z M28.9,23.7
	c-0.5-0.2-0.9-0.4-1.2-0.6s-0.4-0.6-0.4-1c0-0.5,0.2-1,0.7-1.3c0.4-0.3,0.8-0.4,1.4-0.5v3.6L28.9,23.7z M32.5,28.6
	c-0.2,0.3-0.5,0.5-0.9,0.7c-0.3,0.1-0.7,0.2-1.1,0.2v-4l0.6,0.2c0.5,0.2,0.9,0.4,1.2,0.7c0.3,0.3,0.4,0.7,0.4,1.2
	C32.8,28,32.7,28.3,32.5,28.6z"/>
<path class="st0" d="M4.2,38.8"/>
<path class="st3" d="M39.1,19.4c1,1.6,1.6,3.5,1.6,5.6c0,5.9-4.8,10.7-10.7,10.7S19.3,30.9,19.3,25S24.1,14.3,30,14.3
	c1.1,0,2.1,0.2,3.1,0.5"/>
<path class="st0" d="M6.1,11.1c0,2.1-1.7,3.8-3.8,3.8"/>
<path class="st0" d="M54.3,11.1c0,2.1,1.7,3.8,3.8,3.8"/>
<path class="st0" d="M54.3,38.9c0-2.1,1.7-3.8,3.8-3.8"/>
</svg>
