<?xml version="1.0" encoding="utf-8"?>
<!-- Generator: Adobe Illustrator 25.2.1, SVG Export Plug-In . SVG Version: 6.00 Build 0)  -->
<svg version="1.1" id="Layer_1" xmlns="http://www.w3.org/2000/svg" xmlns:xlink="http://www.w3.org/1999/xlink" x="0px" y="0px"
	 viewBox="0 0 60 60" style="enable-background:new 0 0 60 60;" xml:space="preserve">
<style type="text/css">
	.st0{fill:none;stroke:#808080;stroke-miterlimit:10;}
	.st1{fill:#FFFFFF;stroke:#808080;stroke-miterlimit:10;}
	.st2{fill:#808080;}
	.st3{fill:none;stroke:#6ACF9D;stroke-miterlimit:10;}
	.st4{fill:#FFFFFF;}
</style>
<g>
	<path class="st0" d="M15.73,37.99l39.62,4.9c1.25,0.15,2.34-0.82,2.34-2.06v-3.37"/>
	<path class="st1" d="M57.17,37.99H9.45c-1,0-1.8-0.81-1.8-1.8V14.05c0-1,0.81-1.8,1.8-1.8h48c1,0,1.8,0.81,1.8,1.8V35.9
		C59.25,37.06,58.32,37.99,57.17,37.99z"/>
	<path class="st2" d="M36.87,25.88c-0.44-0.44-1.04-0.79-1.81-1.04l-1.19-0.39v-3.67c0.47,0.06,0.86,0.19,1.17,0.41
		c0.43,0.3,0.68,0.69,0.76,1.17h1.32c-0.14-0.82-0.51-1.48-1.14-1.99c-0.51-0.43-1.23-0.66-2.11-0.73v-1.28h-1.03v1.27
		c-1.01,0.06-1.81,0.31-2.38,0.76c-0.66,0.51-1,1.19-1,2c0,0.74,0.24,1.3,0.72,1.72c0.47,0.4,1.19,0.76,2.11,1.07l0.55,0.18v3.99
		c-0.33-0.03-0.65-0.09-0.93-0.18c-0.45-0.15-0.81-0.39-1.06-0.71c-0.25-0.32-0.38-0.74-0.38-1.23h-1.28c0,0.56,0.11,1.04,0.33,1.47
		s0.53,0.77,0.93,1.06c0.39,0.28,0.84,0.5,1.35,0.64c0.33,0.09,0.68,0.14,1.03,0.18v1.37h1.03v-1.35c0.72-0.04,1.34-0.18,1.84-0.41
		c0.62-0.3,1.07-0.68,1.36-1.13c0.3-0.45,0.45-0.93,0.45-1.42C37.52,26.9,37.31,26.32,36.87,25.88z M32.34,23.95
		c-0.5-0.17-0.87-0.36-1.1-0.59c-0.23-0.23-0.34-0.53-0.34-0.93c0-0.49,0.2-0.89,0.62-1.21c0.33-0.25,0.77-0.4,1.33-0.45v3.36
		L32.34,23.95z M35.74,28.48c-0.19,0.27-0.47,0.5-0.85,0.66c-0.28,0.12-0.63,0.19-1.02,0.22v-3.72l0.6,0.21
		c0.5,0.17,0.88,0.39,1.15,0.68c0.27,0.28,0.4,0.64,0.4,1.07C36.03,27.91,35.93,28.21,35.74,28.48z"/>
	<path class="st0" d="M9.45,37.99l42.73,9.7c1.3,0.3,2.54-0.69,2.54-2.03V42.8"/>
	<path class="st3" d="M41.83,19.93c0.93,1.51,1.46,3.29,1.46,5.2c0,5.48-4.45,9.93-9.93,9.93s-9.93-4.45-9.93-9.93
		s4.45-9.93,9.93-9.93c1.02,0,1.99,0.15,2.92,0.44"/>
	<circle class="st2" cx="8.14" cy="37.77" r="7.58"/>
	<g>
		<path class="st4" d="M4.28,42.26l3.16-4.46l-3.19-4.52h1.34l2.59,3.67l2.37-3.67h1.38L8.8,37.79l3.23,4.47h-1.36l-2.6-3.59
			l-2.43,3.59H4.28z"/>
	</g>
	<path class="st0" d="M11.16,12.25c0,1.95-1.58,3.51-3.51,3.51"/>
	<path class="st0" d="M55.93,12.25c0,1.95,1.58,3.51,3.51,3.51"/>
	<path class="st0" d="M55.93,38.04c0-1.95,1.58-3.51,3.51-3.51"/>
</g>
<g>
</g>
<g>
</g>
<g>
</g>
<g>
</g>
<g>
</g>
<g>
</g>
<g>
</g>
<g>
</g>
<g>
</g>
<g>
</g>
<g>
</g>
<g>
</g>
<g>
</g>
<g>
</g>
<g>
</g>
</svg>
