<?xml version="1.0" encoding="utf-8"?>
<!-- Generator: Adobe Illustrator 25.2.1, SVG Export Plug-In . SVG Version: 6.00 Build 0)  -->
<svg version="1.1" id="Capa_1" xmlns="http://www.w3.org/2000/svg" xmlns:xlink="http://www.w3.org/1999/xlink" x="0px" y="0px"
	 viewBox="0 0 512 512" style="enable-background:new 0 0 512 512;" xml:space="preserve">
<style type="text/css">
	.st0{fill:url(#SVGID_1_);}
</style>
<g>
	<g>
		<linearGradient id="SVGID_1_" gradientUnits="userSpaceOnUse" x1="46" y1="256" x2="466.0003" y2="256">
			<stop  offset="0" style="stop-color:#006EFF"/>
			<stop  offset="1" style="stop-color:#00F0AB"/>
		</linearGradient>
		<path class="st0" d="M464.9,300.4L427.2,206l37.8-94.4c1.8-4.6,1.3-9.9-1.5-14C460.6,93.5,456,91,451,91H276V56
			c0-8.3-6.7-15-15-15H76V15c0-8.3-6.7-15-15-15S46,6.7,46,15c0,62.7,0,428.8,0,482c0,8.3,6.7,15,15,15s15-6.7,15-15V271h120v35
			c0,8.2,6.7,15,15,15h240c5,0,9.6-2.5,12.4-6.6C466.2,310.3,466.8,305.1,464.9,300.4z M246,241c-17.2,0-151.5,0-170,0V71h170
			C246,88.2,246,222.5,246,241z M247.2,291l24.4-24.4c2.9-2.9,4.4-6.8,4.4-10.6V121h152.8l-31.8,79.4c-1.4,3.6-1.4,7.6,0,11.1
			l31.8,79.4H247.2z"/>
	</g>
</g>
</svg>
