<?xml version="1.0" encoding="utf-8"?>
<!-- Generator: Adobe Illustrator 25.2.1, SVG Export Plug-In . SVG Version: 6.00 Build 0)  -->
<svg version="1.1" id="Layer_1" xmlns="http://www.w3.org/2000/svg" xmlns:xlink="http://www.w3.org/1999/xlink" x="0px" y="0px"
	 viewBox="0 0 60 60" style="enable-background:new 0 0 60 60;" xml:space="preserve">
<style type="text/css">
	.st0{fill:none;stroke:url(#SVGID_1_);stroke-miterlimit:10;}
	.st1{fill:#00F0AB;}
</style>
<g>
	
		<linearGradient id="SVGID_1_" gradientUnits="userSpaceOnUse" x1="3.6" y1="32" x2="56.4" y2="32" gradientTransform="matrix(1 0 0 -1 0 62)">
		<stop  offset="0" style="stop-color:#006EFF"/>
		<stop  offset="0.9997" style="stop-color:#00F0AB"/>
	</linearGradient>
	<path class="st0" d="M55.9,52.5c0,1.7-1.4,3.1-3.1,3.1H7.2c-1.7,0-3.1-1.4-3.1-3.1 M52.5,59h-45c-1.9,0-3.4-1.5-3.4-3.4v-47
		c0-1.9,1.5-3.4,3.4-3.4h45c1.9,0,3.4,1.5,3.4,3.4v47C55.9,57.5,54.4,59,52.5,59z M14,10.6L14,10.6c-1.2,0-2.2-1-2.2-2.2V3.2
		C11.8,2,12.8,1,14,1l0,0c1.2,0,2.2,1,2.2,2.2v2.1 M45.8,10.6L45.8,10.6c-1.2,0-2.2-1-2.2-2.2V3.2c0-1.2,1-2.2,2.2-2.2l0,0
		C47,1,48,2,48,3.2v2.1 M55.9,17.4H17.4 M14.5,17.4H4.1"/>
</g>
<g>
	<path class="st1" d="M29.7,24.1h3.1v23.6h-4.3V29.2c-0.6,0.2-1.2,0.6-2,0.6C26,30,25.4,30,24.8,30v-4.1c0.8,0,1.6-0.2,2.4-0.6
		C28.2,25.1,28.9,24.7,29.7,24.1z"/>
</g>
</svg>
