<?xml version="1.0" encoding="utf-8"?>
<!-- Generator: Adobe Illustrator 25.2.1, SVG Export Plug-In . SVG Version: 6.00 Build 0)  -->
<svg version="1.1" id="Layer_1" xmlns="http://www.w3.org/2000/svg" xmlns:xlink="http://www.w3.org/1999/xlink" x="0px" y="0px"
	 viewBox="0 0 60 60" style="enable-background:new 0 0 60 60;" xml:space="preserve">
<style type="text/css">
	.st0{fill:none;stroke:url(#SVGID_1_);stroke-linecap:round;stroke-miterlimit:10;}
	.st1{fill:none;stroke:#00F0AB;stroke-linecap:round;stroke-miterlimit:10;}
	.st2{fill:none;stroke:#00F0AB;stroke-miterlimit:10;}
	.st3{fill:none;stroke:#808080;stroke-miterlimit:10;}
	.st4{fill:none;stroke:#006EFF;stroke-miterlimit:10;}
</style>
<g>
	
		<linearGradient id="SVGID_1_" gradientUnits="userSpaceOnUse" x1="3.6" y1="32" x2="56.4" y2="32" gradientTransform="matrix(1 0 0 -1 0 62)">
		<stop  offset="0" style="stop-color:#006EFF"/>
		<stop  offset="1" style="stop-color:#00F0AB"/>
	</linearGradient>
	<path class="st0" d="M55.9,52.5c0,1.7-1.4,3.1-3.1,3.1H7.2c-1.7,0-3.1-1.4-3.1-3.1 M52.5,59h-45c-1.9,0-3.4-1.5-3.4-3.4v-47
		c0-1.9,1.5-3.4,3.4-3.4h45c1.9,0,3.4,1.5,3.4,3.4v47C55.9,57.5,54.4,59,52.5,59z M14,10.6L14,10.6c-1.2,0-2.2-1-2.2-2.2V3.2
		C11.8,2,12.8,1,14,1l0,0c1.2,0,2.2,1,2.2,2.2v2.1 M45.8,10.6L45.8,10.6c-1.2,0-2.2-1-2.2-2.2V3.2c0-1.2,1-2.2,2.2-2.2l0,0
		C47,1,48,2,48,3.2v2.1 M55.9,17.4H17.4 M14.5,17.4H4.1"/>
	<path class="st1" d="M39.8,28c0.6,0.8,1.2,1.7,1.6,2.7c0.7,1.6,1.1,3.3,1.1,5.2c0,6.9-5.6,12.6-12.6,12.6s-12.6-5.6-12.6-12.6
		S23,23.2,29.9,23.2c1.3,0,2.5,0.2,3.6,0.5"/>
</g>
<polyline class="st2" points="39.3,32.1 39.3,27.8 43.5,27.8 "/>
<path class="st3" d="M-60.2,29.3"/>
<g>
	<ellipse class="st4" cx="34" cy="38.3" rx="2.7" ry="2.7"/>
	<ellipse class="st4" cx="25.2" cy="32.4" rx="2.7" ry="2.7"/>
	<line class="st4" x1="33" y1="29.5" x2="26.1" y2="42.2"/>
</g>
</svg>
