<?xml version="1.0" encoding="utf-8"?>
<!-- Generator: Adobe Illustrator 25.2.1, SVG Export Plug-In . SVG Version: 6.00 Build 0)  -->
<svg version="1.1" id="Layer_1" xmlns="http://www.w3.org/2000/svg" xmlns:xlink="http://www.w3.org/1999/xlink" x="0px" y="0px"
	 viewBox="0 0 60 60" style="enable-background:new 0 0 60 60;" xml:space="preserve">
<style type="text/css">
	.st0{fill:none;stroke:#808080;stroke-miterlimit:10;}
	.st1{fill:none;stroke:#808080;stroke-linecap:round;stroke-miterlimit:10;}
	.st2{fill:none;stroke:#6ACF9D;stroke-miterlimit:10;}
	.st3{fill:#808080;}
</style>
<g>
	<path class="st0" d="M55.9,52.5c0,1.7-1.4,3.1-3.1,3.1H7.2c-1.7,0-3.1-1.4-3.1-3.1"/>
	<path class="st0" d="M52.5,59h-45c-1.9,0-3.4-1.5-3.4-3.4v-47c0-1.9,1.5-3.4,3.4-3.4h45c1.9,0,3.4,1.5,3.4,3.4v47
		C55.9,57.5,54.4,59,52.5,59z"/>
	<path class="st1" d="M14,10.6L14,10.6c-1.2,0-2.2-1-2.2-2.2V3.2C11.8,2,12.8,1,14,1l0,0c1.2,0,2.2,1,2.2,2.2v2.1"/>
	<path class="st1" d="M45.8,10.6L45.8,10.6c-1.2,0-2.2-1-2.2-2.2V3.2c0-1.2,1-2.2,2.2-2.2l0,0c1.2,0,2.2,1,2.2,2.2v2.1"/>
	<line class="st1" x1="55.9" y1="17.4" x2="17.4" y2="17.4"/>
	<line class="st1" x1="14.5" y1="17.4" x2="4.1" y2="17.4"/>
	<path class="st2" d="M39.8,28c0.6,0.8,1.2,1.7,1.6,2.7c0.7,1.6,1.1,3.3,1.1,5.2c0,6.9-5.6,12.6-12.6,12.6s-12.6-5.6-12.6-12.6
		S23,23.2,29.9,23.2c1.3,0,2.5,0.2,3.6,0.5"/>
</g>
<g>
	<path class="st3" d="M29.3,29.9h1.6v12h-2.2v-9.4c-0.3,0.1-0.6,0.3-1,0.3c-0.3,0.1-0.6,0.1-0.9,0.1v-2.1c0.4,0,0.8-0.1,1.2-0.3
		C28.5,30.4,28.9,30.2,29.3,29.9z"/>
</g>
<polyline class="st2" points="39.3,32.1 39.3,27.8 43.5,27.8 "/>
</svg>
