<?xml version="1.0" encoding="utf-8"?>
<!-- Generator: Adobe Illustrator 25.2.1, SVG Export Plug-In . SVG Version: 6.00 Build 0)  -->
<svg version="1.1" id="Layer_1" xmlns="http://www.w3.org/2000/svg" xmlns:xlink="http://www.w3.org/1999/xlink" x="0px" y="0px"
	 viewBox="0 0 60 60" style="enable-background:new 0 0 60 60;" xml:space="preserve">
<style type="text/css">
	.st0{fill:none;stroke:#808080;stroke-miterlimit:10;}
	.st1{fill:none;stroke:#808080;stroke-linecap:round;stroke-miterlimit:10;}
	.st2{fill:none;stroke:#6ACF9D;stroke-miterlimit:10;}
	.st3{fill:#808080;}
</style>
<g>
	<path class="st0" d="M55.86,52.53c0,1.71-1.38,3.08-3.08,3.08H7.22c-1.71,0-3.08-1.38-3.08-3.08"/>
	<path class="st0" d="M52.5,59h-45c-1.86,0-3.36-1.5-3.36-3.36v-47c0-1.86,1.5-3.36,3.36-3.36h45c1.86,0,3.36,1.5,3.36,3.36v46.99
		C55.86,57.48,54.36,59,52.5,59z"/>
	<path class="st1" d="M14.01,10.6L14.01,10.6c-1.2,0-2.17-0.97-2.17-2.17V3.17c0-1.2,0.97-2.17,2.17-2.17l0,0
		c1.2,0,2.17,0.97,2.17,2.17v2.1"/>
	<path class="st1" d="M45.76,10.6L45.76,10.6c-1.2,0-2.17-0.97-2.17-2.17V3.17c0-1.2,0.97-2.17,2.17-2.17l0,0
		c1.2,0,2.17,0.97,2.17,2.17v2.1"/>
	<line class="st1" x1="55.86" y1="17.41" x2="17.38" y2="17.41"/>
	<line class="st1" x1="14.5" y1="17.41" x2="4.14" y2="17.41"/>
	<circle class="st2" cx="29.94" cy="35.78" r="12.58"/>
	<path class="st3" d="M29.93,40.7c-0.51,0-0.99-0.06-1.45-0.19c-0.46-0.12-0.86-0.31-1.22-0.55c-0.35-0.24-0.63-0.55-0.83-0.92
		c-0.2-0.37-0.3-0.8-0.3-1.3h1.32c0,0.4,0.1,0.72,0.31,0.98c0.21,0.25,0.5,0.44,0.88,0.56c0.38,0.12,0.83,0.18,1.34,0.18
		c0.46,0,0.84-0.06,1.14-0.19c0.3-0.13,0.53-0.29,0.68-0.5c0.15-0.21,0.22-0.44,0.22-0.68c0-0.32-0.1-0.59-0.31-0.82
		c-0.21-0.23-0.5-0.4-0.89-0.53l-0.95-0.34V35.2l1.57,0.53c0.68,0.23,1.2,0.53,1.56,0.9c0.36,0.37,0.54,0.87,0.54,1.47
		c0,0.43-0.13,0.84-0.39,1.24c-0.26,0.39-0.66,0.72-1.2,0.97C31.43,40.57,30.75,40.7,29.93,40.7z M29.64,36.41l-0.86-0.29
		c-0.79-0.26-1.39-0.57-1.81-0.93c-0.42-0.36-0.63-0.85-0.63-1.48c0-0.72,0.3-1.3,0.89-1.75c0.59-0.45,1.45-0.67,2.58-0.67
		c1.03,0,1.83,0.23,2.38,0.68c0.55,0.45,0.89,1.06,1.02,1.82h-1.35c-0.07-0.39-0.28-0.71-0.63-0.95c-0.35-0.25-0.83-0.37-1.44-0.37
		c-0.65,0-1.14,0.12-1.48,0.37c-0.33,0.24-0.5,0.55-0.5,0.93c0,0.29,0.09,0.53,0.26,0.71c0.18,0.18,0.46,0.33,0.84,0.46l0.73,0.29
		V36.41z M29.34,41.87V30.23h1.01v11.65H29.34z"/>
</g>
<g>
</g>
<g>
</g>
<g>
</g>
<g>
</g>
<g>
</g>
<g>
</g>
<g>
</g>
<g>
</g>
<g>
</g>
<g>
</g>
<g>
</g>
<g>
</g>
<g>
</g>
<g>
</g>
<g>
</g>
</svg>
