<?xml version="1.0" encoding="utf-8"?>
<!-- Generator: Adobe Illustrator 25.2.1, SVG Export Plug-In . SVG Version: 6.00 Build 0)  -->
<svg version="1.1" id="Layer_1" xmlns="http://www.w3.org/2000/svg" xmlns:xlink="http://www.w3.org/1999/xlink" x="0px" y="0px"
	 viewBox="0 0 60 60" style="enable-background:new 0 0 60 60;" xml:space="preserve">
<style type="text/css">
	.st0{fill:none;stroke:url(#SVGID_1_);stroke-miterlimit:10;}
	.st1{fill:#006EFF;}
	.st2{fill:none;stroke:#FFFFFF;stroke-miterlimit:10;}
</style>
<linearGradient id="SVGID_1_" gradientUnits="userSpaceOnUse" x1="12.35" y1="29.6953" x2="48.55" y2="29.6953">
	<stop  offset="0" style="stop-color:#006EFF"/>
	<stop  offset="1" style="stop-color:#00F0AB"/>
</linearGradient>
<path class="st0" d="M42.8,44.3l-11.1,8.5c-0.7,0.5-1.7,0.5-2.4,0l-11.1-8.5c-3.3-2.5-5.3-6.5-5.3-10.7V14.5c0,0,6.7-1.5,8.6-2.4
	c5.7-2.6,9-5.7,9-5.7s4.3,4,9.5,5.9c1.9,0.7,8.1,2.2,8.1,2.2v19.2C48.1,37.8,46.1,41.8,42.8,44.3z"/>
<circle class="st1" cx="30.5" cy="29.7" r="9.1"/>
<path class="st2" d="M23.3,36.3c0.8-2.4,5.1-4.7,5.1-4.7C27.5,30.9,27,30,27,28.9c0-2,1.6-3.5,3.5-3.5s3.5,1.6,3.5,3.5
	c0,1.1-0.5,2-1.2,2.7c0,0,1.3,0.7,2.3,1.3"/>
</svg>
