<?xml version="1.0" encoding="utf-8"?>
<!-- Generator: Adobe Illustrator 25.2.1, SVG Export Plug-In . SVG Version: 6.00 Build 0)  -->
<svg version="1.1" id="Layer_1" xmlns="http://www.w3.org/2000/svg" xmlns:xlink="http://www.w3.org/1999/xlink" x="0px" y="0px"
	 viewBox="0 0 60 60" style="enable-background:new 0 0 60 60;" xml:space="preserve">
<style type="text/css">
	.st0{fill:none;stroke:#808080;stroke-miterlimit:10;}
	.st1{fill:none;stroke:#808080;stroke-linecap:round;stroke-linejoin:round;stroke-miterlimit:10;}
</style>
<path class="st0" d="M41.6,44.3l-11.1,8.5c-0.7,0.5-1.7,0.5-2.4,0L17,44.3c-3.3-2.5-5.3-6.5-5.3-10.7V14.5c0,0,6.7-1.5,8.6-2.4
	c5.7-2.6,9-5.7,9-5.7s4.3,4,9.5,5.9c1.9,0.7,8.1,2.2,8.1,2.2v19.2C46.9,37.8,44.9,41.8,41.6,44.3z"/>
<circle class="st0" cx="29.6" cy="29.7" r="6.8"/>
<path class="st1" d="M24.4,34.2c0.6-1.8,3.5-3.1,3.5-3.1c-0.6-0.5-1-1.2-1-2c0-1.5,1.2-2.6,2.6-2.6c1.4,0,2.6,1.2,2.6,2.6
	c0,0.8-0.4,1.5-0.9,2c0,0,1,0.5,1.7,1"/>
</svg>
