<?xml version="1.0" encoding="utf-8"?>
<!-- Generator: Adobe Illustrator 25.2.1, SVG Export Plug-In . SVG Version: 6.00 Build 0)  -->
<svg version="1.1" id="Layer_1" xmlns="http://www.w3.org/2000/svg" xmlns:xlink="http://www.w3.org/1999/xlink" x="0px" y="0px"
	 viewBox="0 0 60 60" style="enable-background:new 0 0 60 60;" xml:space="preserve">
<style type="text/css">
	.st0{fill:none;stroke:#808080;stroke-miterlimit:10;}
	.st1{fill:none;stroke:#6ACE9C;stroke-width:1;stroke-miterlimit:9.9999;}
	.st2{fill:none;stroke:#6ACE9C;stroke-miterlimit:10;}
</style>
<polyline class="st0" points="43.4,15.4 37.1,15.4 37.1,9.3 "/>
<g>
	<ellipse transform="matrix(0.9869 -0.1613 0.1613 0.9869 -3.9275 5.0138)" class="st1" cx="28.9" cy="26.7" rx="2.7" ry="2.7"/>
	<ellipse transform="matrix(0.9869 -0.1613 0.1613 0.9869 -3.0963 3.5281)" class="st1" cx="20.2" cy="20.8" rx="2.7" ry="2.7"/>
	<line class="st2" x1="28" y1="17.9" x2="21.1" y2="30.7"/>
</g>
<path class="st0" d="M45.8,24.5v-9.3l-8.7-8.7H12c-1,0-1.9,0.8-1.9,1.9v6.7v33.8v2.6c0,1,0.8,1.9,1.9,1.9h31.9c1,0,1.9-0.8,1.9-1.9
	V41.2"/>
<line class="st0" x1="15.4" y1="46" x2="27.3" y2="46"/>
<polygon class="st0" points="33,40 30.4,46.5 37.9,43.6 57.5,24 52.6,19.2 "/>
<line class="st0" x1="48.5" y1="23.3" x2="52.3" y2="27.1"/>
</svg>
