<?xml version="1.0" encoding="utf-8"?>
<!-- Generator: Adobe Illustrator 25.2.1, SVG Export Plug-In . SVG Version: 6.00 Build 0)  -->
<svg version="1.1" id="Layer_1" xmlns="http://www.w3.org/2000/svg" xmlns:xlink="http://www.w3.org/1999/xlink" x="0px" y="0px"
	 viewBox="0 0 60 60" style="enable-background:new 0 0 60 60;" xml:space="preserve">
<style type="text/css">
	.st0{fill:none;stroke:#808080;stroke-miterlimit:10;}
	.st1{fill:none;}
	.st2{fill:none;stroke:#6ACE9C;stroke-width:1;stroke-miterlimit:9.9999;}
	.st3{fill:none;stroke:#6ACE9C;stroke-miterlimit:10;}
</style>
<polyline class="st0" points="-377,-39.3 -377,-59 -382.6,-59 -368.1,-78.7 -353.7,-59 -361.1,-59 -361.1,-56.2 "/>
<path class="st1" d="M-361.1-35.3"/>
<polyline class="st0" points="51.5,15.4 45.2,15.4 45.2,9.3 "/>
<g>
	<g>
		<ellipse transform="matrix(0.9869 -0.1613 0.1613 0.9869 -5.5356 7.9167)" class="st2" cx="46" cy="38.1" rx="2.7" ry="2.7"/>
		<ellipse transform="matrix(0.9869 -0.1613 0.1613 0.9869 -4.7044 6.4309)" class="st2" cx="37.3" cy="32.2" rx="2.7" ry="2.7"/>
		<line class="st3" x1="45.1" y1="29.3" x2="38.2" y2="42"/>
	</g>
	<path class="st0" d="M18.3,48.9v2.6c0,1,0.8,1.9,1.9,1.9h31.9c1,0,1.9-0.8,1.9-1.9V15.3l-8.7-8.7h-25c-1,0-1.9,0.8-1.9,1.9v6.7"/>
	<rect x="6.1" y="16.9" class="st0" width="23.8" height="30.3"/>
	<line class="st0" x1="6.1" y1="26.7" x2="29.9" y2="26.7"/>
	<line class="st0" x1="6.1" y1="33.3" x2="29.9" y2="33.3"/>
	<line class="st0" x1="14" y1="26.7" x2="14" y2="47.2"/>
	<line class="st0" x1="21.7" y1="26.7" x2="21.7" y2="47.2"/>
	<line class="st0" x1="14" y1="39.9" x2="29.9" y2="39.9"/>
</g>
</svg>
