<?xml version="1.0" encoding="utf-8"?>
<!-- Generator: Adobe Illustrator 25.2.1, SVG Export Plug-In . SVG Version: 6.00 Build 0)  -->
<svg version="1.1" id="Layer_1" xmlns="http://www.w3.org/2000/svg" xmlns:xlink="http://www.w3.org/1999/xlink" x="0px" y="0px"
	 viewBox="0 0 60 60" style="enable-background:new 0 0 60 60;" xml:space="preserve">
<style type="text/css">
	.st0{fill:none;stroke:url(#SVGID_1_);stroke-miterlimit:10;}
	.st1{fill:none;stroke:url(#SVGID_2_);stroke-miterlimit:10;}
	.st2{fill:none;stroke:#006EFF;stroke-width:1;stroke-miterlimit:9.9998;}
	.st3{fill:none;stroke:#006EFF;stroke-miterlimit:10;}
</style>
<linearGradient id="SVGID_1_" gradientUnits="userSpaceOnUse" x1="44.7" y1="12.6" x2="51.5" y2="12.6">
	<stop  offset="2.746870e-04" style="stop-color:#006EFF"/>
	<stop  offset="1" style="stop-color:#00F0AB"/>
</linearGradient>
<polyline class="st0" points="51.5,15.4 45.2,15.4 45.2,9.3 "/>
<linearGradient id="SVGID_2_" gradientUnits="userSpaceOnUse" x1="5.6" y1="30" x2="54.5" y2="30">
	<stop  offset="0" style="stop-color:#006EFF"/>
	<stop  offset="1" style="stop-color:#00F0AB"/>
</linearGradient>
<path class="st1" d="M18.3,48.9v2.6c0,1,0.8,1.9,1.9,1.9h31.9c1,0,1.9-0.8,1.9-1.9V15.3l-8.7-8.7h-25c-1,0-1.9,0.8-1.9,1.9v6.7
	 M6.1,16.9h23.8v30.3H6.1V16.9z M6.1,26.7h23.8 M6.1,33.3h23.8 M14,26.7v20.5 M21.7,26.7v20.5 M14,39.9h15.9"/>
<g>
	<ellipse class="st2" cx="46" cy="38.1" rx="2.7" ry="2.7"/>
	<ellipse class="st2" cx="37.3" cy="32.2" rx="2.7" ry="2.7"/>
	<line class="st3" x1="45.1" y1="29.3" x2="38.2" y2="42"/>
</g>
</svg>
