<?xml version="1.0" encoding="utf-8"?>
<!-- Generator: Adobe Illustrator 25.2.1, SVG Export Plug-In . SVG Version: 6.00 Build 0)  -->
<svg version="1.1" id="Capa_1" xmlns="http://www.w3.org/2000/svg" xmlns:xlink="http://www.w3.org/1999/xlink" x="0px" y="0px"
	 viewBox="0 0 16 16" style="enable-background:new 0 0 16 16;" xml:space="preserve">
<style type="text/css">
	.st0{fill:#D4D4D8;}
</style>
<g>
	<path class="st0" d="M9.5,0H3.1C3,0,2.8,0.1,2.8,0.2L1.7,5.5c0,0,0,0.1,0.1,0.1c0.5-0.3,2.7-1.4,5.3-1.5c0,0,0.1,0,0.1-0.1l0.2-0.9
		c0,0,0,0,0.1,0c0.5,0.1,4.2,1.3,4.9,1.6c0,0,0,0.1,0,0.1c-0.8,0.3-5.1,2.1-5.7,2.3c0,0-0.1,0-0.1-0.1L6.8,6c0,0,0,0,0,0
		c-2.3,0.6-6.7,3-6.3,9.5c0,0.3,0.3,0.5,0.6,0.5h3.6c0.1,0,0.1,0,0.1-0.1c-0.2-5.1,1.8-5.7,1.8-5.7l1,4.3c0.2,0.9,1,1.5,1.9,1.5h4
		l-1.9-5.8c2.9-1.1,4.2-3.4,3.9-5.6C15.2,2.2,13.3,0,9.5,0z"/>
</g>
</svg>
