<?xml version="1.0" encoding="utf-8"?>
<!-- Generator: Adobe Illustrator 25.2.1, SVG Export Plug-In . SVG Version: 6.00 Build 0)  -->
<svg version="1.1" id="Capa_2" xmlns="http://www.w3.org/2000/svg" xmlns:xlink="http://www.w3.org/1999/xlink" x="0px" y="0px"
	 viewBox="0 0 512 512" style="enable-background:new 0 0 512 512;" xml:space="preserve">
<style type="text/css">
	.st0{fill:none;stroke:#808080;stroke-width:6;stroke-miterlimit:10;}
	.st1{fill:none;stroke:#808080;stroke-width:6;stroke-linecap:round;stroke-miterlimit:10;}
	.st2{fill:#808080;}
	.st3{fill:#FFFFFF;}
</style>
<path class="st0" d="M460.1,411.1c0,13.4-10.8,24.2-24.2,24.2H78.4c-13.4,0-24.2-10.8-24.2-24.2"/>
<path class="st0" d="M433.7,461.9H80.6c-14.6,0-26.4-11.8-26.4-26.4V66.7c0-14.6,11.8-26.4,26.4-26.4h353.1
	c14.6,0,26.4,11.8,26.4,26.4v368.7C460.1,450,448.3,461.9,433.7,461.9z"/>
<path class="st1" d="M131.7,82.1L131.7,82.1c-9.4,0-17-7.6-17-17V23.8c0-9.4,7.6-17,17-17h0c9.4,0,17,7.6,17,17v16.5"/>
<path class="st1" d="M380.8,82.1L380.8,82.1c-9.4,0-17-7.6-17-17V23.8c0-9.4,7.6-17,17-17h0c9.4,0,17,7.6,17,17v16.5"/>
<line class="st1" x1="460.1" y1="135.6" x2="158.1" y2="135.6"/>
<line class="st1" x1="135.5" y1="135.6" x2="54.2" y2="135.6"/>
<path class="st1" d="M131.4,225.1h-28.8c-5.3,0-9.5-4.3-9.5-9.5v-28.8c0-5.3,4.3-9.5,9.5-9.5h28.8c5.3,0,9.5,4.3,9.5,9.5v28.8
	C140.9,220.8,136.6,225.1,131.4,225.1z"/>
<path class="st1" d="M131.4,310.6h-28.8c-5.3,0-9.5-4.3-9.5-9.5v-28.8c0-5.3,4.3-9.5,9.5-9.5h28.8c5.3,0,9.5,4.3,9.5,9.5v28.8
	C140.9,306.4,136.6,310.6,131.4,310.6z"/>
<path class="st1" d="M131.4,394.7h-28.8c-5.3,0-9.5-4.3-9.5-9.5v-28.8c0-5.3,4.3-9.5,9.5-9.5h28.8c5.3,0,9.5,4.3,9.5,9.5v28.8
	C140.9,390.4,136.6,394.7,131.4,394.7z"/>
<path class="st1" d="M223.8,225.1H195c-5.3,0-9.5-4.3-9.5-9.5v-28.8c0-5.3,4.3-9.5,9.5-9.5h28.8c5.3,0,9.5,4.3,9.5,9.5v28.8
	C233.3,220.8,229,225.1,223.8,225.1z"/>
<path class="st1" d="M223.8,310.6H195c-5.3,0-9.5-4.3-9.5-9.5v-28.8c0-5.3,4.3-9.5,9.5-9.5h28.8c5.3,0,9.5,4.3,9.5,9.5v28.8
	C233.3,306.4,229,310.6,223.8,310.6z"/>
<path class="st1" d="M223.8,394.7H195c-5.3,0-9.5-4.3-9.5-9.5v-28.8c0-5.3,4.3-9.5,9.5-9.5h28.8c5.3,0,9.5,4.3,9.5,9.5v28.8
	C233.3,390.4,229,394.7,223.8,394.7z"/>
<path class="st1" d="M317.7,225.1h-28.8c-5.3,0-9.5-4.3-9.5-9.5v-28.8c0-5.3,4.3-9.5,9.5-9.5h28.8c5.3,0,9.5,4.3,9.5,9.5v28.8
	C327.3,220.8,323,225.1,317.7,225.1z"/>
<path class="st1" d="M317.7,310.6h-28.8c-5.3,0-9.5-4.3-9.5-9.5v-28.8c0-5.3,4.3-9.5,9.5-9.5h28.8c5.3,0,9.5,4.3,9.5,9.5v28.8
	C327.3,306.4,323,310.6,317.7,310.6z"/>
<path class="st1" d="M317.7,394.7h-28.8c-5.3,0-9.5-4.3-9.5-9.5v-28.8c0-5.3,4.3-9.5,9.5-9.5h28.8c5.3,0,9.5,4.3,9.5,9.5v28.8
	C327.3,390.4,323,394.7,317.7,394.7z"/>
<path class="st1" d="M410.9,225.1h-28.8c-5.3,0-9.5-4.3-9.5-9.5v-28.8c0-5.3,4.3-9.5,9.5-9.5h28.8c5.3,0,9.5,4.3,9.5,9.5v28.8
	C420.5,220.8,416.2,225.1,410.9,225.1z"/>
<path class="st1" d="M410.9,310.6h-28.8c-5.3,0-9.5-4.3-9.5-9.5v-28.8c0-5.3,4.3-9.5,9.5-9.5h28.8c5.3,0,9.5,4.3,9.5,9.5v28.8
	C420.5,306.4,416.2,310.6,410.9,310.6z"/>
<circle class="st2" cx="431.1" cy="427.7" r="80.9"/>
<g>
	<path class="st3" d="M432.5,467.3c-6.4,0-12-1.8-16.8-5.3c-4.8-3.5-8.5-8.3-11.1-14.3c-2.6-6-3.9-12.9-3.9-20.5
		c0-8.9,1.3-16.6,4-23c2.7-6.4,6.5-11.3,11.5-14.7c5-3.4,10.9-5.1,17.7-5.1c4.7,0,8.9,0.9,12.6,2.7c3.6,1.8,6.5,4.3,8.7,7.5
		c2.2,3.2,3.5,7,3.9,11.3h-10.8c-0.6-3.8-2.1-6.8-4.3-9.1c-2.2-2.2-5.5-3.4-9.8-3.4c-7.3,0-13,3.1-17.2,9.4
		c-4.2,6.3-6.2,14.9-6.2,25.8c0,1.6,0,3.4,0.1,5.4c0.1,2.1,0.3,4,0.5,5.8c0.4-5.6,1.7-10.1,3.9-13.3c2.2-3.2,5-5.5,8.4-6.9
		c3.3-1.4,6.9-2,10.6-2c4.8,0,9.2,1.1,13,3.2c3.8,2.1,6.9,5.1,9.1,8.8s3.3,8.1,3.3,12.9c0,4.9-1.1,9.2-3.4,12.9
		c-2.3,3.7-5.5,6.6-9.6,8.7C442.6,466.3,437.8,467.3,432.5,467.3z M432.5,458.2c4.8,0,8.8-1.4,12-4.3s4.8-6.7,4.8-11.5
		c0-5-1.6-8.9-4.8-11.7s-7.2-4.2-12-4.2c-3.2,0-6,0.7-8.5,2.1c-2.5,1.4-4.5,3.3-5.9,5.7c-1.5,2.4-2.2,5.1-2.2,8.2
		c0,4.8,1.6,8.7,4.8,11.5S427.7,458.2,432.5,458.2z"/>
</g>
</svg>
