<?xml version="1.0" encoding="utf-8"?>
<!-- Generator: Adobe Illustrator 25.2.1, SVG Export Plug-In . SVG Version: 6.00 Build 0)  -->
<svg version="1.1" id="Layer_1" xmlns="http://www.w3.org/2000/svg" xmlns:xlink="http://www.w3.org/1999/xlink" x="0px" y="0px"
	 viewBox="0 0 60 60" style="enable-background:new 0 0 60 60;" xml:space="preserve">
<style type="text/css">
	.st0{fill:#808080;}
	.st1{fill:none;stroke:#808080;stroke-miterlimit:10;}
	.st2{fill:none;stroke:#6ACE9C;stroke-miterlimit:10;}
</style>
<g>
	<path class="st0" d="M30.01,19.99c-0.37-0.38-0.9-0.69-1.6-0.93l-1.13-0.38v-2.93c0.35,0.06,0.67,0.15,0.9,0.31
		c0.36,0.25,0.57,0.58,0.65,0.98h1.39c-0.13-0.78-0.48-1.4-1.05-1.86c-0.46-0.38-1.1-0.59-1.89-0.66V13.4h-1.04v1.11
		c-0.92,0.06-1.64,0.27-2.16,0.67c-0.61,0.46-0.91,1.06-0.91,1.79c0,0.65,0.21,1.16,0.64,1.52c0.43,0.37,1.05,0.69,1.86,0.95
		l0.58,0.2v3.19c-0.26-0.03-0.49-0.07-0.71-0.14c-0.39-0.12-0.69-0.31-0.9-0.57s-0.32-0.59-0.32-1h-1.36c0,0.51,0.1,0.96,0.31,1.34
		c0.2,0.38,0.49,0.69,0.85,0.94c0.36,0.25,0.78,0.44,1.25,0.56c0.28,0.08,0.58,0.12,0.88,0.15v1.24h1.04v-1.24
		c0.64-0.04,1.21-0.14,1.66-0.35c0.55-0.26,0.96-0.59,1.23-0.99c0.27-0.4,0.4-0.83,0.4-1.27C30.56,20.88,30.38,20.37,30.01,19.99z
		 M25.8,18.21c-0.39-0.13-0.68-0.29-0.86-0.47c-0.18-0.18-0.27-0.43-0.27-0.73c0-0.38,0.17-0.7,0.52-0.95
		c0.26-0.19,0.61-0.31,1.06-0.35v2.68L25.8,18.21z M28.77,22.17c-0.15,0.21-0.38,0.39-0.69,0.52c-0.22,0.09-0.5,0.14-0.8,0.17v-2.94
		l0.5,0.18c0.39,0.13,0.7,0.31,0.91,0.54S29,21.14,29,21.47C29,21.72,28.92,21.95,28.77,22.17z"/>
	<circle class="st1" cx="26.58" cy="19.78" r="19.06"/>
	<path class="st2" d="M14.26,28.21c-4.66-6.81-2.92-16.1,3.89-20.76s16.1-2.92,20.76,3.89s2.92,16.1-3.89,20.76
		c-3.57,2.44-7.83,3.13-11.74,2.24"/>
	<path class="st1" d="M50.11,58.57L50.11,58.57c-2.32,1.41-5.35,0.67-6.76-1.66l-5.76-9.5c-0.99-1.64-0.47-3.77,1.17-4.77l2.48-1.5
		c1.64-0.99,3.77-0.47,4.77,1.17l5.76,9.5C53.17,54.14,52.43,57.16,50.11,58.57z"/>
	
		<rect x="35.48" y="35.43" transform="matrix(0.8551 -0.5185 0.5185 0.8551 -14.6425 25.4399)" class="st1" width="5.42" height="6.97"/>
</g>
</svg>
