<?xml version="1.0" encoding="utf-8"?>
<!-- Generator: Adobe Illustrator 25.2.1, SVG Export Plug-In . SVG Version: 6.00 Build 0)  -->
<svg version="1.1" id="Capa_1" xmlns="http://www.w3.org/2000/svg" xmlns:xlink="http://www.w3.org/1999/xlink" x="0px" y="0px"
	 viewBox="0 0 512 512" style="enable-background:new 0 0 512 512;" xml:space="preserve">
<style type="text/css">
	.st0{fill:url(#SVGID_1_);}
	.st1{fill:url(#SVGID_2_);}
</style>
<g>
	<linearGradient id="SVGID_1_" gradientUnits="userSpaceOnUse" x1="0" y1="256.0005" x2="511.354" y2="256.0005">
		<stop  offset="0" style="stop-color:#006EFF"/>
		<stop  offset="1" style="stop-color:#00F0AB"/>
	</linearGradient>
	<path class="st0" d="M492,449.9H38.8V42.7c0-10.7-8.7-19.4-19.4-19.4C8.7,23.3,0,32,0,42.7v426.7c0,10.7,8.7,19.4,19.4,19.4H492
		c10.7,0,19.4-8.7,19.4-19.4S502.7,449.9,492,449.9z"/>
	<linearGradient id="SVGID_2_" gradientUnits="userSpaceOnUse" x1="83.3933" y1="232.4045" x2="512" y2="232.4045">
		<stop  offset="0" style="stop-color:#006EFF"/>
		<stop  offset="1" style="stop-color:#00F0AB"/>
	</linearGradient>
	<path class="st1" d="M492.6,74.3H347.2c-10.7,0-19.4,8.7-19.4,19.4c0,10.7,8.7,19.4,19.4,19.4h99.2L331.7,227.3l-42.6-42.6
		c-7.6-7.6-19.8-7.6-27.4,0L89.1,357.4c-7.6,7.6-7.6,19.9,0,27.4c3.8,3.8,8.7,5.7,13.7,5.7c5,0,9.9-1.9,13.7-5.7l158.9-158.9
		l42.5,42.5c7.6,7.6,19.8,7.6,27.4,0l127.9-127.4v98.1c0,10.7,8.7,19.4,19.4,19.4c10.7,0,19.4-8.7,19.4-19.4V94.4c0,0,0,0,0,0v-0.7
		C512,83,503.3,74.3,492.6,74.3z"/>
</g>
</svg>
