<?xml version="1.0" encoding="utf-8"?>
<!-- Generator: Adobe Illustrator 25.2.1, SVG Export Plug-In . SVG Version: 6.00 Build 0)  -->
<svg version="1.1" id="Layer_1" xmlns="http://www.w3.org/2000/svg" xmlns:xlink="http://www.w3.org/1999/xlink" x="0px" y="0px"
	 viewBox="0 0 75.7 75.7" style="enable-background:new 0 0 75.7 75.7;" xml:space="preserve">
<style type="text/css">
	.st0{fill:none;stroke:#808080;stroke-miterlimit:10;}
	.st1{fill:#FFFFFF;stroke:#808080;stroke-miterlimit:10;}
	.st2{fill:none;stroke:#6ACC9A;stroke-miterlimit:10;}
	.st3{fill:#808080;}
</style>
<g>
	<path class="st0" d="M62.52,4.1h2.4c1.07,0,1.94,0.87,1.94,1.94v67.13c0,1.07-0.87,1.94-1.94,1.94H14.79
		c-1.07,0-1.94-0.87-1.94-1.94v-1.94"/>
	<path class="st1" d="M60.91,71.6H10.79c-1.07,0-1.94-0.87-1.94-1.94V2.54c0-1.07,0.87-1.94,1.94-1.94h50.13
		c1.07,0,1.94,0.87,1.94,1.94v67.13C62.85,70.73,61.98,71.6,60.91,71.6z"/>
	<line class="st0" x1="15.94" y1="54.23" x2="55.35" y2="54.23"/>
	<line class="st0" x1="15.94" y1="49.23" x2="55.35" y2="49.23"/>
	<line class="st0" x1="15.94" y1="59.23" x2="55.35" y2="59.23"/>
	<circle class="st2" cx="35.79" cy="22.97" r="15.45"/>
	<path class="st3" d="M39.57,24.03c-0.44-0.46-1.08-0.83-1.92-1.11l-1.36-0.46v-3.52c0.43,0.07,0.79,0.2,1.08,0.4
		c0.43,0.3,0.69,0.69,0.77,1.17h1.66c-0.16-0.93-0.58-1.68-1.25-2.23c-0.55-0.45-1.31-0.71-2.26-0.79v-1.33h-1.24v1.33
		c-1.1,0.07-1.97,0.33-2.59,0.8c-0.73,0.55-1.09,1.27-1.09,2.15c0,0.78,0.26,1.38,0.77,1.82c0.51,0.44,1.25,0.82,2.22,1.14
		l0.69,0.23v3.82c-0.31-0.04-0.59-0.09-0.85-0.17c-0.47-0.15-0.83-0.37-1.08-0.68c-0.25-0.31-0.38-0.71-0.38-1.2h-1.63
		c0,0.61,0.12,1.15,0.37,1.6c0.25,0.46,0.58,0.83,1.02,1.13c0.43,0.3,0.93,0.52,1.5,0.67c0.34,0.09,0.69,0.15,1.05,0.18v1.49h1.24
		V29c0.78-0.05,1.44-0.19,1.99-0.44c0.66-0.31,1.15-0.71,1.47-1.19c0.32-0.48,0.48-0.99,0.48-1.52
		C40.23,25.1,40.01,24.49,39.57,24.03z M34.53,21.91c-0.47-0.16-0.82-0.35-1.03-0.56s-0.32-0.51-0.32-0.87
		c0-0.46,0.21-0.84,0.62-1.14c0.31-0.23,0.73-0.37,1.26-0.42v3.2L34.53,21.91z M38.08,26.64c-0.18,0.26-0.46,0.46-0.83,0.62
		c-0.26,0.11-0.59,0.17-0.96,0.2v-3.52l0.59,0.21c0.47,0.16,0.83,0.38,1.09,0.65c0.25,0.28,0.38,0.61,0.38,1
		C38.36,26.1,38.27,26.38,38.08,26.64z"/>
</g>
<g>
</g>
<g>
</g>
<g>
</g>
<g>
</g>
<g>
</g>
<g>
</g>
<g>
</g>
<g>
</g>
<g>
</g>
<g>
</g>
<g>
</g>
<g>
</g>
<g>
</g>
<g>
</g>
<g>
</g>
</svg>
