<?xml version="1.0" encoding="utf-8"?>
<!-- Generator: Adobe Illustrator 25.2.1, SVG Export Plug-In . SVG Version: 6.00 Build 0)  -->
<svg version="1.1" id="Layer_1" xmlns="http://www.w3.org/2000/svg" xmlns:xlink="http://www.w3.org/1999/xlink" x="0px" y="0px"
	 viewBox="0 0 297 220" style="enable-background:new 0 0 297 220;" xml:space="preserve">
<style type="text/css">
	.st0{fill:#006EFF;}
	.st1{fill:url(#SVGID_1_);}
</style>
<g>
	<path class="st0" d="M5,219.9L6.7,202H0.8l0.2-2.2h14.1l-0.2,2.2H8.9l-1.7,17.9H5z"/>
	<path class="st0" d="M22.7,220.2c-2.1,0-3.7-0.6-4.8-1.9s-1.6-3.2-1.3-5.7l1.2-12.8h2.3l-1.2,12.8c-0.2,1.9,0.1,3.2,0.9,4.1
		c0.8,0.8,1.8,1.2,3.2,1.2c1.4,0,2.5-0.4,3.4-1.2c0.9-0.8,1.5-2.2,1.6-4.1l1.2-12.8h2.3l-1.2,12.8c-0.1,1.7-0.6,3.1-1.2,4.2
		c-0.7,1.1-1.5,2-2.6,2.6C25.3,219.9,24.1,220.2,22.7,220.2z"/>
	<path class="st0" d="M41.9,219.9l1.9-20.1h11l-0.2,2.2h-8.7l-0.6,6.7h8.1l-0.2,2.2H45l-0.8,9.1L41.9,219.9L41.9,219.9z"/>
	<path class="st0" d="M57,219.9l1.9-20.1h2.3l-1.9,20.1H57z"/>
	<path class="st0" d="M65,219.9l1.9-20.1h2.7l7.9,16.9l-0.5-0.1l1.6-16.9h2.3l-1.9,20.1h-2.5l-8.1-17.2l0.5,0.1l-1.6,17.1H65z"/>
	<path class="st0" d="M82.6,219.9l8.1-20.1h2.8l4.2,20.1h-2.4l-1.1-5.1H87l-2,5.1H82.6z M87.8,212.8h6l-2-9.9L87.8,212.8z"/>
	<path class="st0" d="M101.2,219.9l1.9-20.1h2.7l7.9,16.9l-0.5-0.1l1.6-16.9h2.3l-1.9,20.1h-2.5l-8.1-17.2l0.5,0.1l-1.6,17.1H101.2z
		"/>
	<path class="st0" d="M127.1,220.2c-1.6,0-2.9-0.4-4-1.3c-1.1-0.9-1.8-2.1-2.3-3.7s-0.6-3.4-0.4-5.5c0.2-2.2,0.7-4.1,1.5-5.6
		s1.8-2.7,3.1-3.5c1.2-0.8,2.6-1.2,4-1.2c1.9,0,3.4,0.5,4.5,1.6c1.1,1.1,1.8,2.5,2.1,4.2l-2.5,0.5c-0.3-1.2-0.8-2.2-1.5-3
		c-0.8-0.7-1.7-1.1-2.8-1.1c-0.9,0-1.8,0.3-2.7,0.9c-0.9,0.6-1.6,1.5-2.2,2.7s-1,2.7-1.1,4.4c-0.2,1.6-0.1,3,0.2,4.3
		c0.3,1.2,0.8,2.2,1.5,2.9c0.7,0.7,1.7,1.1,2.8,1.1c1.4,0,2.6-0.4,3.5-1.3s1.4-2,1.6-3.3h2.4c-0.1,1.4-0.5,2.7-1.2,3.7
		s-1.6,1.8-2.7,2.4C129.8,219.9,128.5,220.2,127.1,220.2z"/>
	<path class="st0" d="M138.6,219.9l1.9-20.1h2.3l-1.9,20.1H138.6z"/>
	<path class="st0" d="M146.6,219.9l1.9-20.1h11.1l-0.3,2.2h-8.9l-0.6,6.7h8.3l-0.2,2.1h-8.3l-0.6,6.8h8.9l-0.2,2.2L146.6,219.9
		L146.6,219.9z"/>
	<path class="st0" d="M162.8,219.9l1.9-20.1h6.3c2.1,0,3.6,0.6,4.6,1.6c1,1.1,1.4,2.5,1.2,4.3c-0.1,1.5-0.6,2.8-1.6,3.8
		c-0.9,1-2.1,1.7-3.7,2l4.4,8.3h-2.9l-3.9-8.2h-3.2l-0.8,8.2L162.8,219.9L162.8,219.9z M166,209.9h3.8c1.4,0,2.4-0.4,3.2-1.1
		c0.8-0.7,1.2-1.7,1.3-2.9c0.1-1.2-0.1-2.2-0.8-2.9s-1.6-1.1-2.9-1.1h-4L166,209.9z"/>
	<path class="st0" d="M178.2,219.9l8.1-20.1h2.8l4.1,20.1h-2.4l-1.1-5.1h-7.2l-2,5.1H178.2z M183.4,212.8h6l-2-9.9L183.4,212.8z"/>
	<path class="st0" d="M210.1,220.2c-1.5,0-2.8-0.4-3.9-1.1c-1.1-0.8-1.9-1.9-2.4-3.4c-0.5-1.5-0.7-3.5-0.4-5.8
		c0.2-2.3,0.7-4.3,1.6-5.8c0.8-1.5,1.9-2.7,3.1-3.5c1.2-0.8,2.6-1.1,4.1-1.1s2.8,0.4,3.9,1.2c1.1,0.8,1.9,1.9,2.5,3.5
		c0.5,1.5,0.7,3.5,0.5,5.8c-0.2,2.3-0.8,4.3-1.6,5.8s-1.9,2.7-3.1,3.4C213,219.9,211.6,220.2,210.1,220.2z M210.3,217.9
		c1.7,0,3.1-0.7,4.2-2.1c1.1-1.4,1.8-3.4,2.1-6c0.3-2.6-0.1-4.6-0.9-6s-2.1-2.1-3.8-2.1c-1.7,0-3.1,0.7-4.2,2.1
		c-1.1,1.4-1.8,3.4-2,6c-0.3,2.6,0.1,4.7,0.9,6C207.4,217.2,208.6,217.9,210.3,217.9z"/>
	<path class="st0" d="M222.3,219.9l1.9-20.1h2.6l7.9,16.9l-0.5-0.1l1.6-16.9h2.3l-1.9,20.1h-2.5l-8.1-17.2l0.5,0.1l-1.6,17.1H222.3z
		"/>
	<path class="st0" d="M242,219.9l1.9-20.1h2.3l-1.7,17.9h8.1l-0.2,2.2L242,219.9L242,219.9z"/>
	<path class="st0" d="M255.5,219.9l1.9-20.1h2.3l-1.9,20.1H255.5z"/>
	<path class="st0" d="M263.5,219.9l1.9-20.1h2.6l7.9,16.9l-0.5-0.1l1.6-16.9h2.3l-1.9,20.1h-2.5l-8.1-17.2l0.5,0.1l-1.6,17.1H263.5z
		"/>
	<path class="st0" d="M283.2,219.9l1.9-20.1h11.1l-0.3,2.2h-8.9l-0.6,6.7h8.3l-0.2,2.1h-8.3l-0.6,6.8h8.9l-0.2,2.2L283.2,219.9
		L283.2,219.9L283.2,219.9z"/>
</g>
<g>
	
		<linearGradient id="SVGID_1_" gradientUnits="userSpaceOnUse" x1="106.7033" y1="950.0376" x2="186.7534" y2="869.9875" gradientTransform="matrix(1 0 0 1 0 -858)">
		<stop  offset="0" style="stop-color:#006EFF"/>
		<stop  offset="1" style="stop-color:#00F0AB"/>
	</linearGradient>
	<path class="st1" d="M158.4,1h-36.9c-0.9,0-1.6,0.6-1.8,1.4l-6.2,30.8c-0.1,0.2,0.2,0.4,0.4,0.3c2.7-1.5,15.7-8.4,30.9-9
		c0.3,0,0.5-0.2,0.5-0.5l1.1-5c0-0.1,0.2-0.2,0.3-0.2c2.7,0.9,24.2,7.8,28.5,9.2c0.3,0.1,0.3,0.5,0,0.5
		c-4.6,1.9-29.5,12.1-33.2,13.6c-0.2,0.1-0.4-0.1-0.4-0.3l1.2-6.3c0-0.1-0.1-0.2-0.2-0.2c-13.6,3.4-39.1,17.5-36.3,55.3
		c0.1,1.8,1.7,3.1,3.5,3.1H131c0.3,0,0.5-0.3,0.5-0.6c-1.4-29.4,10.2-32.9,10.2-32.9l5.9,24.9c1.2,5,5.8,8.6,10.9,8.6h23.2
		l-11.2-33.8c16.9-6.3,24.3-19.9,22.9-32.5C191.8,13.7,180.9,1,158.4,1z"/>
	<g>
		<path class="st0" d="M27.2,141.8h-6.3l-4.3,21.9h-16l12.2-63.2h22.2c6.8,0,11.9,1.6,15.3,4.7c3.4,3.1,5.1,7.2,5.1,12.3
			c0,2.2-0.3,4.5-0.9,6.8c-0.8,3.4-2.2,6.5-4.3,9.1c-2,2.6-4.8,4.7-8.3,6.1l7.3,24.2H32.3L27.2,141.8z M23.4,128.9h5.3
			c1.8,0,3.3-0.1,4.5-0.4c1.2-0.3,2.2-0.7,3-1.3c0.8-0.6,1.4-1.3,1.8-2.2c0.5-0.9,0.8-1.8,1-3c0.2-0.9,0.3-1.7,0.3-2.6
			c0-1.7-0.5-3.1-1.5-4.2s-2.9-1.6-5.6-1.6h-5.7L23.4,128.9z"/>
		<path class="st0" d="M81.5,116.2c11.1,0,16.7,4.4,16.7,13.3c0,2.7-0.5,5-1.4,6.9c-0.9,1.9-2.3,3.5-3.9,4.8
			c-1.7,1.3-3.7,2.3-6.1,2.9c-2.4,0.6-5,1-7.9,1.1l-8.3,0.4c0,1.6,0.2,3,0.6,3.9c0.4,1,0.9,1.7,1.6,2.3s1.6,0.9,2.5,1
			c1,0.1,2.1,0.2,3.2,0.2c2.9,0,5.5-0.3,7.7-0.8s4.5-1.3,6.7-2.1l-3.3,11.6c-2.1,0.8-4.3,1.5-6.6,2.1c-2.3,0.6-5.1,0.9-8.2,0.9
			c-3.7,0-6.9-0.5-9.5-1.4c-2.6-0.9-4.7-2.2-6.3-3.7c-1.6-1.6-2.8-3.4-3.5-5.6s-1.1-4.5-1.1-7c0-2.8,0.4-5.8,1.2-9.1
			c1.9-7.4,5-12.9,9.2-16.5S74.6,116.2,81.5,116.2z M79.8,127.5c-1.9,0-3.5,0.6-4.8,1.9c-1.3,1.2-2.4,3.6-3.3,6.9l5.6-0.2
			c2.2-0.1,3.9-0.6,4.9-1.3c1-0.7,1.6-2,1.6-3.7c0-1.2-0.3-2.2-0.9-2.8C82.3,127.8,81.2,127.5,79.8,127.5z"/>
		<path class="st0" d="M96.9,163.7l9.1-46.5h13.8l-0.3,5.7c1.5-1.9,3.4-3.6,5.6-4.8c2.2-1.3,4.9-1.9,8.1-1.9c2.2,0,4.1,0.3,5.6,0.9
			c1.6,0.6,2.9,1.5,3.9,2.6s1.7,2.4,2.2,3.9s0.7,3.2,0.7,5c0,1.7-0.2,3.4-0.5,5.1l-5.9,30h-16.1l5.4-28.2c0.2-1.1,0.3-2,0.3-2.8
			c0-1.2-0.3-2.2-0.8-2.9c-0.5-0.7-1.5-1.1-2.8-1.1c-1.1,0-2,0.2-2.8,0.7c-0.8,0.4-1.4,1.1-2,1.8s-1,1.6-1.4,2.6s-0.6,1.9-0.8,3
			l-5.2,27L96.9,163.7L96.9,163.7z"/>
		<path class="st0" d="M174.2,163.7l0.2-5.9c-1.7,2.3-3.6,4-5.6,5.2c-2,1.1-4.4,1.7-7.1,1.7c-2.6,0-4.7-0.4-6.4-1.3
			c-1.7-0.9-3.1-2.1-4.2-3.6c-1.1-1.5-1.8-3.3-2.3-5.4c-0.5-2.1-0.7-4.3-0.7-6.6c0-3.4,0.4-6.9,1.3-10.5c0.8-3.2,1.9-6.2,3.6-8.8
			c1.6-2.6,3.5-4.9,5.8-6.7c2.3-1.8,4.8-3.2,7.7-4.2c2.8-1,5.9-1.5,9.2-1.5c1.9,0,3.7,0.2,5.5,0.5l3.7-18.9h16.1l-13,65.9H174.2z
			 M178.7,128.8c-1.3-0.3-2.4-0.4-3.4-0.4c-2.1,0-4.1,0.8-5.8,2.3c-1.7,1.5-3.2,4.4-4.3,8.5c-0.5,1.7-0.8,3.1-1,4.4
			c-0.2,1.3-0.3,2.4-0.3,3.4c0,2.1,0.4,3.5,1.2,4.4s1.9,1.2,3.3,1.2c1.9,0,3.4-0.8,4.6-2.4c1.2-1.6,2.1-3.8,2.7-6.7L178.7,128.8z"/>
		<path class="st0" d="M223.4,163.7l0.2-5.9c-1.7,2.3-3.6,4-5.6,5.2c-2,1.1-4.4,1.7-7.1,1.7c-2.6,0-4.7-0.4-6.4-1.3
			c-1.8-0.9-3.1-2.1-4.2-3.6c-1.1-1.5-1.8-3.3-2.3-5.4c-0.5-2.1-0.7-4.3-0.7-6.6c0-3.4,0.4-6.9,1.3-10.5c0.8-3.2,1.9-6.2,3.6-8.8
			c1.6-2.6,3.5-4.9,5.8-6.7c2.3-1.8,4.8-3.2,7.7-4.2c2.8-1,5.9-1.5,9.2-1.5c1.9,0,3.7,0.2,5.5,0.5l3.7-18.9h16.1l-13,65.9H223.4z
			 M227.9,128.8c-1.3-0.3-2.4-0.4-3.4-0.4c-2.1,0-4.1,0.8-5.8,2.3c-1.7,1.5-3.2,4.4-4.3,8.5c-0.5,1.7-0.8,3.1-1,4.4
			c-0.2,1.3-0.3,2.4-0.3,3.4c0,2.1,0.4,3.5,1.2,4.4s1.9,1.2,3.3,1.2c1.9,0,3.4-0.8,4.6-2.4c1.2-1.6,2.1-3.8,2.7-6.7L227.9,128.8z"/>
		<path class="st0" d="M248.3,117.2h17.8l0.8,30.3l11.9-30.2h17.5L269,169.5c-1.6,3.1-3.2,5.6-4.8,7.6c-1.6,2-3.3,3.6-5.1,4.7
			s-3.7,1.9-5.7,2.4c-2,0.4-4.3,0.7-6.7,0.7c-2.6,0-4.7-0.2-6.4-0.6c-1.6-0.4-3.2-0.8-4.8-1.4l3.7-11.2c0.8,0.2,1.7,0.4,2.8,0.6
			s2.1,0.3,3.3,0.3c2.7,0,4.7-0.6,6-1.6c1.4-1.1,2.6-2.8,3.7-5.2l1.2-2.8L248.3,117.2z"/>
	</g>
</g>
</svg>
