<?xml version="1.0" encoding="utf-8"?>
<!-- Generator: Adobe Illustrator 25.2.1, SVG Export Plug-In . SVG Version: 6.00 Build 0)  -->
<svg version="1.1" id="Layer_1" xmlns="http://www.w3.org/2000/svg" xmlns:xlink="http://www.w3.org/1999/xlink" x="0px" y="0px"
	 viewBox="0 0 297 220" style="enable-background:new 0 0 297 220;" xml:space="preserve">
<style type="text/css">
	.st0{fill:#FFFFFF;}
	.st1{fill:url(#SVGID_1_);}
</style>
<g>
	<path class="st0" d="M5.02,219.88l1.66-17.92H0.8l0.22-2.17h14.06l-0.22,2.17H8.95l-1.66,17.92H5.02z"/>
	<path class="st0" d="M22.69,220.23c-2.11,0-3.72-0.64-4.83-1.92s-1.56-3.18-1.33-5.68l1.25-12.84h2.27l-1.25,12.84
		c-0.17,1.86,0.13,3.21,0.89,4.05c0.77,0.84,1.84,1.25,3.23,1.25c1.37,0,2.52-0.42,3.44-1.25c0.92-0.84,1.47-2.19,1.64-4.05
		l1.25-12.84h2.27l-1.25,12.84c-0.15,1.67-0.56,3.07-1.23,4.2c-0.67,1.13-1.55,1.98-2.64,2.55
		C25.31,219.94,24.07,220.23,22.69,220.23z"/>
	<path class="st0" d="M41.92,219.88l1.89-20.1H54.8l-0.22,2.17h-8.72l-0.64,6.68h8.12l-0.19,2.17h-8.12l-0.83,9.07h-2.28V219.88z"/>
	<path class="st0" d="M57,219.88l1.89-20.1h2.27l-1.89,20.1H57z"/>
	<path class="st0" d="M64.99,219.88l1.88-20.1h2.65l7.89,16.95l-0.48-0.05l1.63-16.9h2.27l-1.88,20.1h-2.49l-8.08-17.16l0.51,0.05
		l-1.6,17.11H64.99z"/>
	<path class="st0" d="M82.56,219.88l8.11-20.1h2.78l4.15,20.1h-2.36l-1.05-5.11H87l-2.04,5.11H82.56z M87.77,212.78h6.01l-2.04-9.94
		L87.77,212.78z"/>
	<path class="st0" d="M101.18,219.88l1.88-20.1h2.65l7.89,16.95l-0.48-0.05l1.63-16.9h2.27l-1.88,20.1h-2.49l-8.08-17.16l0.51,0.05
		l-1.6,17.11H101.18z"/>
	<path class="st0" d="M127.13,220.23c-1.6,0-2.93-0.44-3.99-1.33c-1.07-0.88-1.83-2.11-2.29-3.69s-0.59-3.41-0.39-5.49
		c0.2-2.23,0.71-4.1,1.53-5.63s1.85-2.69,3.09-3.47c1.24-0.79,2.59-1.18,4.03-1.18c1.94,0,3.45,0.54,4.53,1.61
		c1.08,1.08,1.76,2.48,2.05,4.2l-2.52,0.54c-0.26-1.25-0.76-2.24-1.52-2.98c-0.76-0.74-1.68-1.11-2.76-1.11
		c-0.95,0-1.85,0.3-2.71,0.9c-0.86,0.6-1.58,1.5-2.17,2.69s-0.97,2.67-1.13,4.43c-0.15,1.6-0.09,3.02,0.18,4.26
		c0.27,1.24,0.76,2.22,1.47,2.92c0.71,0.71,1.65,1.06,2.82,1.06c1.44,0,2.62-0.42,3.54-1.27s1.45-1.96,1.57-3.33h2.43
		c-0.13,1.44-0.54,2.67-1.23,3.69s-1.6,1.81-2.72,2.36C129.81,219.95,128.54,220.23,127.13,220.23z"/>
	<path class="st0" d="M138.56,219.88l1.89-20.1h2.27l-1.89,20.1H138.56z"/>
	<path class="st0" d="M146.58,219.88l1.88-20.1h11.15l-0.26,2.17h-8.85l-0.64,6.74h8.34l-0.19,2.14h-8.34l-0.64,6.84h8.88l-0.22,2.2
		h-11.11V219.88z"/>
	<path class="st0" d="M162.78,219.88l1.89-20.1h6.29c2.08,0,3.59,0.55,4.55,1.65c0.96,1.1,1.35,2.54,1.17,4.32
		c-0.14,1.51-0.65,2.79-1.55,3.82c-0.89,1.03-2.14,1.69-3.72,1.96l4.41,8.34h-2.91l-3.93-8.21h-3.16l-0.77,8.21L162.78,219.88
		L162.78,219.88z M165.97,209.91h3.83c1.36,0,2.43-0.37,3.21-1.11c0.78-0.74,1.22-1.7,1.33-2.88c0.12-1.21-0.14-2.18-0.76-2.89
		s-1.57-1.07-2.85-1.07h-4.03L165.97,209.91z"/>
	<path class="st0" d="M178.24,219.88l8.11-20.1h2.78l4.15,20.1h-2.36l-1.05-5.11h-7.19l-2.04,5.11H178.24z M183.45,212.78h6.01
		l-2.04-9.94L183.45,212.78z"/>
	<path class="st0" d="M210.1,220.23c-1.5,0-2.8-0.38-3.91-1.14c-1.1-0.76-1.92-1.91-2.44-3.45c-0.53-1.54-0.68-3.47-0.45-5.79
		c0.21-2.33,0.73-4.27,1.55-5.82c0.82-1.54,1.86-2.7,3.11-3.46c1.25-0.76,2.63-1.14,4.13-1.14s2.81,0.39,3.91,1.16
		c1.11,0.77,1.93,1.93,2.47,3.47c0.54,1.54,0.7,3.47,0.49,5.78c-0.23,2.34-0.77,4.28-1.6,5.81s-1.87,2.68-3.12,3.43
		C212.97,219.85,211.6,220.23,210.1,220.23z M210.32,217.93c1.68,0,3.08-0.68,4.2-2.05c1.12-1.37,1.8-3.38,2.06-6.03
		c0.26-2.61-0.05-4.62-0.91-6.03s-2.14-2.12-3.82-2.12c-1.69,0-3.09,0.71-4.19,2.12c-1.1,1.41-1.78,3.42-2.04,6.03
		c-0.26,2.65,0.05,4.66,0.9,6.03C207.38,217.24,208.65,217.93,210.32,217.93z"/>
	<path class="st0" d="M222.27,219.88l1.88-20.1h2.65l7.89,16.95l-0.48-0.05l1.63-16.9h2.27l-1.88,20.1h-2.49l-8.08-17.16l0.51,0.05
		l-1.6,17.11H222.27z"/>
	<path class="st0" d="M242.01,219.88l1.89-20.1h2.27l-1.69,17.89h8.05l-0.19,2.2h-10.33V219.88z"/>
	<path class="st0" d="M255.46,219.88l1.88-20.1h2.27l-1.88,20.1H255.46z"/>
	<path class="st0" d="M263.45,219.88l1.89-20.1h2.65l7.89,16.95l-0.48-0.05l1.63-16.9h2.27l-1.89,20.1h-2.49l-8.08-17.16l0.51,0.05
		l-1.6,17.11H263.45z"/>
	<path class="st0" d="M283.16,219.88l1.89-20.1h11.15l-0.26,2.17h-8.85l-0.64,6.74h8.34l-0.19,2.14h-8.34l-0.64,6.84h8.88l-0.22,2.2
		h-11.12V219.88z"/>
</g>
<g>
	
		<linearGradient id="SVGID_1_" gradientUnits="userSpaceOnUse" x1="106.7033" y1="129.9624" x2="186.7534" y2="210.0125" gradientTransform="matrix(1 0 0 -1 0 222)">
		<stop  offset="0" style="stop-color:#006EFF"/>
		<stop  offset="1" style="stop-color:#00F0AB"/>
	</linearGradient>
	<path class="st1" d="M158.43,1h-36.89c-0.86,0-1.59,0.59-1.76,1.4l-6.2,30.82c-0.05,0.23,0.2,0.41,0.4,0.3
		c2.74-1.5,15.67-8.37,30.94-8.97c0.26-0.01,0.49-0.2,0.54-0.46l1.05-5c0.03-0.15,0.19-0.25,0.34-0.2
		c2.69,0.86,24.21,7.83,28.53,9.23c0.26,0.08,0.27,0.45,0.02,0.55c-4.63,1.9-29.52,12.1-33.17,13.58c-0.19,0.08-0.39-0.09-0.35-0.29
		l1.25-6.28c0.02-0.1-0.07-0.18-0.17-0.16c-13.59,3.36-39.11,17.49-36.33,55.35c0.13,1.76,1.71,3.11,3.54,3.11h20.86
		c0.29,0,0.48-0.26,0.47-0.55c-1.43-29.42,10.2-32.91,10.2-32.91l5.93,24.9c1.24,5.03,5.75,8.56,10.93,8.56h23.16l-11.25-33.82
		c16.88-6.33,24.32-19.94,22.89-32.52C191.79,13.68,180.91,1,158.43,1z"/>
	<g>
		<path class="st0" d="M27.21,141.81h-6.3l-4.26,21.91H0.68l12.25-63.17H35.1c6.8,0,11.89,1.55,15.26,4.66
			c3.38,3.1,5.06,7.2,5.06,12.29c0,2.25-0.29,4.52-0.89,6.83c-0.83,3.43-2.25,6.46-4.26,9.1c-2.01,2.63-4.79,4.66-8.34,6.08
			l7.28,24.22H32.35L27.21,141.81z M23.39,128.94h5.32c1.77,0,3.26-0.15,4.48-0.44c1.21-0.3,2.2-0.74,2.97-1.33
			c0.77-0.59,1.38-1.31,1.82-2.17c0.45-0.86,0.78-1.85,1.02-2.97c0.18-0.89,0.27-1.74,0.27-2.57c0-1.71-0.52-3.12-1.55-4.21
			s-2.91-1.64-5.63-1.64h-5.68L23.39,128.94z"/>
		<path class="st0" d="M81.51,116.16c11.12,0,16.68,4.44,16.68,13.31c0,2.66-0.48,4.96-1.42,6.88c-0.95,1.92-2.27,3.54-3.95,4.83
			c-1.69,1.3-3.73,2.28-6.13,2.93c-2.39,0.65-5.04,1.03-7.94,1.15l-8.34,0.36c0,1.65,0.19,2.97,0.58,3.95
			c0.38,0.97,0.93,1.73,1.64,2.26s1.55,0.87,2.53,1.02c0.98,0.15,2.06,0.22,3.24,0.22c2.89,0,5.47-0.28,7.72-0.84
			s4.49-1.26,6.74-2.09l-3.28,11.62c-2.07,0.83-4.27,1.54-6.61,2.13c-2.34,0.59-5.07,0.89-8.2,0.89c-3.73,0-6.89-0.46-9.5-1.38
			c-2.6-0.92-4.7-2.16-6.3-3.73c-1.6-1.57-2.75-3.43-3.46-5.59s-1.06-4.48-1.06-6.96c0-2.78,0.41-5.82,1.24-9.14
			c1.89-7.45,4.95-12.95,9.18-16.5S74.64,116.16,81.51,116.16z M79.82,127.52c-1.89,0-3.49,0.62-4.79,1.86
			c-1.31,1.24-2.4,3.55-3.29,6.92l5.59-0.18c2.25-0.12,3.89-0.55,4.93-1.29c1.03-0.74,1.55-1.97,1.55-3.68
			c0-1.24-0.31-2.16-0.93-2.75C82.26,127.82,81.24,127.52,79.82,127.52z"/>
		<path class="st0" d="M96.95,163.72l9.05-46.49h13.75l-0.27,5.68c1.54-1.95,3.4-3.56,5.59-4.84c2.19-1.27,4.88-1.91,8.07-1.91
			c2.19,0,4.07,0.31,5.63,0.93c1.57,0.62,2.85,1.48,3.86,2.57s1.74,2.39,2.22,3.9s0.71,3.18,0.71,5.01c0,1.66-0.18,3.37-0.53,5.15
			l-5.86,29.99h-16.06l5.41-28.22c0.18-1.07,0.27-2.01,0.27-2.84c0-1.24-0.27-2.22-0.8-2.93c-0.53-0.71-1.48-1.07-2.84-1.07
			c-1.06,0-1.98,0.22-2.75,0.67c-0.77,0.44-1.44,1.05-2,1.82s-1.02,1.63-1.38,2.57s-0.62,1.95-0.8,3.02l-5.23,26.97H96.95V163.72z"
			/>
		<path class="st0" d="M174.2,163.72l0.18-5.86c-1.72,2.31-3.59,4.04-5.64,5.19c-2.04,1.15-4.42,1.73-7.14,1.73
			c-2.55,0-4.69-0.45-6.43-1.33c-1.74-0.89-3.15-2.09-4.21-3.59c-1.06-1.51-1.83-3.3-2.31-5.37c-0.47-2.07-0.71-4.29-0.71-6.65
			c0-3.43,0.44-6.92,1.33-10.47c0.76-3.25,1.95-6.2,3.55-8.83c1.59-2.63,3.53-4.86,5.81-6.7c2.28-1.83,4.84-3.24,7.68-4.21
			c2.84-0.98,5.91-1.46,9.23-1.46c1.89,0,3.73,0.18,5.5,0.53l3.73-18.9h16.15l-12.96,65.92H174.2z M178.73,128.76
			c-1.3-0.29-2.42-0.44-3.37-0.44c-2.13,0-4.07,0.77-5.81,2.31c-1.74,1.54-3.18,4.38-4.3,8.52c-0.47,1.66-0.8,3.12-0.97,4.39
			c-0.18,1.27-0.27,2.41-0.27,3.42c0,2.07,0.4,3.52,1.2,4.35s1.91,1.24,3.33,1.24c1.89,0,3.43-0.78,4.61-2.35
			c1.18-1.57,2.07-3.8,2.66-6.7L178.73,128.76z"/>
		<path class="st0" d="M223.41,163.72l0.18-5.86c-1.72,2.31-3.59,4.04-5.63,5.19c-2.04,1.15-4.42,1.73-7.14,1.73
			c-2.55,0-4.69-0.45-6.43-1.33c-1.75-0.89-3.15-2.09-4.21-3.59c-1.07-1.51-1.84-3.3-2.31-5.37c-0.48-2.07-0.71-4.29-0.71-6.65
			c0-3.43,0.44-6.92,1.33-10.47c0.77-3.25,1.95-6.2,3.55-8.83c1.6-2.63,3.53-4.86,5.81-6.7c2.27-1.83,4.83-3.24,7.67-4.21
			c2.84-0.98,5.92-1.46,9.23-1.46c1.89,0,3.72,0.18,5.5,0.53l3.72-18.9h16.15l-12.96,65.92H223.41z M227.94,128.76
			c-1.3-0.29-2.43-0.44-3.37-0.44c-2.13,0-4.07,0.77-5.81,2.31c-1.74,1.54-3.18,4.38-4.3,8.52c-0.48,1.66-0.8,3.12-0.97,4.39
			c-0.18,1.27-0.27,2.41-0.27,3.42c0,2.07,0.4,3.52,1.2,4.35s1.91,1.24,3.33,1.24c1.89,0,3.43-0.78,4.62-2.35
			c1.18-1.57,2.07-3.8,2.66-6.7L227.94,128.76z"/>
		<path class="st0" d="M248.32,117.23h17.84l0.8,30.25l11.89-30.25h17.48L269,169.49c-1.6,3.07-3.21,5.6-4.84,7.59
			c-1.63,1.98-3.32,3.55-5.1,4.7s-3.68,1.95-5.72,2.4c-2.04,0.44-4.27,0.67-6.69,0.67c-2.61,0-4.73-0.19-6.39-0.58
			c-1.65-0.38-3.25-0.84-4.79-1.38l3.73-11.18c0.83,0.24,1.74,0.44,2.75,0.62s2.1,0.27,3.28,0.27c2.66,0,4.67-0.55,6.03-1.64
			c1.36-1.1,2.6-2.83,3.73-5.19l1.24-2.75L248.32,117.23z"/>
	</g>
</g>
</svg>
