<?xml version="1.0" encoding="utf-8"?>
<!-- Generator: Adobe Illustrator 25.2.1, SVG Export Plug-In . SVG Version: 6.00 Build 0)  -->
<svg version="1.1" id="Layer_1" xmlns="http://www.w3.org/2000/svg" xmlns:xlink="http://www.w3.org/1999/xlink" x="0px" y="0px"
	 viewBox="0 0 694 354" style="enable-background:new 0 0 694 354;" xml:space="preserve">
<style type="text/css">
	.st0{fill:#ECFDF5;}
	.st1{fill:none;stroke:#34D399;stroke-miterlimit:10;}
	.st2{fill:none;stroke:#000000;stroke-miterlimit:10;}
	.st3{fill:#34D399;}
</style>
<path class="st0" d="M650.5,317.8V22.5c0,0-80,56-306,152c-130.6,55.5-299,110.6-299,110.6v32.4L650.5,317.8z"/>
<path class="st1" d="M650.5,22.5c0,0-80,56-306,152c-130.6,55.5-299,110.6-299,110.6"/>
<line class="st2" x1="45.5" y1="326.5" x2="45.5" y2="22.5"/>
<line class="st2" x1="39.5" y1="317.5" x2="650.5" y2="317.5"/>
<line class="st2" x1="36.5" y1="23.5" x2="45.2" y2="23.5"/>
<line class="st2" x1="36.5" y1="98.5" x2="45.2" y2="98.5"/>
<line class="st2" x1="36.5" y1="170.5" x2="45.2" y2="170.5"/>
<line class="st2" x1="36.5" y1="245.5" x2="45.2" y2="245.5"/>
<line class="st2" x1="229.5" y1="326.5" x2="229.5" y2="317.8"/>
<line class="st2" x1="461.6" y1="326.5" x2="461.6" y2="317.8"/>
<line class="st2" x1="650.5" y1="326.5" x2="650.5" y2="317.8"/>
<circle class="st3" cx="230.2" cy="218.8" r="3.5"/>
<circle class="st3" cx="462.5" cy="121.9" r="3.5"/>
<circle class="st3" cx="651" cy="23" r="3.5"/>
<g>
	<g>
		<path d="M11.1,313.1h1.1v7.8h-1.4v-6.1c-0.2,0.1-0.4,0.2-0.6,0.2c-0.2,0.1-0.4,0.1-0.6,0.1v-1.4c0.3,0,0.5-0.1,0.8-0.2
			C10.5,313.4,10.8,313.3,11.1,313.1z"/>
		<path d="M17.1,321.1c-0.6,0-1.2-0.1-1.7-0.4c-0.5-0.3-0.9-0.7-1.1-1.3c-0.3-0.6-0.4-1.4-0.4-2.3c0-0.9,0.1-1.7,0.4-2.3
			c0.3-0.6,0.7-1,1.1-1.3c0.5-0.3,1-0.4,1.7-0.4c0.6,0,1.2,0.1,1.7,0.4s0.9,0.7,1.1,1.3c0.3,0.6,0.4,1.4,0.4,2.3
			c0,0.9-0.1,1.7-0.4,2.3c-0.3,0.6-0.7,1-1.1,1.3S17.7,321.1,17.1,321.1z M17.1,319.8c0.6,0,1-0.2,1.3-0.7c0.3-0.5,0.5-1.2,0.5-2
			c0-0.9-0.2-1.6-0.5-2.1c-0.3-0.5-0.7-0.7-1.3-0.7c-0.6,0-1,0.2-1.3,0.7c-0.3,0.5-0.5,1.2-0.5,2.1c0,0.9,0.2,1.6,0.5,2
			C16.1,319.5,16.5,319.8,17.1,319.8z"/>
		<path d="M24.7,321.1c-0.6,0-1.2-0.1-1.7-0.4c-0.5-0.3-0.9-0.7-1.1-1.3c-0.3-0.6-0.4-1.4-0.4-2.3c0-0.9,0.1-1.7,0.4-2.3
			c0.3-0.6,0.7-1,1.1-1.3c0.5-0.3,1-0.4,1.7-0.4c0.6,0,1.2,0.1,1.7,0.4s0.9,0.7,1.1,1.3c0.3,0.6,0.4,1.4,0.4,2.3
			c0,0.9-0.1,1.7-0.4,2.3c-0.3,0.6-0.7,1-1.1,1.3S25.3,321.1,24.7,321.1z M24.7,319.8c0.6,0,1-0.2,1.3-0.7c0.3-0.5,0.5-1.2,0.5-2
			c0-0.9-0.2-1.6-0.5-2.1c-0.3-0.5-0.7-0.7-1.3-0.7c-0.6,0-1,0.2-1.3,0.7c-0.3,0.5-0.5,1.2-0.5,2.1c0,0.9,0.2,1.6,0.5,2
			C23.7,319.5,24.1,319.8,24.7,319.8z"/>
		<path d="M32.6,313.1H34v7.8h-1.4V313.1z M37.1,313.1H39l-5.1,5.3v-1.9L37.1,313.1z M35.4,316.3l3.9,4.6h-1.8l-3-3.6L35.4,316.3z"
			/>
	</g>
</g>
<g>
	<g>
		<path d="M32,333.6h1.1v7.8h-1.4v-6.1c-0.2,0.1-0.4,0.2-0.6,0.2c-0.2,0.1-0.4,0.1-0.6,0.1v-1.4c0.3,0,0.5-0.1,0.8-0.2
			C31.5,333.9,31.8,333.8,32,333.6z"/>
		<path d="M37.5,341.4l2.7-7.8h1.8l2.5,7.8H43l-0.5-1.7h-2.9l-0.6,1.7H37.5z M39.9,338.6h2.2l-1.1-3.3L39.9,338.6z"/>
		<path d="M45.9,333.6h1.5l3.5,5.6h-0.1v-5.6h1.4v7.8h-1.4l-3.8-5.9h0.2v5.9h-1.4V333.6z M47.6,332.7l-0.6-0.3
			c0.1-0.5,0.3-0.9,0.5-1.1s0.5-0.4,0.8-0.4c0.1,0,0.2,0,0.4,0.1s0.3,0.1,0.5,0.2c0.2,0.1,0.4,0.2,0.5,0.2c0.1,0,0.2,0.1,0.3,0.1
			c0.1,0,0.2,0,0.3-0.1s0.2-0.2,0.3-0.4l0.6,0.4c-0.1,0.3-0.1,0.5-0.3,0.8s-0.3,0.4-0.4,0.5s-0.3,0.2-0.5,0.2c-0.1,0-0.3,0-0.4-0.1
			c-0.1-0.1-0.3-0.1-0.6-0.3c-0.2-0.1-0.3-0.2-0.4-0.2c-0.1,0-0.2-0.1-0.3-0.1c-0.1,0-0.3,0-0.4,0.1
			C47.8,332.3,47.7,332.5,47.6,332.7z"/>
		<path d="M57.5,341.6c-0.7,0-1.3-0.2-1.8-0.5c-0.5-0.3-0.9-0.8-1.2-1.4c-0.3-0.6-0.5-1.4-0.5-2.2c0-0.9,0.1-1.7,0.5-2.3
			c0.3-0.6,0.7-1,1.2-1.3c0.5-0.3,1.1-0.4,1.8-0.4c0.7,0,1.3,0.2,1.8,0.5c0.5,0.3,0.9,0.8,1.2,1.4c0.3,0.6,0.4,1.3,0.4,2.2
			c0,0.9-0.1,1.7-0.4,2.3c-0.3,0.6-0.7,1.1-1.2,1.4C58.8,341.4,58.2,341.6,57.5,341.6z M57.5,340.3c0.6,0,1.1-0.2,1.5-0.7
			c0.4-0.5,0.6-1.2,0.6-2.1c0-0.9-0.2-1.5-0.6-2c-0.4-0.5-0.9-0.7-1.5-0.7c-0.6,0-1.1,0.2-1.5,0.7c-0.4,0.5-0.6,1.2-0.6,2
			c0,0.9,0.2,1.6,0.6,2.1C56.3,340,56.8,340.3,57.5,340.3z"/>
	</g>
</g>
<g>
	<g>
		<path d="M206.3,341.4v-1.3c0-0.4,0.1-0.8,0.2-1.1c0.1-0.3,0.3-0.6,0.6-0.8c0.3-0.2,0.6-0.4,1-0.5l1.6-0.6c0.3-0.1,0.6-0.3,0.8-0.5
			s0.2-0.5,0.2-0.8c0-0.3-0.1-0.6-0.3-0.8c-0.2-0.2-0.5-0.3-0.9-0.3c-0.4,0-0.7,0.1-1,0.3s-0.4,0.5-0.5,0.8h-1.6
			c0-0.5,0.1-1,0.4-1.3c0.3-0.4,0.6-0.6,1.1-0.8c0.4-0.2,0.9-0.3,1.5-0.3c0.5,0,1,0.1,1.4,0.3c0.4,0.2,0.8,0.5,1,0.8
			c0.2,0.4,0.4,0.8,0.4,1.2c0,0.4-0.1,0.8-0.2,1.1c-0.1,0.3-0.4,0.6-0.7,0.8c-0.3,0.2-0.7,0.4-1.1,0.6l-1.6,0.6
			c-0.3,0.1-0.5,0.3-0.7,0.4c-0.1,0.1-0.2,0.3-0.2,0.6v0.2h4.5v1.3H206.3z"/>
		<path d="M216.2,341.4l2.7-7.8h1.8l2.5,7.8h-1.5l-0.5-1.7h-2.9l-0.6,1.7H216.2z M218.6,338.6h2.2l-1.1-3.3L218.6,338.6z"/>
		<path d="M224.5,333.6h1.5l3.5,5.6h-0.1v-5.6h1.4v7.8h-1.4l-3.8-5.9h0.2v5.9h-1.4V333.6z M226.2,332.7l-0.6-0.3
			c0.1-0.5,0.3-0.9,0.5-1.1s0.5-0.4,0.8-0.4c0.1,0,0.2,0,0.4,0.1s0.3,0.1,0.5,0.2c0.2,0.1,0.4,0.2,0.5,0.2c0.1,0,0.2,0.1,0.3,0.1
			c0.1,0,0.2,0,0.3-0.1s0.2-0.2,0.3-0.4l0.6,0.4c-0.1,0.3-0.1,0.5-0.3,0.8s-0.3,0.4-0.4,0.5s-0.3,0.2-0.5,0.2c-0.1,0-0.3,0-0.4-0.1
			c-0.1-0.1-0.3-0.1-0.6-0.3c-0.2-0.1-0.3-0.2-0.4-0.2c-0.1,0-0.2-0.1-0.3-0.1c-0.1,0-0.3,0-0.4,0.1
			C226.4,332.3,226.3,332.5,226.2,332.7z"/>
		<path d="M236.1,341.6c-0.7,0-1.3-0.2-1.8-0.5c-0.5-0.3-0.9-0.8-1.2-1.4c-0.3-0.6-0.5-1.4-0.5-2.2c0-0.9,0.1-1.7,0.5-2.3
			c0.3-0.6,0.7-1,1.2-1.3c0.5-0.3,1.1-0.4,1.8-0.4c0.7,0,1.3,0.2,1.8,0.5c0.5,0.3,0.9,0.8,1.2,1.4c0.3,0.6,0.4,1.3,0.4,2.2
			c0,0.9-0.1,1.7-0.4,2.3c-0.3,0.6-0.7,1.1-1.2,1.4C237.4,341.4,236.8,341.6,236.1,341.6z M236.1,340.3c0.6,0,1.1-0.2,1.5-0.7
			c0.4-0.5,0.6-1.2,0.6-2.1c0-0.9-0.2-1.5-0.6-2c-0.4-0.5-0.9-0.7-1.5-0.7c-0.6,0-1.1,0.2-1.5,0.7c-0.4,0.5-0.6,1.2-0.6,2
			c0,0.9,0.2,1.6,0.6,2.1C235,340,235.5,340.3,236.1,340.3z"/>
		<path d="M244,341.6c-0.5,0-1-0.1-1.5-0.3c-0.5-0.2-0.8-0.5-1.1-0.9c-0.3-0.4-0.4-0.9-0.5-1.5h1.4c0,0.3,0.1,0.5,0.2,0.7
			c0.1,0.2,0.3,0.3,0.6,0.4c0.2,0.1,0.5,0.1,0.8,0.1c0.3,0,0.5,0,0.8-0.1s0.4-0.2,0.5-0.3c0.1-0.1,0.2-0.3,0.2-0.5
			c0-0.3-0.1-0.5-0.2-0.6c-0.2-0.1-0.4-0.3-0.8-0.4l-1.5-0.6c-0.6-0.2-1.1-0.5-1.4-0.8c-0.3-0.3-0.5-0.7-0.5-1.3
			c0-0.6,0.2-1.1,0.8-1.5c0.5-0.4,1.2-0.6,2.1-0.6c0.9,0,1.5,0.2,2,0.6s0.7,1,0.8,1.7h-1.4c-0.1-0.3-0.2-0.6-0.4-0.7
			c-0.2-0.2-0.6-0.3-1-0.3c-0.4,0-0.7,0.1-0.9,0.2s-0.3,0.4-0.3,0.6c0,0.2,0.1,0.4,0.2,0.5c0.1,0.1,0.4,0.2,0.7,0.4l1.7,0.7
			c0.6,0.2,1,0.5,1.3,0.8c0.3,0.3,0.5,0.8,0.5,1.3c0,0.5-0.1,0.9-0.4,1.2c-0.2,0.3-0.6,0.6-1,0.8C245.2,341.5,244.7,341.6,244,341.6
			z"/>
	</g>
</g>
<g>
	<g>
		<path d="M445.6,341.6c-0.4,0-0.8-0.1-1.2-0.2s-0.7-0.3-1-0.5c-0.3-0.2-0.5-0.5-0.7-0.8c-0.2-0.3-0.3-0.7-0.3-1.1h1.5
			c0,0.3,0.1,0.5,0.2,0.7c0.1,0.2,0.3,0.4,0.6,0.5c0.3,0.1,0.5,0.2,0.9,0.2c0.5,0,0.9-0.1,1.1-0.3c0.3-0.2,0.4-0.5,0.4-0.9
			c0-0.2-0.1-0.4-0.2-0.6c-0.1-0.2-0.3-0.3-0.5-0.4c-0.2-0.1-0.5-0.1-0.9-0.1h-1v-1.1h0.9c0.5,0,0.8-0.1,1.1-0.3
			c0.3-0.2,0.4-0.5,0.4-0.8c0-0.3-0.1-0.6-0.3-0.8c-0.2-0.2-0.6-0.3-1-0.3c-0.4,0-0.7,0.1-1,0.2c-0.3,0.1-0.5,0.4-0.5,0.8h-1.5
			c0.1-0.5,0.2-1,0.5-1.3s0.6-0.6,1-0.7s0.9-0.2,1.4-0.2c0.6,0,1.1,0.1,1.5,0.3c0.4,0.2,0.8,0.4,1,0.8c0.3,0.3,0.4,0.7,0.4,1.1
			c0,0.4-0.1,0.7-0.3,1s-0.5,0.5-1,0.7c0.5,0.2,0.8,0.4,1.1,0.7c0.3,0.3,0.4,0.7,0.4,1.2c0,0.5-0.1,0.9-0.4,1.2
			c-0.3,0.4-0.6,0.6-1.1,0.8S446.2,341.6,445.6,341.6z"/>
		<path d="M452.6,341.4l2.7-7.8h1.8l2.5,7.8h-1.5l-0.5-1.7h-2.9l-0.6,1.7H452.6z M455,338.6h2.2l-1.1-3.3L455,338.6z"/>
		<path d="M461,333.6h1.5l3.5,5.6h-0.1v-5.6h1.4v7.8h-1.4l-3.8-5.9h0.2v5.9H461V333.6z M462.7,332.7l-0.6-0.3
			c0.1-0.5,0.3-0.9,0.5-1.1c0.2-0.3,0.5-0.4,0.8-0.4c0.1,0,0.2,0,0.4,0.1s0.3,0.1,0.5,0.2c0.2,0.1,0.4,0.2,0.5,0.2s0.2,0.1,0.3,0.1
			c0.1,0,0.2,0,0.3-0.1c0.1-0.1,0.2-0.2,0.3-0.4l0.6,0.4c-0.1,0.3-0.1,0.5-0.3,0.8s-0.3,0.4-0.4,0.5s-0.3,0.2-0.5,0.2
			c-0.1,0-0.3,0-0.4-0.1c-0.1-0.1-0.3-0.1-0.6-0.3c-0.2-0.1-0.3-0.2-0.4-0.2c-0.1,0-0.2-0.1-0.3-0.1c-0.1,0-0.3,0-0.4,0.1
			S462.8,332.5,462.7,332.7z"/>
		<path d="M472.6,341.6c-0.7,0-1.3-0.2-1.8-0.5s-0.9-0.8-1.2-1.4c-0.3-0.6-0.5-1.4-0.5-2.2c0-0.9,0.2-1.7,0.5-2.3s0.7-1,1.2-1.3
			s1.1-0.4,1.8-0.4c0.7,0,1.3,0.2,1.8,0.5c0.5,0.3,0.9,0.8,1.2,1.4c0.3,0.6,0.5,1.3,0.5,2.2c0,0.9-0.2,1.7-0.5,2.3
			c-0.3,0.6-0.7,1.1-1.2,1.4S473.3,341.6,472.6,341.6z M472.6,340.3c0.6,0,1.1-0.2,1.5-0.7c0.4-0.5,0.6-1.2,0.6-2.1
			c0-0.9-0.2-1.5-0.6-2c-0.4-0.5-0.9-0.7-1.5-0.7c-0.6,0-1.1,0.2-1.5,0.7c-0.4,0.5-0.6,1.2-0.6,2c0,0.9,0.2,1.6,0.6,2.1
			C471.4,340,471.9,340.3,472.6,340.3z"/>
		<path d="M480.5,341.6c-0.5,0-1-0.1-1.5-0.3c-0.5-0.2-0.8-0.5-1.1-0.9c-0.3-0.4-0.4-0.9-0.5-1.5h1.4c0,0.3,0.1,0.5,0.2,0.7
			c0.1,0.2,0.3,0.3,0.6,0.4c0.2,0.1,0.5,0.1,0.8,0.1c0.3,0,0.5,0,0.8-0.1c0.2-0.1,0.4-0.2,0.5-0.3c0.1-0.1,0.2-0.3,0.2-0.5
			c0-0.3-0.1-0.5-0.2-0.6c-0.2-0.1-0.4-0.3-0.8-0.4l-1.5-0.6c-0.6-0.2-1.1-0.5-1.4-0.8c-0.3-0.3-0.5-0.7-0.5-1.3
			c0-0.6,0.2-1.1,0.8-1.5c0.5-0.4,1.2-0.6,2.1-0.6c0.9,0,1.5,0.2,2,0.6c0.5,0.4,0.7,1,0.8,1.7h-1.4c-0.1-0.3-0.2-0.6-0.4-0.7
			c-0.2-0.2-0.6-0.3-1-0.3c-0.4,0-0.7,0.1-0.9,0.2c-0.2,0.2-0.3,0.4-0.3,0.6c0,0.2,0.1,0.4,0.2,0.5c0.1,0.1,0.4,0.2,0.7,0.4l1.7,0.7
			c0.6,0.2,1,0.5,1.3,0.8c0.3,0.3,0.5,0.8,0.5,1.3c0,0.5-0.1,0.9-0.4,1.2s-0.6,0.6-1,0.8C481.7,341.5,481.1,341.6,480.5,341.6z"/>
	</g>
</g>
<g>
	<g>
		<path d="M632.1,341.6c-0.6,0-1.1-0.1-1.5-0.3c-0.4-0.2-0.8-0.5-1-0.8c-0.2-0.4-0.4-0.8-0.4-1.4h1.4c0,0.4,0.1,0.7,0.4,0.9
			c0.3,0.2,0.6,0.3,1,0.3c0.4,0,0.8-0.1,1.1-0.4s0.4-0.6,0.4-1c0-0.8-0.5-1.2-1.6-1.2h-2.4l0.4-4h4.7v1.3h-3.5l0.3-0.4l-0.2,2.3
			l-0.1-0.1c0.2,0,0.4-0.1,0.7-0.1c0.3,0,0.5,0,0.7,0c0.8,0,1.4,0.2,1.9,0.6c0.5,0.4,0.7,0.9,0.7,1.7c0,0.5-0.1,1-0.4,1.4
			s-0.6,0.7-1,1C633.2,341.4,632.7,341.6,632.1,341.6z"/>
		<path d="M638.8,341.4l2.7-7.8h1.8l2.5,7.8h-1.5l-0.5-1.7h-2.9l-0.6,1.7H638.8z M641.2,338.6h2.2l-1.1-3.3L641.2,338.6z"/>
		<path d="M647.1,333.6h1.5l3.5,5.6h-0.1v-5.6h1.4v7.8h-1.4l-3.8-5.9h0.2v5.9h-1.4V333.6z M648.8,332.7l-0.6-0.3
			c0.1-0.5,0.3-0.9,0.5-1.1c0.2-0.3,0.5-0.4,0.8-0.4c0.1,0,0.2,0,0.4,0.1s0.3,0.1,0.5,0.2c0.2,0.1,0.4,0.2,0.5,0.2s0.2,0.1,0.3,0.1
			c0.1,0,0.2,0,0.3-0.1c0.1-0.1,0.2-0.2,0.3-0.4l0.6,0.4c-0.1,0.3-0.1,0.5-0.3,0.8s-0.3,0.4-0.4,0.5s-0.3,0.2-0.5,0.2
			c-0.1,0-0.3,0-0.4-0.1c-0.1-0.1-0.3-0.1-0.6-0.3c-0.2-0.1-0.3-0.2-0.4-0.2c-0.1,0-0.2-0.1-0.3-0.1c-0.1,0-0.3,0-0.4,0.1
			S648.9,332.5,648.8,332.7z"/>
		<path d="M658.7,341.6c-0.7,0-1.3-0.2-1.8-0.5c-0.5-0.3-0.9-0.8-1.2-1.4c-0.3-0.6-0.5-1.4-0.5-2.2c0-0.9,0.1-1.7,0.5-2.3
			c0.3-0.6,0.7-1,1.2-1.3c0.5-0.3,1.1-0.4,1.8-0.4c0.7,0,1.3,0.2,1.8,0.5c0.5,0.3,0.9,0.8,1.2,1.4c0.3,0.6,0.4,1.3,0.4,2.2
			c0,0.9-0.1,1.7-0.4,2.3c-0.3,0.6-0.7,1.1-1.2,1.4C660,341.4,659.4,341.6,658.7,341.6z M658.7,340.3c0.6,0,1.1-0.2,1.5-0.7
			c0.4-0.5,0.6-1.2,0.6-2.1c0-0.9-0.2-1.5-0.6-2c-0.4-0.5-0.9-0.7-1.5-0.7c-0.6,0-1.1,0.2-1.5,0.7c-0.4,0.5-0.6,1.2-0.6,2
			c0,0.9,0.2,1.6,0.6,2.1C657.6,340,658.1,340.3,658.7,340.3z"/>
		<path d="M666.7,341.6c-0.5,0-1-0.1-1.5-0.3c-0.5-0.2-0.8-0.5-1.1-0.9c-0.3-0.4-0.4-0.9-0.5-1.5h1.4c0,0.3,0.1,0.5,0.2,0.7
			c0.1,0.2,0.3,0.3,0.6,0.4c0.2,0.1,0.5,0.1,0.8,0.1c0.3,0,0.5,0,0.8-0.1c0.2-0.1,0.4-0.2,0.5-0.3c0.1-0.1,0.2-0.3,0.2-0.5
			c0-0.3-0.1-0.5-0.2-0.6c-0.2-0.1-0.4-0.3-0.8-0.4l-1.5-0.6c-0.6-0.2-1.1-0.5-1.4-0.8c-0.3-0.3-0.5-0.7-0.5-1.3
			c0-0.6,0.2-1.1,0.8-1.5c0.5-0.4,1.2-0.6,2.1-0.6c0.9,0,1.5,0.2,2,0.6c0.5,0.4,0.7,1,0.8,1.7H668c-0.1-0.3-0.2-0.6-0.4-0.7
			c-0.2-0.2-0.6-0.3-1-0.3c-0.4,0-0.7,0.1-0.9,0.2c-0.2,0.2-0.3,0.4-0.3,0.6c0,0.2,0.1,0.4,0.2,0.5c0.1,0.1,0.4,0.2,0.7,0.4l1.7,0.7
			c0.6,0.2,1,0.5,1.3,0.8c0.3,0.3,0.5,0.8,0.5,1.3c0,0.5-0.1,0.9-0.4,1.2s-0.6,0.6-1,0.8C667.9,341.5,667.3,341.6,666.7,341.6z"/>
	</g>
</g>
<g>
	<g>
		<path d="M7.6,250.4v-1.3c0-0.4,0.1-0.8,0.2-1.1c0.1-0.3,0.3-0.6,0.6-0.8c0.3-0.2,0.6-0.4,1-0.5l1.6-0.6c0.3-0.1,0.6-0.3,0.8-0.5
			s0.2-0.5,0.2-0.8c0-0.3-0.1-0.6-0.3-0.8c-0.2-0.2-0.5-0.3-0.9-0.3c-0.4,0-0.7,0.1-1,0.3s-0.4,0.5-0.5,0.8H7.7c0-0.5,0.1-1,0.4-1.3
			c0.3-0.4,0.6-0.6,1.1-0.8c0.4-0.2,0.9-0.3,1.5-0.3c0.5,0,1,0.1,1.4,0.3c0.4,0.2,0.8,0.5,1,0.8c0.2,0.4,0.4,0.8,0.4,1.2
			c0,0.4-0.1,0.8-0.2,1.1c-0.1,0.3-0.4,0.6-0.7,0.8c-0.3,0.2-0.7,0.4-1.1,0.6l-1.6,0.6c-0.3,0.1-0.5,0.3-0.7,0.4
			C9,248.5,9,248.7,9,248.9v0.2h4.5v1.3H7.6z"/>
		<path d="M17.9,250.6c-0.6,0-1.2-0.1-1.7-0.4c-0.5-0.3-0.9-0.7-1.1-1.3c-0.3-0.6-0.4-1.4-0.4-2.3c0-0.9,0.1-1.7,0.4-2.3
			c0.3-0.6,0.7-1,1.1-1.3c0.5-0.3,1-0.4,1.7-0.4c0.6,0,1.2,0.1,1.7,0.4s0.9,0.7,1.1,1.3c0.3,0.6,0.4,1.4,0.4,2.3
			c0,0.9-0.1,1.7-0.4,2.3c-0.3,0.6-0.7,1-1.1,1.3S18.5,250.6,17.9,250.6z M17.9,249.3c0.6,0,1-0.2,1.3-0.7c0.3-0.5,0.5-1.2,0.5-2
			c0-0.9-0.2-1.6-0.5-2.1c-0.3-0.5-0.7-0.7-1.3-0.7c-0.6,0-1,0.2-1.3,0.7c-0.3,0.5-0.5,1.2-0.5,2.1c0,0.9,0.2,1.6,0.5,2
			C16.9,249.1,17.3,249.3,17.9,249.3z"/>
		<path d="M25.5,250.6c-0.6,0-1.2-0.1-1.7-0.4c-0.5-0.3-0.9-0.7-1.1-1.3c-0.3-0.6-0.4-1.4-0.4-2.3c0-0.9,0.1-1.7,0.4-2.3
			c0.3-0.6,0.7-1,1.1-1.3c0.5-0.3,1-0.4,1.7-0.4c0.6,0,1.2,0.1,1.7,0.4s0.9,0.7,1.1,1.3c0.3,0.6,0.4,1.4,0.4,2.3
			c0,0.9-0.1,1.7-0.4,2.3c-0.3,0.6-0.7,1-1.1,1.3S26.1,250.6,25.5,250.6z M25.5,249.3c0.6,0,1-0.2,1.3-0.7c0.3-0.5,0.5-1.2,0.5-2
			c0-0.9-0.2-1.6-0.5-2.1c-0.3-0.5-0.7-0.7-1.3-0.7c-0.6,0-1,0.2-1.3,0.7c-0.3,0.5-0.5,1.2-0.5,2.1c0,0.9,0.2,1.6,0.5,2
			C24.5,249.1,24.9,249.3,25.5,249.3z"/>
		<path d="M33.4,242.6h1.4v7.8h-1.4V242.6z M37.9,242.6h1.9l-5.1,5.3V246L37.9,242.6z M36.2,245.9l3.9,4.6h-1.8l-3-3.6L36.2,245.9z"
			/>
	</g>
</g>
<g>
	<g>
		<path d="M11.1,174.7c-0.4,0-0.8-0.1-1.2-0.2s-0.7-0.3-1-0.5c-0.3-0.2-0.5-0.5-0.7-0.8c-0.2-0.3-0.3-0.7-0.3-1.1h1.5
			c0,0.3,0.1,0.5,0.2,0.7s0.3,0.4,0.6,0.5c0.3,0.1,0.5,0.2,0.9,0.2c0.5,0,0.9-0.1,1.1-0.3c0.3-0.2,0.4-0.5,0.4-0.9
			c0-0.2-0.1-0.4-0.2-0.6c-0.1-0.2-0.3-0.3-0.5-0.4s-0.5-0.1-0.9-0.1h-1V170H11c0.5,0,0.8-0.1,1.1-0.3c0.3-0.2,0.4-0.5,0.4-0.8
			c0-0.3-0.1-0.6-0.3-0.8c-0.2-0.2-0.6-0.3-1-0.3c-0.4,0-0.7,0.1-1,0.2c-0.3,0.1-0.5,0.4-0.5,0.8H8.1c0.1-0.5,0.2-1,0.5-1.3
			c0.3-0.3,0.6-0.6,1-0.7s0.9-0.2,1.4-0.2c0.6,0,1.1,0.1,1.5,0.3s0.8,0.4,1,0.8c0.3,0.3,0.4,0.7,0.4,1.1c0,0.4-0.1,0.7-0.3,1
			s-0.5,0.5-1,0.7c0.5,0.2,0.9,0.4,1.1,0.7c0.3,0.3,0.4,0.7,0.4,1.2c0,0.5-0.1,0.9-0.4,1.2c-0.3,0.4-0.6,0.6-1.1,0.8
			C12.3,174.6,11.8,174.7,11.1,174.7z"/>
		<path d="M18.6,174.7c-0.6,0-1.2-0.1-1.7-0.4c-0.5-0.3-0.9-0.7-1.1-1.3c-0.3-0.6-0.4-1.4-0.4-2.3c0-0.9,0.1-1.7,0.4-2.3
			c0.3-0.6,0.7-1,1.1-1.3c0.5-0.3,1-0.4,1.7-0.4c0.6,0,1.2,0.1,1.7,0.4s0.9,0.7,1.1,1.3c0.3,0.6,0.4,1.4,0.4,2.3
			c0,0.9-0.1,1.7-0.4,2.3c-0.3,0.6-0.7,1-1.1,1.3S19.3,174.7,18.6,174.7z M18.6,173.4c0.6,0,1-0.2,1.3-0.7c0.3-0.5,0.5-1.2,0.5-2
			c0-0.9-0.2-1.6-0.5-2.1c-0.3-0.5-0.7-0.7-1.3-0.7c-0.6,0-1,0.2-1.3,0.7c-0.3,0.5-0.5,1.2-0.5,2.1c0,0.9,0.2,1.6,0.5,2
			C17.6,173.1,18.1,173.4,18.6,173.4z"/>
		<path d="M26.2,174.7c-0.6,0-1.2-0.1-1.7-0.4c-0.5-0.3-0.9-0.7-1.1-1.3c-0.3-0.6-0.4-1.4-0.4-2.3c0-0.9,0.1-1.7,0.4-2.3
			c0.3-0.6,0.7-1,1.1-1.3c0.5-0.3,1-0.4,1.7-0.4c0.6,0,1.2,0.1,1.7,0.4s0.9,0.7,1.1,1.3c0.3,0.6,0.4,1.4,0.4,2.3
			c0,0.9-0.1,1.7-0.4,2.3c-0.3,0.6-0.7,1-1.1,1.3S26.9,174.7,26.2,174.7z M26.2,173.4c0.6,0,1-0.2,1.3-0.7c0.3-0.5,0.5-1.2,0.5-2
			c0-0.9-0.2-1.6-0.5-2.1c-0.3-0.5-0.7-0.7-1.3-0.7c-0.6,0-1,0.2-1.3,0.7c-0.3,0.5-0.5,1.2-0.5,2.1c0,0.9,0.2,1.6,0.5,2
			C25.2,173.1,25.7,173.4,26.2,173.4z"/>
		<path d="M34.2,166.7h1.4v7.8h-1.4V166.7z M38.7,166.7h1.9l-5.1,5.3V170L38.7,166.7z M36.9,169.9l3.9,4.6H39l-3-3.6L36.9,169.9z"/>
	</g>
</g>
<g>
	<g>
		<path d="M11.1,94.3h1.4v4.9h1.4v1.2h-1.4v1.7H11v-1.7H7.1v-1.1L11.1,94.3z M11.1,96.4l-2.3,3h2.3V96.4z"/>
		<path d="M17.8,102.3c-0.6,0-1.2-0.1-1.7-0.4c-0.5-0.3-0.9-0.7-1.1-1.3c-0.3-0.6-0.4-1.4-0.4-2.3c0-0.9,0.1-1.7,0.4-2.3
			c0.3-0.6,0.7-1,1.1-1.3c0.5-0.3,1-0.4,1.7-0.4c0.6,0,1.2,0.1,1.7,0.4s0.9,0.7,1.1,1.3c0.3,0.6,0.4,1.4,0.4,2.3
			c0,0.9-0.1,1.7-0.4,2.3c-0.3,0.6-0.7,1-1.1,1.3S18.4,102.3,17.8,102.3z M17.8,101c0.6,0,1-0.2,1.3-0.7c0.3-0.5,0.5-1.2,0.5-2
			c0-0.9-0.2-1.6-0.5-2.1c-0.3-0.5-0.7-0.7-1.3-0.7c-0.6,0-1,0.2-1.3,0.7c-0.3,0.5-0.5,1.2-0.5,2.1c0,0.9,0.2,1.6,0.5,2
			C16.8,100.8,17.2,101,17.8,101z"/>
		<path d="M25.4,102.3c-0.6,0-1.2-0.1-1.7-0.4c-0.5-0.3-0.9-0.7-1.1-1.3c-0.3-0.6-0.4-1.4-0.4-2.3c0-0.9,0.1-1.7,0.4-2.3
			c0.3-0.6,0.7-1,1.1-1.3c0.5-0.3,1-0.4,1.7-0.4c0.6,0,1.2,0.1,1.7,0.4s0.9,0.7,1.1,1.3c0.3,0.6,0.4,1.4,0.4,2.3
			c0,0.9-0.1,1.7-0.4,2.3c-0.3,0.6-0.7,1-1.1,1.3S26,102.3,25.4,102.3z M25.4,101c0.6,0,1-0.2,1.3-0.7c0.3-0.5,0.5-1.2,0.5-2
			c0-0.9-0.2-1.6-0.5-2.1c-0.3-0.5-0.7-0.7-1.3-0.7c-0.6,0-1,0.2-1.3,0.7c-0.3,0.5-0.5,1.2-0.5,2.1c0,0.9,0.2,1.6,0.5,2
			C24.4,100.8,24.8,101,25.4,101z"/>
		<path d="M33.3,94.3h1.4v7.8h-1.4V94.3z M37.8,94.3h1.9l-5.1,5.3v-1.9L37.8,94.3z M36.1,97.6l3.9,4.6h-1.8l-3-3.6L36.1,97.6z"/>
	</g>
</g>
<g>
	<g>
		<path d="M10.6,26.9c-0.6,0-1.1-0.1-1.5-0.3c-0.4-0.2-0.8-0.5-1-0.8c-0.2-0.4-0.4-0.8-0.4-1.4h1.4c0,0.4,0.1,0.7,0.4,0.9
			s0.6,0.3,1,0.3c0.4,0,0.8-0.1,1.1-0.4c0.3-0.3,0.4-0.6,0.4-1c0-0.8-0.5-1.2-1.6-1.2H8.1l0.4-4h4.7v1.3H9.6l0.3-0.4l-0.2,2.3
			L9.5,22c0.2,0,0.4-0.1,0.7-0.1c0.3,0,0.5,0,0.7,0c0.8,0,1.4,0.2,1.9,0.6c0.5,0.4,0.7,0.9,0.7,1.7c0,0.5-0.1,1-0.4,1.4
			c-0.2,0.4-0.6,0.7-1,1S11.2,26.9,10.6,26.9z"/>
		<path d="M17.8,26.9c-0.6,0-1.2-0.1-1.7-0.4c-0.5-0.3-0.9-0.7-1.1-1.3c-0.3-0.6-0.4-1.4-0.4-2.3c0-0.9,0.1-1.7,0.4-2.3
			c0.3-0.6,0.7-1,1.1-1.3c0.5-0.3,1-0.4,1.7-0.4c0.6,0,1.2,0.1,1.7,0.4s0.9,0.7,1.1,1.3c0.3,0.6,0.4,1.4,0.4,2.3
			c0,0.9-0.1,1.7-0.4,2.3c-0.3,0.6-0.7,1-1.1,1.3S18.4,26.9,17.8,26.9z M17.8,25.6c0.6,0,1-0.2,1.3-0.7c0.3-0.5,0.5-1.2,0.5-2
			c0-0.9-0.2-1.6-0.5-2.1c-0.3-0.5-0.7-0.7-1.3-0.7c-0.6,0-1,0.2-1.3,0.7C16.2,21.3,16,22,16,22.9c0,0.9,0.2,1.6,0.5,2
			C16.8,25.4,17.2,25.6,17.8,25.6z"/>
		<path d="M25.4,26.9c-0.6,0-1.2-0.1-1.7-0.4c-0.5-0.3-0.9-0.7-1.1-1.3c-0.3-0.6-0.4-1.4-0.4-2.3c0-0.9,0.1-1.7,0.4-2.3
			c0.3-0.6,0.7-1,1.1-1.3c0.5-0.3,1-0.4,1.7-0.4c0.6,0,1.2,0.1,1.7,0.4s0.9,0.7,1.1,1.3c0.3,0.6,0.4,1.4,0.4,2.3
			c0,0.9-0.1,1.7-0.4,2.3c-0.3,0.6-0.7,1-1.1,1.3S26,26.9,25.4,26.9z M25.4,25.6c0.6,0,1-0.2,1.3-0.7c0.3-0.5,0.5-1.2,0.5-2
			c0-0.9-0.2-1.6-0.5-2.1c-0.3-0.5-0.7-0.7-1.3-0.7c-0.6,0-1,0.2-1.3,0.7c-0.3,0.5-0.5,1.2-0.5,2.1c0,0.9,0.2,1.6,0.5,2
			C24.4,25.4,24.8,25.6,25.4,25.6z"/>
		<path d="M33.3,19h1.4v7.8h-1.4V19z M37.8,19h1.9l-5.1,5.3v-1.9L37.8,19z M36.1,22.2l3.9,4.6h-1.8l-3-3.6L36.1,22.2z"/>
	</g>
</g>
<g>
	<g>
		<path d="M201.7,195.5c-0.5,0-0.9-0.1-1.3-0.2c-0.4-0.1-0.8-0.3-1.1-0.5c-0.3-0.2-0.6-0.5-0.8-0.8s-0.3-0.7-0.3-1.2h1.4
			c0,0.3,0.1,0.6,0.3,0.8s0.4,0.3,0.7,0.4c0.3,0.1,0.7,0.1,1.2,0.1c0.4,0,0.7,0,0.9-0.1s0.4-0.2,0.5-0.4c0.1-0.1,0.2-0.3,0.2-0.5
			c0-0.2-0.1-0.4-0.2-0.6s-0.4-0.3-0.7-0.4l-0.9-0.3v-1.2l1.5,0.5c0.6,0.2,1,0.5,1.3,0.8c0.3,0.3,0.4,0.7,0.4,1.2
			c0,0.4-0.1,0.7-0.3,1.1s-0.6,0.6-1.1,0.8C203,195.4,202.4,195.5,201.7,195.5z M201.3,191.9l-0.9-0.3c-0.7-0.2-1.2-0.5-1.6-0.8
			c-0.4-0.3-0.5-0.7-0.5-1.3c0-0.6,0.3-1.1,0.8-1.5c0.5-0.4,1.3-0.6,2.3-0.6c1,0,1.7,0.2,2.2,0.6c0.5,0.4,0.8,1,0.9,1.7h-1.4
			c-0.1-0.3-0.2-0.6-0.5-0.8s-0.7-0.3-1.2-0.3c-0.5,0-0.9,0.1-1.2,0.3s-0.4,0.4-0.4,0.7c0,0.2,0.1,0.4,0.2,0.5s0.3,0.2,0.6,0.3
			l0.6,0.3V191.9z M201,196.5v-10.1h1v10.1H201z"/>
		<path d="M207.8,187.5h1.1v7.8h-1.4v-6.1c-0.2,0.1-0.4,0.2-0.6,0.2c-0.2,0.1-0.4,0.1-0.6,0.1v-1.4c0.3,0,0.5-0.1,0.8-0.2
			S207.5,187.7,207.8,187.5z"/>
		<path d="M214.2,187.4h1.4v4.9h1.4v1.2h-1.4v1.7h-1.4v-1.7h-3.9v-1.1L214.2,187.4z M214.2,189.5l-2.3,3h2.3V189.5z"/>
		<path d="M221.3,187.4h1.4v4.9h1.4v1.2h-1.4v1.7h-1.4v-1.7h-3.9v-1.1L221.3,187.4z M221.4,189.5l-2.3,3h2.3V189.5z"/>
		<path d="M225.6,196.9l-1-0.5c0.3-0.1,0.5-0.3,0.7-0.5c0.2-0.2,0.3-0.4,0.4-0.6c-0.2,0-0.4-0.1-0.6-0.3c-0.2-0.1-0.2-0.3-0.2-0.6
			c0-0.2,0.1-0.4,0.3-0.6c0.2-0.2,0.4-0.2,0.7-0.2c0.4,0,0.6,0.1,0.8,0.4s0.3,0.5,0.3,0.9c0,0.4-0.1,0.8-0.4,1.1
			C226.3,196.4,226,196.7,225.6,196.9z"/>
		<path d="M230.8,195.5c-0.5,0-1-0.1-1.4-0.3c-0.4-0.2-0.8-0.5-1-0.9s-0.4-0.8-0.4-1.3h1.5c0,0.4,0.1,0.6,0.4,0.9
			c0.2,0.2,0.6,0.3,0.9,0.3c0.4,0,0.8-0.1,1.1-0.4c0.3-0.2,0.5-0.6,0.6-1.1c0.1-0.5,0.2-1,0.2-1.6c0-0.1,0-0.2,0-0.4
			c0-0.1,0-0.2,0-0.4c-0.1,0.4-0.2,0.8-0.4,1.1c-0.2,0.3-0.5,0.5-0.8,0.6c-0.3,0.1-0.6,0.2-1,0.2c-0.5,0-0.9-0.1-1.3-0.3
			c-0.4-0.2-0.7-0.5-0.9-0.9c-0.2-0.4-0.3-0.8-0.3-1.3c0-0.5,0.1-0.9,0.4-1.3c0.2-0.4,0.6-0.7,1-0.9s0.9-0.3,1.5-0.3
			c0.5,0,0.9,0.1,1.3,0.3c0.4,0.2,0.8,0.5,1.1,0.8c0.3,0.3,0.5,0.8,0.7,1.2c0.2,0.5,0.3,1,0.3,1.6c0,0.9-0.1,1.6-0.4,2.2
			c-0.2,0.6-0.6,1.1-1.1,1.5C232.1,195.3,231.5,195.5,230.8,195.5z M230.7,191.1c0.2,0,0.5-0.1,0.7-0.2c0.2-0.1,0.4-0.2,0.5-0.4
			s0.2-0.4,0.2-0.6c0-0.4-0.1-0.7-0.4-0.9c-0.3-0.2-0.6-0.3-1-0.3s-0.7,0.1-1,0.3c-0.3,0.2-0.4,0.5-0.4,0.9c0,0.4,0.1,0.7,0.4,0.9
			C230,191,230.4,191.1,230.7,191.1z"/>
		<path d="M238.5,195.5c-0.7,0-1.2-0.2-1.7-0.5c-0.5-0.3-0.9-0.8-1.2-1.4c-0.3-0.6-0.4-1.3-0.4-2c0-0.9,0.1-1.6,0.4-2.3
			c0.3-0.6,0.7-1.1,1.2-1.4c0.5-0.3,1.1-0.5,1.8-0.5c0.5,0,1,0.1,1.4,0.3c0.4,0.2,0.7,0.5,0.9,0.8c0.2,0.3,0.4,0.7,0.4,1.2h-1.5
			c0-0.3-0.2-0.6-0.3-0.7c-0.2-0.2-0.4-0.3-0.8-0.3c-0.6,0-1.1,0.3-1.5,0.8s-0.5,1.3-0.5,2.2c0,0.1,0,0.2,0,0.4c0,0.1,0,0.3,0,0.4
			c0.1-0.5,0.2-0.9,0.4-1.2c0.2-0.3,0.5-0.5,0.8-0.6c0.3-0.1,0.6-0.2,1-0.2c0.5,0,0.9,0.1,1.3,0.3s0.7,0.5,0.9,0.9s0.3,0.8,0.3,1.3
			c0,0.5-0.1,0.9-0.4,1.3c-0.2,0.4-0.6,0.7-1,0.9C239.5,195.4,239,195.5,238.5,195.5z M238.5,194.2c0.4,0,0.7-0.1,1-0.3
			s0.4-0.5,0.4-0.9c0-0.4-0.1-0.7-0.4-0.9c-0.3-0.2-0.6-0.3-1-0.3c-0.2,0-0.5,0.1-0.7,0.2c-0.2,0.1-0.4,0.2-0.5,0.4
			c-0.1,0.2-0.2,0.4-0.2,0.7c0,0.4,0.1,0.7,0.4,0.9C237.8,194.1,238.1,194.2,238.5,194.2z"/>
		<path d="M244,187.5h1.1v7.8h-1.4v-6.1c-0.2,0.1-0.4,0.2-0.6,0.2c-0.2,0.1-0.4,0.1-0.6,0.1v-1.4c0.3,0,0.5-0.1,0.8-0.2
			S243.7,187.7,244,187.5z"/>
		<path d="M246.4,194.5c0-0.3,0.1-0.5,0.3-0.7s0.4-0.3,0.7-0.3s0.5,0.1,0.7,0.3c0.2,0.2,0.3,0.4,0.3,0.7c0,0.3-0.1,0.5-0.3,0.7
			c-0.2,0.2-0.4,0.3-0.7,0.3s-0.5-0.1-0.7-0.3C246.5,195,246.4,194.7,246.4,194.5z"/>
		<path d="M252.6,195.5c-0.7,0-1.2-0.2-1.7-0.5c-0.5-0.3-0.9-0.8-1.2-1.4c-0.3-0.6-0.4-1.3-0.4-2c0-0.9,0.1-1.6,0.4-2.3
			c0.3-0.6,0.7-1.1,1.2-1.4c0.5-0.3,1.1-0.5,1.8-0.5c0.5,0,1,0.1,1.4,0.3c0.4,0.2,0.7,0.5,0.9,0.8c0.2,0.3,0.4,0.7,0.4,1.2h-1.5
			c0-0.3-0.2-0.6-0.3-0.7c-0.2-0.2-0.4-0.3-0.8-0.3c-0.6,0-1.1,0.3-1.5,0.8s-0.5,1.3-0.5,2.2c0,0.1,0,0.2,0,0.4c0,0.1,0,0.3,0,0.4
			c0.1-0.5,0.2-0.9,0.4-1.2c0.2-0.3,0.5-0.5,0.8-0.6c0.3-0.1,0.6-0.2,1-0.2c0.5,0,0.9,0.1,1.3,0.3s0.7,0.5,0.9,0.9s0.3,0.8,0.3,1.3
			c0,0.5-0.1,0.9-0.4,1.3c-0.2,0.4-0.6,0.7-1,0.9C253.7,195.4,253.2,195.5,252.6,195.5z M252.6,194.2c0.4,0,0.7-0.1,1-0.3
			s0.4-0.5,0.4-0.9c0-0.4-0.1-0.7-0.4-0.9c-0.3-0.2-0.6-0.3-1-0.3c-0.2,0-0.5,0.1-0.7,0.2c-0.2,0.1-0.4,0.2-0.5,0.4
			c-0.1,0.2-0.2,0.4-0.2,0.7c0,0.4,0.1,0.7,0.4,0.9C251.9,194.1,252.2,194.2,252.6,194.2z"/>
	</g>
</g>
<g>
	<g>
		<path d="M437.8,90.2c-0.5,0-0.9-0.1-1.3-0.2s-0.8-0.3-1.1-0.5s-0.6-0.5-0.8-0.8c-0.2-0.3-0.3-0.7-0.3-1.2h1.4
			c0,0.3,0.1,0.6,0.3,0.8c0.2,0.2,0.4,0.3,0.7,0.4c0.3,0.1,0.7,0.1,1.2,0.1c0.4,0,0.7,0,0.9-0.1c0.2-0.1,0.4-0.2,0.5-0.4
			c0.1-0.1,0.2-0.3,0.2-0.5c0-0.2-0.1-0.4-0.2-0.6c-0.1-0.2-0.4-0.3-0.7-0.4l-0.9-0.3v-1.2l1.5,0.5c0.6,0.2,1,0.5,1.3,0.8
			c0.3,0.3,0.4,0.7,0.4,1.2c0,0.4-0.1,0.7-0.3,1.1c-0.2,0.3-0.6,0.6-1.1,0.8C439.1,90.1,438.5,90.2,437.8,90.2z M437.4,86.6
			l-0.9-0.3c-0.7-0.2-1.2-0.5-1.6-0.8c-0.4-0.3-0.5-0.7-0.5-1.3c0-0.6,0.3-1.1,0.8-1.5s1.3-0.6,2.3-0.6c1,0,1.7,0.2,2.2,0.6
			c0.5,0.4,0.8,1,0.9,1.7h-1.4c-0.1-0.3-0.2-0.6-0.5-0.8s-0.7-0.3-1.2-0.3c-0.5,0-0.9,0.1-1.2,0.3c-0.3,0.2-0.4,0.4-0.4,0.7
			c0,0.2,0.1,0.4,0.2,0.5c0.1,0.1,0.3,0.2,0.6,0.3l0.6,0.3V86.6z M437.1,91.2V81.2h1v10.1H437.1z"/>
		<path d="M443.9,82.2h1.1V90h-1.4v-6.1c-0.2,0.1-0.4,0.2-0.6,0.2c-0.2,0.1-0.4,0.1-0.6,0.1v-1.4c0.3,0,0.5-0.1,0.8-0.2
			C443.3,82.5,443.6,82.4,443.9,82.2z"/>
		<path d="M446.6,90l3.6-6.4h-3.8v-1.4h5.5v1.4l-3.3,6.4H446.6z"/>
		<path d="M456.3,82.2h1.4v4.9h1.4v1.2h-1.4V90h-1.4v-1.7h-3.9v-1.1L456.3,82.2z M456.3,84.3l-2.3,3h2.3V84.3z"/>
		<path d="M460.5,91.7l-1-0.5c0.3-0.1,0.5-0.3,0.7-0.5c0.2-0.2,0.3-0.4,0.4-0.6c-0.2,0-0.4-0.1-0.6-0.3c-0.2-0.1-0.2-0.3-0.2-0.6
			c0-0.2,0.1-0.4,0.3-0.6c0.2-0.2,0.4-0.2,0.7-0.2c0.4,0,0.6,0.1,0.8,0.4s0.3,0.5,0.3,0.9c0,0.4-0.1,0.8-0.4,1.1
			C461.3,91.2,460.9,91.5,460.5,91.7z"/>
		<path d="M465.8,90.2c-0.6,0-1.1-0.1-1.5-0.3s-0.8-0.5-1-0.8s-0.4-0.8-0.4-1.4h1.4c0,0.4,0.1,0.7,0.4,0.9c0.3,0.2,0.6,0.3,1,0.3
			c0.4,0,0.8-0.1,1.1-0.4c0.3-0.3,0.4-0.6,0.4-1c0-0.8-0.5-1.2-1.6-1.2h-2.4l0.4-4h4.7v1.3h-3.5l0.3-0.4l-0.2,2.3l-0.1-0.1
			c0.2,0,0.4-0.1,0.7-0.1c0.3,0,0.5,0,0.7,0c0.8,0,1.4,0.2,1.9,0.6c0.5,0.4,0.7,0.9,0.7,1.7c0,0.5-0.1,1-0.4,1.4
			c-0.2,0.4-0.6,0.7-1,1C466.9,90.1,466.4,90.2,465.8,90.2z"/>
		<path d="M472.9,90.2c-0.4,0-0.8-0.1-1.2-0.2s-0.7-0.3-1-0.5c-0.3-0.2-0.5-0.5-0.7-0.8s-0.3-0.7-0.3-1.1h1.5c0,0.3,0.1,0.5,0.2,0.7
			c0.1,0.2,0.3,0.4,0.6,0.5s0.5,0.2,0.9,0.2c0.5,0,0.9-0.1,1.1-0.3c0.3-0.2,0.4-0.5,0.4-0.9c0-0.2-0.1-0.4-0.2-0.6
			c-0.1-0.2-0.3-0.3-0.5-0.4c-0.2-0.1-0.5-0.1-0.9-0.1h-1v-1.1h0.9c0.5,0,0.8-0.1,1.1-0.3c0.3-0.2,0.4-0.5,0.4-0.8
			c0-0.3-0.1-0.6-0.3-0.8c-0.2-0.2-0.6-0.3-1-0.3c-0.4,0-0.7,0.1-1,0.2s-0.5,0.4-0.5,0.8h-1.5c0.1-0.5,0.2-1,0.5-1.3s0.6-0.6,1-0.7
			c0.4-0.2,0.9-0.2,1.4-0.2c0.6,0,1.1,0.1,1.5,0.3c0.4,0.2,0.8,0.4,1,0.8c0.3,0.3,0.4,0.7,0.4,1.1c0,0.4-0.1,0.7-0.3,1
			s-0.5,0.5-1,0.7c0.5,0.2,0.8,0.4,1.1,0.7c0.3,0.3,0.4,0.7,0.4,1.2c0,0.5-0.1,0.9-0.4,1.2s-0.6,0.6-1.1,0.8
			C474.1,90.1,473.6,90.2,472.9,90.2z"/>
		<path d="M480.4,90.2c-0.4,0-0.8-0.1-1.2-0.2s-0.7-0.3-1-0.5c-0.3-0.2-0.5-0.5-0.7-0.8s-0.3-0.7-0.3-1.1h1.5c0,0.3,0.1,0.5,0.2,0.7
			c0.1,0.2,0.3,0.4,0.6,0.5s0.5,0.2,0.9,0.2c0.5,0,0.9-0.1,1.1-0.3c0.3-0.2,0.4-0.5,0.4-0.9c0-0.2-0.1-0.4-0.2-0.6
			c-0.1-0.2-0.3-0.3-0.5-0.4c-0.2-0.1-0.5-0.1-0.9-0.1h-1v-1.1h0.9c0.5,0,0.8-0.1,1.1-0.3c0.3-0.2,0.4-0.5,0.4-0.8
			c0-0.3-0.1-0.6-0.3-0.8c-0.2-0.2-0.6-0.3-1-0.3c-0.4,0-0.7,0.1-1,0.2s-0.5,0.4-0.5,0.8h-1.5c0.1-0.5,0.2-1,0.5-1.3s0.6-0.6,1-0.7
			c0.4-0.2,0.9-0.2,1.4-0.2c0.6,0,1.1,0.1,1.5,0.3c0.4,0.2,0.8,0.4,1,0.8c0.3,0.3,0.4,0.7,0.4,1.1c0,0.4-0.1,0.7-0.3,1
			s-0.5,0.5-1,0.7c0.5,0.2,0.8,0.4,1.1,0.7c0.3,0.3,0.4,0.7,0.4,1.2c0,0.5-0.1,0.9-0.4,1.2s-0.6,0.6-1.1,0.8
			C481.6,90.1,481,90.2,480.4,90.2z"/>
		<path d="M484.4,89.2c0-0.3,0.1-0.5,0.3-0.7c0.2-0.2,0.4-0.3,0.7-0.3s0.5,0.1,0.7,0.3c0.2,0.2,0.3,0.4,0.3,0.7
			c0,0.3-0.1,0.5-0.3,0.7c-0.2,0.2-0.4,0.3-0.7,0.3s-0.5-0.1-0.7-0.3C484.5,89.7,484.4,89.5,484.4,89.2z"/>
		<path d="M487.2,90l3.6-6.4H487v-1.4h5.5v1.4l-3.3,6.4H487.2z"/>
	</g>
</g>
<g>
	<g>
		<path d="M625.4,12.3c-0.5,0-0.9-0.1-1.3-0.2s-0.8-0.3-1.1-0.5c-0.3-0.2-0.6-0.5-0.8-0.8c-0.2-0.3-0.3-0.7-0.3-1.2h1.4
			c0,0.3,0.1,0.6,0.3,0.8c0.2,0.2,0.4,0.3,0.7,0.4c0.3,0.1,0.7,0.1,1.2,0.1c0.4,0,0.7,0,0.9-0.1c0.2-0.1,0.4-0.2,0.5-0.4
			c0.1-0.1,0.2-0.3,0.2-0.5c0-0.2-0.1-0.4-0.2-0.6c-0.2-0.2-0.4-0.3-0.7-0.4l-0.9-0.3V7.5l1.5,0.5c0.6,0.2,1,0.5,1.3,0.8
			c0.3,0.3,0.4,0.7,0.4,1.2c0,0.4-0.1,0.7-0.3,1.1c-0.2,0.3-0.6,0.6-1.1,0.8C626.7,12.2,626.1,12.3,625.4,12.3z M625,8.7l-0.9-0.3
			c-0.7-0.2-1.2-0.5-1.6-0.8c-0.4-0.3-0.5-0.7-0.5-1.3c0-0.6,0.3-1.1,0.8-1.5c0.5-0.4,1.3-0.6,2.3-0.6c1,0,1.7,0.2,2.2,0.6
			c0.5,0.4,0.8,1,0.9,1.7h-1.4c-0.1-0.3-0.2-0.6-0.5-0.8s-0.7-0.3-1.2-0.3c-0.5,0-0.9,0.1-1.2,0.3c-0.3,0.2-0.4,0.4-0.4,0.7
			c0,0.2,0.1,0.4,0.2,0.5c0.1,0.1,0.3,0.2,0.6,0.3l0.6,0.3V8.7z M624.7,13.3V3.3h1v10.1H624.7z"/>
		<path d="M630.1,12.1v-1.3c0-0.4,0.1-0.8,0.2-1.1c0.1-0.3,0.3-0.6,0.6-0.8c0.3-0.2,0.6-0.4,1-0.5l1.6-0.6c0.3-0.1,0.6-0.3,0.8-0.5
			c0.2-0.2,0.2-0.5,0.2-0.8c0-0.3-0.1-0.6-0.3-0.8s-0.5-0.3-0.9-0.3c-0.4,0-0.7,0.1-1,0.3c-0.3,0.2-0.4,0.5-0.5,0.8h-1.6
			c0-0.5,0.1-1,0.4-1.3c0.3-0.4,0.6-0.6,1.1-0.8c0.4-0.2,0.9-0.3,1.5-0.3c0.5,0,1,0.1,1.4,0.3c0.4,0.2,0.8,0.5,1,0.8
			c0.2,0.4,0.4,0.8,0.4,1.2c0,0.4-0.1,0.8-0.2,1.1c-0.1,0.3-0.4,0.6-0.7,0.8S634.5,8.8,634,9l-1.6,0.6c-0.3,0.1-0.5,0.3-0.7,0.4
			c-0.1,0.1-0.2,0.3-0.2,0.6v0.2h4.5v1.3H630.1z"/>
		<path d="M638.7,4.3h1.1v7.8h-1.4V6c-0.2,0.1-0.4,0.2-0.6,0.2c-0.2,0.1-0.4,0.1-0.6,0.1V4.9c0.3,0,0.5-0.1,0.8-0.2
			C638.2,4.6,638.4,4.5,638.7,4.3z"/>
		<path d="M644.7,12.3c-0.6,0-1.2-0.1-1.7-0.4c-0.5-0.3-0.9-0.7-1.1-1.3c-0.3-0.6-0.4-1.4-0.4-2.3c0-0.9,0.1-1.7,0.4-2.3
			c0.3-0.6,0.7-1,1.1-1.3c0.5-0.3,1-0.4,1.7-0.4c0.6,0,1.2,0.1,1.7,0.4c0.5,0.3,0.9,0.7,1.1,1.3c0.3,0.6,0.4,1.4,0.4,2.3
			c0,0.9-0.1,1.7-0.4,2.3c-0.3,0.6-0.7,1-1.1,1.3C645.9,12.1,645.3,12.3,644.7,12.3z M644.7,11c0.6,0,1-0.2,1.3-0.7
			c0.3-0.5,0.5-1.2,0.5-2c0-0.9-0.2-1.6-0.5-2.1c-0.3-0.5-0.7-0.7-1.3-0.7c-0.6,0-1,0.2-1.3,0.7c-0.3,0.5-0.5,1.2-0.5,2.1
			c0,0.9,0.2,1.6,0.5,2C643.7,10.8,644.1,11,644.7,11z"/>
		<path d="M649.8,13.8l-1-0.5c0.3-0.1,0.5-0.3,0.7-0.5c0.2-0.2,0.3-0.4,0.4-0.6c-0.2,0-0.4-0.1-0.6-0.3c-0.2-0.1-0.2-0.3-0.2-0.6
			c0-0.2,0.1-0.4,0.3-0.6c0.2-0.2,0.4-0.2,0.7-0.2c0.4,0,0.6,0.1,0.8,0.4s0.3,0.5,0.3,0.9c0,0.4-0.1,0.8-0.4,1.1
			C650.6,13.3,650.3,13.5,649.8,13.8z"/>
		<path d="M653.6,4.3h1.1v7.8h-1.4V6c-0.2,0.1-0.4,0.2-0.6,0.2c-0.2,0.1-0.4,0.1-0.6,0.1V4.9c0.3,0,0.5-0.1,0.8-0.2
			C653.1,4.6,653.3,4.5,653.6,4.3z"/>
		<path d="M659.6,12.3c-0.4,0-0.8-0.1-1.2-0.2s-0.7-0.3-1-0.5c-0.3-0.2-0.5-0.5-0.7-0.8c-0.2-0.3-0.3-0.7-0.3-1.1h1.5
			c0,0.3,0.1,0.5,0.2,0.7c0.1,0.2,0.3,0.4,0.6,0.5s0.5,0.2,0.9,0.2c0.5,0,0.9-0.1,1.1-0.3s0.4-0.5,0.4-0.9c0-0.2-0.1-0.4-0.2-0.6
			c-0.1-0.2-0.3-0.3-0.5-0.4c-0.2-0.1-0.5-0.1-0.9-0.1h-1V7.6h0.9c0.5,0,0.8-0.1,1.1-0.3c0.3-0.2,0.4-0.5,0.4-0.8
			c0-0.3-0.1-0.6-0.3-0.8c-0.2-0.2-0.6-0.3-1-0.3c-0.4,0-0.7,0.1-1,0.2s-0.5,0.4-0.5,0.8h-1.5c0.1-0.5,0.2-1,0.5-1.3
			c0.3-0.3,0.6-0.6,1-0.7c0.4-0.2,0.9-0.2,1.4-0.2c0.6,0,1.1,0.1,1.5,0.3c0.4,0.2,0.8,0.4,1,0.8c0.3,0.3,0.4,0.7,0.4,1.1
			c0,0.4-0.1,0.7-0.3,1s-0.5,0.5-1,0.7c0.5,0.2,0.9,0.4,1.1,0.7c0.3,0.3,0.4,0.7,0.4,1.2c0,0.5-0.1,0.9-0.4,1.2
			c-0.3,0.4-0.6,0.6-1.1,0.8C660.7,12.2,660.2,12.3,659.6,12.3z"/>
		<path d="M667.2,12.3c-0.7,0-1.2-0.1-1.7-0.3c-0.5-0.2-0.9-0.5-1.1-0.8c-0.3-0.3-0.4-0.7-0.4-1.2c0-0.4,0.1-0.7,0.3-0.9
			c0.2-0.3,0.5-0.5,0.8-0.6c0.3-0.1,0.7-0.2,1.1-0.2c0.2,0,0.3,0,0.5,0c0.1,0,0.3,0.1,0.5,0.1v0.3c-0.3,0-0.6,0.1-0.9,0.1
			c-0.3,0.1-0.5,0.2-0.6,0.4c-0.2,0.2-0.2,0.4-0.2,0.6c0,0.2,0.1,0.4,0.2,0.6s0.4,0.3,0.7,0.4c0.3,0.1,0.6,0.1,0.9,0.1
			c0.6,0,1.1-0.1,1.4-0.2c0.3-0.2,0.4-0.4,0.4-0.6c0-0.2-0.1-0.4-0.2-0.5c-0.1-0.1-0.3-0.3-0.6-0.4l-2.2-0.9
			c-0.3-0.1-0.5-0.2-0.8-0.4c-0.3-0.2-0.5-0.4-0.7-0.7c-0.2-0.3-0.3-0.6-0.3-1c0-0.4,0.1-0.8,0.4-1.1c0.2-0.3,0.6-0.6,1-0.7
			c0.5-0.2,1-0.3,1.6-0.3c0.6,0,1.1,0.1,1.5,0.3c0.5,0.2,0.8,0.5,1.1,0.8c0.3,0.3,0.4,0.7,0.4,1.2c0,0.3-0.1,0.6-0.2,0.8
			s-0.4,0.5-0.7,0.6c-0.3,0.2-0.7,0.2-1.1,0.2c-0.2,0-0.3,0-0.4,0c-0.1,0-0.3-0.1-0.4-0.1V7.5c0.3,0,0.5,0,0.7-0.1
			c0.2-0.1,0.4-0.2,0.5-0.4c0.1-0.2,0.2-0.3,0.2-0.5c0-0.2-0.1-0.4-0.2-0.6c-0.1-0.2-0.3-0.3-0.5-0.4c-0.2-0.1-0.5-0.1-0.8-0.1
			c-0.3,0-0.6,0-0.8,0.1c-0.2,0.1-0.4,0.2-0.6,0.3c-0.1,0.1-0.2,0.3-0.2,0.5c0,0.2,0.1,0.4,0.2,0.5c0.1,0.1,0.3,0.2,0.6,0.3l2.3,0.9
			c0.6,0.2,1,0.5,1.3,0.8c0.3,0.3,0.5,0.7,0.5,1.2c0,0.4-0.1,0.8-0.4,1.2s-0.6,0.6-1.1,0.8S667.9,12.3,667.2,12.3z"/>
		<path d="M671.3,11.3c0-0.3,0.1-0.5,0.3-0.7c0.2-0.2,0.4-0.3,0.7-0.3s0.5,0.1,0.7,0.3c0.2,0.2,0.3,0.4,0.3,0.7
			c0,0.3-0.1,0.5-0.3,0.7c-0.2,0.2-0.4,0.3-0.7,0.3s-0.5-0.1-0.7-0.3C671.4,11.8,671.3,11.6,671.3,11.3z"/>
		<path d="M677.5,12.3c-0.7,0-1.2-0.2-1.7-0.5c-0.5-0.3-0.9-0.8-1.2-1.4c-0.3-0.6-0.4-1.3-0.4-2c0-0.9,0.1-1.6,0.4-2.3
			s0.7-1.1,1.2-1.4c0.5-0.3,1.1-0.5,1.8-0.5c0.5,0,1,0.1,1.4,0.3c0.4,0.2,0.7,0.5,0.9,0.8c0.2,0.3,0.4,0.7,0.4,1.2h-1.5
			c0-0.3-0.2-0.6-0.3-0.7c-0.2-0.2-0.4-0.3-0.8-0.3c-0.6,0-1.1,0.3-1.5,0.8c-0.4,0.5-0.5,1.3-0.5,2.2c0,0.1,0,0.3,0,0.4
			c0,0.1,0,0.3,0,0.4c0.1-0.5,0.2-0.9,0.4-1.2s0.5-0.5,0.8-0.6c0.3-0.1,0.6-0.2,1-0.2c0.5,0,0.9,0.1,1.3,0.3s0.7,0.5,0.9,0.9
			s0.3,0.8,0.3,1.3c0,0.5-0.1,0.9-0.4,1.3c-0.2,0.4-0.6,0.7-1,0.9C678.5,12.2,678,12.3,677.5,12.3z M677.5,11c0.4,0,0.7-0.1,1-0.3
			c0.3-0.2,0.4-0.5,0.4-0.9c0-0.4-0.1-0.7-0.4-0.9c-0.3-0.2-0.6-0.3-1-0.3c-0.2,0-0.5,0.1-0.7,0.2s-0.4,0.2-0.5,0.4
			s-0.2,0.4-0.2,0.7c0,0.4,0.1,0.7,0.4,0.9C676.8,10.9,677.1,11,677.5,11z"/>
	</g>
</g>
</svg>
